<?xml version="1.0" encoding="UTF-8"?><svg xmlns="http://www.w3.org/2000/svg" viewBox="0 0 16 16"><defs><style>.cls-1{fill:#1a1a1a;}</style></defs><path class="cls-1" d="m1.86,8c0-2.17,1.17-3.71,3.26-3.71,1.96,0,2.59,1.36,2.71,2.15l-.94.13c-.1-.6-.53-1.48-1.8-1.48-1.45,0-2.27,1.2-2.27,2.93,0,1.62.74,2.9,2.28,2.9,1.75,0,2.01-1.47,2.01-2.15v-.12h-2.08v-.8h2.93v3.7h-.69l-.13-1.14c-.31.77-1.12,1.31-2.18,1.31-1.94,0-3.1-1.58-3.1-3.71Z"/><path class="cls-1" d="m11.33,8.6h-1.44v2.95h-.95v-7.09h2.63c1.86,0,2.35,1.04,2.35,2.08,0,.8-.41,1.67-1.6,1.94l1.82,3.07h-1.07l-1.74-2.95Zm-1.44-.8h1.57c1.1,0,1.46-.56,1.46-1.27s-.37-1.28-1.46-1.28h-1.57v2.55Z"/></svg>