<?xml version="1.0" encoding="UTF-8"?>
<svg width="181px" height="84px" viewBox="0 0 181 84" version="1.1" xmlns="http://www.w3.org/2000/svg" xmlns:xlink="http://www.w3.org/1999/xlink" xmlns:sketch="http://www.bohemiancoding.com/sketch/ns">
    <!-- Generator: Sketch 3.3.2 (12043) - http://www.bohemiancoding.com/sketch -->
    <title>Group</title>
    <desc>Created with Sketch.</desc>
    <defs></defs>
    <g id="Page-1" stroke="none" stroke-width="1" fill="none" fill-rule="evenodd" sketch:type="MSPage">
        <g id="Group" sketch:type="MSLayerGroup" fill="#000000">
            <path d="M160.137,83.441 C159.508,83.396 158.879,83.324 158.248,83.31 C156.381,83.275 154.504,83.275 152.635,83.236 C150.194,83.189 147.752,83.103 145.309,83.052 C143.436,83.015 141.563,83.019 139.69,82.982 C137.797,82.949 135.903,82.877 134.008,82.837 C132.184,82.796 130.356,82.784 128.528,82.751 C126.567,82.718 124.602,82.671 122.641,82.632 C120.813,82.597 118.989,82.569 117.161,82.532 C115.198,82.499 113.235,82.446 111.274,82.409 C109.442,82.372 107.62,82.346 105.794,82.313 C103.829,82.276 101.868,82.225 99.905,82.186 C98.079,82.151 96.251,82.129 94.426,82.092 C92.461,82.057 90.502,82.004 88.537,81.963 C87.279,81.938 86.027,81.926 84.769,81.899 C82.759,81.858 80.753,81.813 78.744,81.774 C76.965,81.739 75.185,81.717 73.402,81.68 C71.394,81.641 69.382,81.592 67.377,81.553 C66.098,81.532 64.818,81.522 63.541,81.5 C61.578,81.461 59.615,81.408 57.652,81.371 C55.828,81.338 53.998,81.312 52.172,81.275 C50.209,81.238 48.248,81.189 46.283,81.148 C44.48,81.113 42.679,81.087 40.875,81.054 C38.887,81.013 36.9,80.966 34.916,80.927 C33.137,80.888 31.355,80.866 29.576,80.829 C27.568,80.792 25.558,80.741 23.549,80.702 C21.699,80.669 19.852,80.655 18.004,80.62 C16.584,80.595 15.17,80.573 13.756,80.495 C13.449,80.479 13.1,80.307 12.85,80.108 C10.043,77.831 7.246,75.536 4.45,73.241 C4.319,73.13 4.206,72.968 4.139,72.809 C2.909,69.756 1.678,66.7 0.459,63.643 C0.307,63.272 0.176,62.889 0.035,62.51 C0.027,62.326 0.014,62.145 9.85322934e-15,61.961 C0.688,61.738 1.373,61.508 2.064,61.297 C4.787,60.469 7.578,60.625 10.363,60.69 C12.465,60.739 14.562,60.739 16.711,60.762 C16.736,60.317 16.803,59.932 16.77,59.555 C16.725,58.991 16.94,58.784 17.497,58.748 C21.749,58.441 25.991,58.018 30.245,57.805 C37.29,57.448 44.343,57.219 51.388,56.934 C52.579,56.887 53.765,56.803 54.956,56.76 C55.304,56.742 55.413,56.615 55.442,56.264 C55.94,49.932 56.45,43.598 56.963,37.264 C57.152,34.903 57.356,32.532 57.563,30.164 C57.608,29.66 58.092,29.204 57.739,28.656 C57.585,28.416 57.466,28.134 57.259,27.949 C56.882,27.614 56.486,27.282 56.046,27.05 C54.923,26.449 54.392,25.557 54.257,24.284 C54.138,23.128 53.792,22.002 53.564,20.857 C53.503,20.55 53.513,20.224 53.496,19.917 C54.064,19.74 54.064,19.74 54.418,20.357 C54.717,20.279 55.022,20.199 55.152,20.164 C55.414,19.799 55.554,19.511 55.781,19.336 C55.84,19.289 56.158,19.571 56.49,19.793 C56.599,19.766 56.879,19.686 57.181,19.605 C57.144,19.046 57.093,18.504 57.077,17.965 C57.005,15.699 56.923,13.432 56.893,11.166 C56.887,10.492 56.735,9.975 56.116,9.641 C55.878,9.51 55.653,9.333 55.456,9.148 C55.142,8.852 55.063,8.509 55.456,8.225 C56.288,7.621 57.186,7.102 57.966,6.44 C58.833,5.706 59.618,4.876 60.384,4.035 C60.53,3.872 60.417,3.473 60.425,3.182 C60.437,2.729 60.267,2.11 60.497,1.866 C60.991,1.33 61.69,0.981 62.313,0.563 C62.415,0.492 62.543,0.454 62.657,0.401 C63.069,0.37 63.481,0.345 63.889,0.321 C64.055,0.53 64.19,0.774 64.387,0.948 C64.977,1.463 65.352,2.074 65.446,2.876 C65.475,3.122 65.708,3.396 65.921,3.565 C66.839,4.284 67.8,4.95 68.72,5.674 C69.525,6.305 70.31,6.955 71.068,7.641 C71.613,8.141 71.623,8.551 70.986,8.908 C69.98,9.47 69.881,10.241 69.98,11.281 C70.21,13.598 70.31,15.93 70.459,18.239 C70.818,18.134 71.068,18.062 71.387,17.973 C71.422,18.69 71.533,19.27 72.408,19.16 C72.431,18.975 72.414,18.759 72.494,18.579 C72.564,18.405 72.73,18.266 72.853,18.115 C72.992,18.28 73.242,18.436 73.248,18.607 C73.281,19.588 73.252,20.577 73.248,21.561 C73.242,22.633 73.209,23.712 73.242,24.783 C73.256,25.222 73.138,25.516 72.791,25.77 C72.373,26.088 72.006,26.469 71.588,26.791 C71.061,27.197 70.59,27.615 70.842,28.323 C71.01,28.677 71.258,29.014 71.334,29.39 C71.973,32.578 72.576,35.77 73.191,38.963 C73.232,39.186 73.295,39.406 73.363,39.701 C74.658,39.551 75.927,39.424 77.193,39.26 C79.031,39.031 80.879,38.844 82.703,38.508 C84.34,38.209 85.928,38.565 87.531,38.641 C90.017,38.766 92.494,39.028 94.976,39.194 C95.456,39.231 95.652,39.366 95.706,39.862 C95.851,41.153 96.054,42.442 96.241,43.798 C97.054,43.814 97.845,43.866 98.636,43.837 C99.374,43.814 99.579,44.134 99.616,44.847 C99.788,48.372 100.014,51.894 100.225,55.417 C100.299,56.62 100.383,57.825 100.469,59.097 C107.569,58.39 114.621,57.691 121.879,56.962 C121.799,55.753 121.742,54.53 121.623,53.312 C121.59,52.931 121.654,52.787 122.043,52.718 C123.014,52.552 123.973,52.333 124.936,52.142 C126.514,51.831 127.981,52.415 129.112,53.273 C130.544,54.363 131.755,54.484 133.45,53.972 C141.141,51.669 148.884,49.529 156.608,47.327 C162.225,45.731 167.842,44.124 173.469,42.544 C174.008,42.396 174.6,42.398 175.17,42.378 C176.904,42.321 178.641,42.29 180.375,42.235 C180.893,42.223 181.012,42.483 180.732,43.081 C179.927,44.798 179.107,46.517 178.302,48.233 C175.859,53.409 173.413,58.579 170.97,63.754 C167.949,70.172 164.929,76.598 161.909,83.016 C161.86,83.12 161.825,83.227 161.782,83.329 C161.234,83.369 160.686,83.402 160.137,83.441 L160.137,83.441 Z M179.736,43.09 C178.572,43.096 177.507,43.072 176.443,43.111 C175.482,43.15 174.486,43.117 173.576,43.363 C169.234,44.541 164.924,45.808 160.596,47.041 C154.321,48.832 148.041,50.623 141.76,52.404 C135.637,54.15 129.51,55.879 123.387,57.623 C121.567,58.143 119.754,58.678 117.955,59.199 C118.092,61.267 118.221,63.285 118.357,65.322 C120.183,65.035 121.949,64.754 123.779,64.463 C123.162,63.904 122.722,62.781 122.828,62.139 C122.842,62.059 122.9,61.971 122.965,61.918 C123.508,61.465 124.147,61.4 124.778,61.604 C125.362,61.792 125.651,62.284 125.618,62.887 C125.598,63.325 125.472,63.752 125.391,64.209 C139.155,62.01 152.932,59.805 166.709,57.598 C165.145,57.065 164.844,56.754 164.947,55.676 C165.011,55.012 166.105,53.992 166.851,53.908 C167.664,53.808 168.304,54.178 168.556,54.869 C168.935,55.928 168.562,56.826 167.437,57.463 C168.244,57.358 168.986,57.238 169.734,57.178 C169.89,57.164 170.066,57.358 170.228,57.463 C170.091,57.596 169.972,57.822 169.812,57.854 C168.738,58.055 167.654,58.213 166.572,58.393 C164.365,58.752 162.158,59.123 159.949,59.477 C158.283,59.743 156.611,59.977 154.941,60.243 C152.757,60.597 150.574,60.981 148.39,61.333 C146.699,61.606 145.003,61.847 143.314,62.118 C141.013,62.481 138.718,62.856 136.416,63.227 C134.818,63.481 133.217,63.727 131.617,63.985 C129.318,64.352 127.017,64.721 124.719,65.094 C123.03,65.367 121.338,65.633 119.656,65.946 C119.01,66.065 118.406,66.387 117.76,66.493 C114.869,66.964 111.969,67.388 109.076,67.823 C108.471,67.915 108.342,67.76 108.346,67.118 C108.356,65.429 108.334,63.733 108.315,62.038 C108.309,61.454 108.053,61.173 107.411,61.251 C106.028,61.415 104.636,61.532 103.245,61.673 C100.765,61.919 98.284,62.173 95.804,62.423 C92.956,62.708 90.113,62.984 87.265,63.269 C84.738,63.521 82.216,63.775 79.689,64.031 C76.912,64.306 74.136,64.584 71.359,64.857 C68.761,65.123 66.168,65.447 63.57,65.621 C60.541,65.82 57.543,66.453 54.476,66.133 C52.23,65.895 49.97,65.828 47.716,65.684 C45.396,65.53 43.073,65.371 40.751,65.221 C38.499,65.073 36.245,64.93 33.991,64.78 C31.352,64.61 28.712,64.426 26.069,64.255 C23.796,64.107 21.516,63.97 19.241,63.823 C16.942,63.673 14.643,63.514 12.345,63.362 C10.047,63.21 7.747,63.055 5.449,62.905 C3.982,62.809 2.511,62.723 1.011,62.63 C1.048,62.784 1.052,62.876 1.085,62.962 C2.284,65.903 3.468,68.858 4.689,71.792 C4.869,72.212 5.177,72.616 5.525,72.921 C6.521,73.8 7.556,74.63 8.588,75.462 C8.742,75.587 8.947,75.681 9.135,75.7 C10.114,75.794 11.094,75.86 12.076,75.932 C15.221,76.159 18.363,76.379 21.508,76.61 C24.678,76.839 27.844,77.075 31.012,77.303 C34.203,77.535 37.393,77.768 40.588,77.994 C43.752,78.224 46.92,78.445 50.086,78.68 C53.232,78.905 56.375,79.153 59.522,79.356 C61.78,79.502 64.042,79.614 66.301,79.674 C68.428,79.731 70.555,79.703 72.684,79.721 C75.639,79.741 78.586,79.762 81.541,79.784 C83.873,79.798 86.207,79.817 88.541,79.841 C90.594,79.851 92.648,79.915 94.701,79.884 C97.424,79.843 100.148,79.741 102.873,79.665 C107.314,79.542 111.756,79.429 116.197,79.304 C119.125,79.226 122.058,79.146 124.99,79.066 C128.076,78.98 131.176,78.986 134.26,78.785 C143.883,78.16 153.502,77.445 163.125,76.797 C163.705,76.752 164.006,76.567 164.254,76.039 C168.957,66.014 173.682,55.992 178.402,45.975 C178.842,45.025 179.277,44.08 179.736,43.09 L179.736,43.09 Z M9.898,76.297 C9.875,76.352 9.843,76.41 9.814,76.465 C11.117,77.539 12.421,78.606 13.728,79.666 C13.808,79.734 13.935,79.775 14.041,79.779 C16.254,79.82 18.471,79.861 20.686,79.898 C22.557,79.931 24.428,79.947 26.303,79.986 C28.264,80.021 30.229,80.074 32.19,80.111 C33.491,80.136 34.794,80.15 36.094,80.174 C38.033,80.213 39.975,80.264 41.912,80.303 C43.764,80.338 45.613,80.36 47.461,80.397 C49.377,80.434 51.297,80.487 53.213,80.526 C55.063,80.559 56.914,80.579 58.76,80.61 C60.748,80.645 62.733,80.698 64.715,80.737 C65.996,80.758 67.274,80.776 68.553,80.803 C70.514,80.842 72.479,80.889 74.44,80.924 C76.268,80.963 78.096,80.985 79.922,81.024 C81.86,81.057 83.799,81.11 85.74,81.149 C87.064,81.178 88.386,81.184 89.713,81.212 C91.604,81.251 93.502,81.31 95.397,81.345 C97.266,81.378 99.141,81.392 101.014,81.429 C102.996,81.462 104.981,81.515 106.969,81.554 C108.77,81.589 110.573,81.611 112.379,81.648 C114.367,81.687 116.352,81.734 118.336,81.775 C119.615,81.796 120.895,81.81 122.172,81.836 C124.133,81.877 126.098,81.928 128.059,81.963 C129.887,82 131.715,82.022 133.539,82.061 C135.478,82.096 137.418,82.151 139.357,82.188 C141.187,82.223 143.015,82.237 144.837,82.276 C146.825,82.309 148.812,82.362 150.796,82.401 C152.097,82.428 153.396,82.448 154.698,82.473 C156.682,82.508 158.669,82.541 160.655,82.592 C161.036,82.602 161.214,82.447 161.37,82.11 C161.964,80.797 162.595,79.499 163.212,78.194 C163.341,77.917 163.462,77.633 163.607,77.301 C163.367,77.303 163.232,77.297 163.095,77.307 C156.966,77.715 150.835,78.067 144.714,78.551 C137.265,79.137 129.81,79.522 122.341,79.688 C118.128,79.782 113.915,79.881 109.704,79.995 C105.374,80.114 101.048,80.261 96.72,80.388 C95.374,80.427 94.021,80.486 92.667,80.474 C91.048,80.456 89.433,80.349 87.813,80.329 C84.905,80.3 82,80.321 79.092,80.3 C75.567,80.277 72.041,80.175 68.518,80.23 C64.553,80.291 60.614,79.957 56.672,79.677 C53.158,79.431 49.649,79.171 46.139,78.913 C42.629,78.661 39.116,78.401 35.606,78.147 C32.118,77.895 28.629,77.647 25.141,77.395 C21.631,77.141 18.121,76.883 14.612,76.629 C13.043,76.516 11.471,76.408 9.898,76.297 L9.898,76.297 Z M80.549,63.129 C80.449,61.645 80.363,60.209 80.258,58.777 C80.225,58.302 80.342,58.033 80.881,58.039 C81.86,58.055 82.848,58.002 83.826,58.053 C84.847,58.11 84.974,58.008 84.871,56.959 C84.543,53.705 84.23,50.441 83.902,47.188 C83.812,46.28 83.683,45.377 83.568,44.434 C79.941,44.834 76.357,45.243 72.771,45.618 C71.63,45.737 71.63,45.702 71.642,46.854 C71.663,48.663 71.679,50.469 71.689,52.284 C71.689,52.659 71.757,53.116 71.152,53.114 C70.336,53.114 69.509,53.085 68.689,53.091 C67.619,53.095 66.554,53.116 65.386,53.134 C65.534,56.958 65.681,60.722 65.831,64.591 C70.77,64.1 75.588,63.619 80.549,63.129 L80.549,63.129 Z M94.115,56.426 C94.23,58.149 94.349,59.914 94.457,61.604 C96.215,61.485 97.941,61.374 99.76,61.252 C99.393,55.662 99.033,50.164 98.672,44.639 C93.965,44.553 89.234,44.469 84.426,44.387 C84.881,48.854 85.322,53.194 85.77,57.575 C87.211,57.389 88.588,57.223 89.965,57.032 C91.346,56.844 92.725,56.633 94.115,56.426 L94.115,56.426 Z M53.871,65.246 C56.779,65.66 59.568,65.26 62.41,64.889 C62.394,62.66 62.381,60.502 62.363,58.248 C59.465,58.439 56.642,58.621 53.785,58.811 C53.373,60.926 53.725,63.078 53.871,65.246 L53.871,65.246 Z M48.299,61.311 C48.328,60.776 48.354,60.311 48.383,59.801 C38.072,59.756 27.862,59.711 17.66,59.662 C17.48,60.297 17.857,60.334 18.201,60.344 C19.318,60.377 20.431,60.408 21.547,60.416 C22.52,60.422 23.49,60.353 24.457,60.393 C25.844,60.442 27.223,60.577 28.605,60.647 C30.101,60.715 31.593,60.749 33.093,60.801 C35.257,60.873 37.423,60.947 39.583,61.028 C41.224,61.087 42.866,61.161 44.507,61.217 C45.756,61.26 47.004,61.283 48.299,61.311 L48.299,61.311 Z M55.361,57.211 C44.582,57.693 33.906,58.174 23.23,58.654 C23.234,58.734 23.238,58.814 23.24,58.894 C24.859,58.898 26.478,58.892 28.097,58.904 C31.632,58.933 35.167,58.984 38.706,59.011 C41.308,59.032 43.909,59.042 46.513,59.05 C47.312,59.056 48.126,59.136 48.906,59.009 C51.013,58.657 53.109,58.212 55.248,57.796 C55.264,57.709 55.299,57.535 55.361,57.211 L55.361,57.211 Z M73.463,44.732 C73.326,44.054 73.205,43.457 73.068,42.793 C69.978,42.998 66.955,43.197 63.861,43.398 C63.869,44.16 63.879,44.945 63.888,45.929 C66.152,45.781 68.339,45.638 70.519,45.491 C70.623,45.483 70.724,45.43 70.822,45.384 C71.088,45.259 71.338,45.083 71.613,45.023 C72.189,44.898 72.779,44.838 73.463,44.732 L73.463,44.732 Z M63.871,47.039 C63.861,50.596 63.848,53.965 63.838,57.383 C64.223,57.342 64.455,57.311 64.871,57.266 C64.779,55.842 64.701,54.477 64.594,53.11 C64.545,52.555 64.758,52.303 65.323,52.317 C66.3,52.342 67.28,52.364 68.264,52.358 C68.838,52.35 69.416,52.286 70.139,52.237 C68.029,50.484 66.029,48.832 63.871,47.039 L63.871,47.039 Z M63.779,32.749 C63.73,32.769 63.681,32.785 63.631,32.802 C63.703,35.96 63.774,39.116 63.846,42.268 C63.901,42.28 63.959,42.282 64.016,42.288 C65.223,40.513 66.426,38.739 67.653,36.931 C66.348,35.517 65.066,34.131 63.779,32.749 L63.779,32.749 Z M64.273,46.686 C66.468,48.502 68.607,50.272 70.863,52.145 C70.849,50.106 70.836,48.231 70.818,46.256 C68.598,46.402 66.49,46.541 64.273,46.686 L64.273,46.686 Z M62.855,57.408 C61.794,55.687 60.779,54.031 59.71,52.293 C58.54,53.984 57.435,55.555 56.351,57.145 C56.23,57.325 56.22,57.577 56.146,57.85 C58.426,57.701 60.582,57.557 62.855,57.408 L62.855,57.408 Z M70.514,29.465 C66.43,29.737 62.426,30 58.426,30.262 C58.381,30.464 58.342,30.569 58.332,30.677 C58.312,30.948 58.303,31.217 58.283,31.662 C62.484,30.746 66.66,31.141 70.89,31.318 C70.74,30.597 70.623,30.002 70.514,29.465 L70.514,29.465 Z M93.602,61.857 C93.502,60.314 93.407,58.865 93.309,57.369 C92.043,57.549 90.774,57.723 89.444,57.916 C89.608,59.379 89.76,60.748 89.917,62.098 C91.152,62.016 92.307,61.941 93.602,61.857 L93.602,61.857 Z M71.156,32.718 C70.302,33.974 69.582,35.082 68.806,36.151 C68.41,36.69 68.503,37.083 68.927,37.533 C70.077,38.742 71.208,39.974 72.341,41.211 C72.458,41.336 72.532,41.504 72.626,41.65 C72.694,41.593 72.763,41.541 72.831,41.486 C72.285,38.629 71.74,35.769 71.156,32.718 L71.156,32.718 Z M16.775,61.311 C16.097,61.291 15.505,61.268 14.916,61.264 C12.168,61.217 9.426,61.201 6.682,61.133 C5.149,61.098 3.709,61.459 2.264,61.916 C7.071,62.229 11.879,62.537 16.715,62.85 C16.736,62.283 16.756,61.826 16.775,61.311 L16.775,61.311 Z M68.455,26.592 C65.957,26.628 63.598,26.661 61.178,26.695 C61.407,27.414 61.633,28.061 61.805,28.719 C61.912,29.125 62.108,29.261 62.53,29.217 C64.073,29.057 65.622,28.935 67.165,28.774 C67.333,28.755 67.558,28.617 67.624,28.473 C67.908,27.909 68.143,27.315 68.455,26.592 L68.455,26.592 Z M57.078,46.279 C59.094,46.146 61.041,46.017 63.053,45.888 C63.043,45.005 63.035,44.222 63.028,43.47 C61.059,43.601 59.182,43.722 57.27,43.849 C57.201,44.729 57.139,45.516 57.078,46.279 L57.078,46.279 Z M111.783,58.654 C111.767,58.599 111.752,58.545 111.734,58.488 C107.994,58.871 104.255,59.25 100.494,59.629 C100.533,60.19 100.562,60.641 100.596,61.154 C100.819,61.14 101.022,61.134 101.219,61.113 C102.893,60.918 104.565,60.586 106.248,60.568 C108.357,60.543 109.955,59.33 111.783,58.654 L111.783,58.654 Z M57.783,9.196 C57.799,9.249 57.808,9.3 57.826,9.348 C58.322,9.42 58.818,9.561 59.312,9.55 C59.986,9.533 60.166,9.918 60.275,10.46 C60.41,11.141 60.576,11.82 60.728,12.501 C60.808,12.515 60.888,12.531 60.97,12.548 C61.036,12.373 61.169,12.192 61.15,12.026 C61.087,11.478 60.984,10.942 60.865,10.405 C60.744,9.869 60.857,9.584 61.476,9.579 C62.872,9.554 64.271,9.501 65.669,9.442 C66.067,9.426 66.204,9.606 66.179,9.971 C66.144,10.598 66.103,11.229 66.068,11.86 C66.132,11.885 66.199,11.913 6ÐyÐÇU  ÐyÐÇU                   1ÉÇU          Pñ¼ÇU  8zÐÇU          ðyÐÇU   @      ðyÐÇU          .525 66.833,9.232 67.343,9.134 C67.878,9.029 68.404,8.821 68.931,8.658 C68.493,8.451 68.072,8.365 67.646,8.345 C66.529,8.298 65.392,8.411 64.302,8.227 C62.857,7.989 61.474,8.276 60.081,8.458 C59.299,8.56 58.551,8.945 57.783,9.196 L57.783,9.196 Z M60.582,24.737 C60.709,25.171 60.758,25.495 60.893,25.774 C60.975,25.94 61.198,26.136 61.362,26.136 C63.671,26.136 65.981,26.108 68.29,26.07 C68.458,26.067 68.704,25.951 68.776,25.813 C69.044,25.315 69.241,24.784 69.518,24.153 C66.496,24.35 63.598,24.541 60.582,24.737 L60.582,24.737 Z M39.059,64.322 C40.854,64.435 42.6,64.545 44.381,64.656 C44.318,63.746 44.264,62.886 44.201,61.982 C42.435,61.918 40.691,61.859 38.894,61.793 C38.947,62.635 39,63.451 39.059,64.322 L39.059,64.322 Z M63.045,47.789 C62.994,47.771 62.94,47.756 62.887,47.738 C61.991,49.025 61.084,50.304 60.223,51.611 C60.127,51.752 60.217,52.084 60.328,52.269 C61.113,53.582 61.922,54.882 62.726,56.187 C62.787,56.279 62.876,56.347 63.011,56.49 C63.023,53.521 63.035,50.656 63.045,47.789 L63.045,47.789 Z M67.795,6.287 C67.809,6.237 67.828,6.184 67.846,6.136 C66.9,5.426 65.955,4.713 65,4.022 C64.871,3.924 64.664,3.873 64.498,3.889 C63.934,3.948 63.371,4.038 62.809,4.129 C62.313,4.209 61.719,4.168 61.358,4.434 C60.663,4.952 60.102,5.645 59.383,6.372 C62.299,6.342 65.049,6.315 67.795,6.287 L67.795,6.287 Z M61.818,12.856 C62.066,14.299 62.298,15.669 62.539,17.053 C63.414,16.995 64.25,16.943 65.129,16.885 C65.238,15.442 65.352,14.017 65.459,12.614 C64.195,12.701 63.023,12.778 61.818,12.856 L61.818,12.856 Z M62.912,46.773 C60.978,46.9 59.146,47.023 57.172,47.15 C58.063,48.599 58.873,49.92 59.74,51.326 C60.828,49.764 61.852,48.291 62.912,46.773 L62.912,46.773 Z M52.725,61.207 C51.489,61.562 50.319,61.898 49.118,62.242 C49.097,63.152 49.073,64.031 49.046,64.969 C50.407,65.055 51.694,65.137 52.989,65.223 C52.902,63.885 52.814,62.594 52.725,61.207 L52.725,61.207 Z M81.354,62.959 C82.377,62.889 83.391,62.822 84.368,62.76 C84.282,61.418 84.196,60.131 84.11,58.832 C83.067,58.818 82.102,58.811 81.083,58.799 C81.176,60.236 81.264,61.596 81.354,62.959 L81.354,62.959 Z M56.273,56.063 C56.318,56.081 56.363,56.094 56.404,56.114 C57.357,54.747 58.312,53.389 59.25,52.014 C59.318,51.912 59.328,51.688 59.26,51.584 C58.541,50.381 57.799,49.191 57.067,47.996 C57.02,48.01 56.973,48.017 56.93,48.035 C56.713,50.709 56.49,53.389 56.273,56.063 L56.273,56.063 Z M68.422,42.248 C68.317,40.658 68.215,39.08 68.111,37.494 C68.045,37.492 67.98,37.489 67.916,37.484 C66.818,39.104 65.721,40.719 64.512,42.506 C65.98,42.412 67.225,42.326 68.422,42.248 L68.422,42.248 Z M62.813,32.97 C62.766,32.964 62.723,32.955 62.68,32.953 C62.035,34.109 61.387,35.266 60.758,36.43 C60.686,36.554 60.651,36.764 60.709,36.875 C61.402,38.197 62.117,39.505 62.828,40.818 C62.877,40.802 62.93,40.785 62.98,40.769 C62.926,38.172 62.869,35.57 62.813,32.97 L62.813,32.97 Z M83.967,41.234 C85.367,41.277 86.719,41.316 88.082,41.355 C88.039,40.671 88.021,40.084 87.941,39.5 C87.925,39.369 87.701,39.174 87.558,39.164 C86.273,39.049 84.988,38.969 83.634,38.875 C83.744,39.658 83.852,40.398 83.967,41.234 L83.967,41.234 Z M109.73,66.924 C109.771,67.014 109.816,67.104 109.853,67.19 C112.306,66.815 114.755,66.44 117.201,66.065 L117.201,65.877 C116.262,65.416 115.326,64.941 114.367,64.51 C114.17,64.422 113.842,64.424 113.66,64.531 C112.338,65.307 111.037,66.123 109.73,66.924 L109.73,66.924 Z M67.887,17.51 C64.617,17.936 61.264,17.607 58.03,18.68 C58.055,18.904 58.077,19.098 58.106,19.329 C58.333,19.282 58.555,19.305 58.672,19.202 C58.883,19.027 59.029,18.599 59.209,18.596 C59.459,18.596 59.705,19.006 59.965,19.023 C60.565,19.059 61.176,18.97 61.666,18.934 C61.795,18.6 61.9,18.334 62,18.063 C62.156,18.356 62.318,18.644 62.52,19.008 C63.284,18.956 64.143,18.901 64.891,18.851 C65.079,18.58 65.219,18.383 65.354,18.182 C65.471,18.409 65.588,18.633 65.735,18.917 C66.325,18.879 67.001,18.832 67.633,18.793 C67.719,18.37 67.793,17.983 67.887,17.51 L67.887,17.51 Z M108.902,66.695 C110.115,65.615 111.218,64.625 112.433,63.541 C111.162,62.928 110.042,62.387 108.851,61.809 C108.869,63.467 108.887,65.004 108.902,66.695 L108.902,66.695 Z M67.549,31.96 C66.233,31.91 65.043,31.871 63.647,31.822 C65.131,33.42 66.456,34.853 67.836,36.341 C67.738,34.801 67.646,33.41 67.549,31.96 L67.549,31.96 Z M45.035,62.008 C45.096,62.889 45.137,63.639 45.201,64.389 C45.215,64.51 45.347,64.717 45.441,64.729 C46.355,64.797 47.277,64.84 48.234,64.891 C48.248,63.899 48.263,63.022 48.277,62.11 C47.174,62.074 46.176,62.043 45.035,62.008 L45.035,62.008 Z M58.262,33.504 C58.209,33.509 58.157,33.512 58.106,33.518 C57.911,35.935 57.717,38.346 57.524,40.764 C57.585,40.78 57.645,40.803 57.706,40.819 C58.44,39.493 59.181,38.167 59.897,36.831 C59.952,36.727 59.883,36.518 59.815,36.389 C59.305,35.42 58.781,34.463 58.262,33.504 L58.262,33.504 Z M79.646,41.496 C80.921,41.41 82.14,41.33 83.427,41.244 C83.323,40.451 83.234,39.762 83.13,39.014 C81.87,39.176 80.685,39.334 79.513,39.487 C79.563,40.23 79.607,40.879 79.646,41.496 L79.646,41.496 Z M88.529,39.234 C88.58,39.955 88.623,40.646 88.672,41.386 C89.91,41.423 91.102,41.46 92.336,41.501 C92.289,40.802 92.25,40.196 92.205,39.521 C90.982,39.428 89.768,39.33 88.529,39.234 L88.529,39.234 Z M60.074,38.01 C60.01,37.992 59.945,37.981 59.881,37.967 C59.039,39.655 57.93,41.211 57.215,43.063 C58.244,42.997 59.08,42.94 59.961,42.883 C60,41.229 60.039,39.619 60.074,38.01 L60.074,38.01 Z M84.24,43.598 C85.666,43.618 86.994,43.643 88.314,43.664 C88.273,43.01 88.238,42.467 88.197,41.893 C86.812,41.846 85.478,41.807 84.119,41.766 C84.164,42.398 84.199,42.959 84.24,43.598 L84.24,43.598 Z M83.74,43.617 C83.654,42.978 83.582,42.375 83.498,41.734 C82.197,41.882 80.978,42.019 79.752,42.158 C79.797,42.806 79.834,43.408 79.877,44.07 C81.172,43.92 82.412,43.775 83.74,43.617 L83.74,43.617 Z M86.947,62.455 C86.855,60.988 86.763,59.629 86.676,58.269 C85.754,58.255 84.977,58.621 84.99,59.119 C85.025,60.275 85.129,61.43 85.205,62.568 C85.855,62.523 86.371,62.494 86.947,62.455 L86.947,62.455 Z M69.125,42.318 C70.25,42.246 71.313,42.173 72.451,42.101 C71.221,40.775 70.025,39.488 68.832,38.208 C68.779,38.235 68.732,38.269 68.682,38.302 C68.822,39.594 68.969,40.885 69.125,42.318 L69.125,42.318 Z M55.828,25.768 C56.621,26.363 57.24,26.852 57.9,27.303 C58.058,27.413 58.361,27.461 58.533,27.386 C59.213,27.087 59.861,26.725 60.529,26.387 C60.383,25.914 60.289,25.516 60.123,25.146 C60.068,25.01 59.822,24.836 59.695,24.867 C58.459,25.132 57.23,25.436 55.828,25.768 L55.828,25.768 Z M117.391,59.855 C115.998,61.099 114.725,62.236 113.45,63.367 C113.485,63.445 113.52,63.519 113.557,63.592 C115.024,63.901 116.213,62.912 117.577,62.668 C117.512,61.732 117.459,60.875 117.391,59.855 L117.391,59.855 Z M34.813,61.656 C33.852,61.629 32.926,61.603 31.94,61.572 C31.952,62.343 31.965,63.082 31.983,63.845 C33.024,63.917 33.981,63.984 34.971,64.05 C34.916,63.266 34.867,62.494 34.813,61.656 L34.813,61.656 Z M63.135,42.514 C62.297,40.959 61.506,39.493 60.719,38.028 C60.582,38.858 60.578,39.653 60.555,40.444 C60.537,41.225 60.5,42.014 60.475,42.885 C61.371,42.758 62.18,42.646 63.135,42.514 L63.135,42.514 Z M130.313,54.771 C128.288,52.957 125.622,52.033 123.532,53.074 C123.739,53.109 123.887,53.156 124.034,53.164 C125.43,53.215 126.696,53.609 127.665,54.65 C128.539,55.594 129.395,55.131 130.313,54.771 L130.313,54.771 Z M57.813,13.107 C58.584,12.947 59.358,12.784 60.112,12.626 C60.102,10.437 59.747,10.026 57.798,9.894 C57.755,9.892 57.716,9.921 57.609,9.96 C57.676,10.983 57.74,12.026 57.813,13.107 L57.813,13.107 Z M87.254,58.213 C87.344,59.623 87.434,60.994 87.525,62.389 C88.068,62.35 88.582,62.317 89.115,62.287 C88.939,60.82 88.773,59.402 88.603,57.963 C88.145,58.053 87.744,58.123 87.254,58.213 L87.254,58.213 Z M92.383,42.027 C91.16,41.992 89.992,41.959 88.826,41.925 C88.869,42.579 88.902,43.132 88.939,43.689 C90.158,43.707 91.304,43.722 92.498,43.736 C92.461,43.184 92.426,42.645 92.383,42.027 L92.383,42.027 Z M28.287,61.457 C28.33,62.164 28.359,62.736 28.416,63.301 C28.43,63.426 28.566,63.625 28.652,63.637 C29.463,63.703 30.273,63.737 31.138,63.785 C31.136,63.019 31.132,62.32 31.132,61.533 C30.154,61.51 29.234,61.484 28.287,61.457 L28.287,61.457 Z M57.988,17.814 C59.049,17.568 60.101,17.325 61.283,17.053 C61.105,16.669 61,15.991 60.719,15.906 C59.823,15.63 58.854,15.577 57.828,15.423 C57.879,16.233 57.934,16.976 57.988,17.814 L57.988,17.814 Z M24.73,63.375 C25.726,63.438 26.638,63.5 27.525,63.559 C27.478,62.803 27.435,62.129 27.386,61.43 C26.474,61.387 25.626,61.35 24.73,61.311 L24.73,63.375 L24.73,63.375 Z M35.869,64.117 C36.662,64.158 37.396,64.197 38.182,64.238 C38.133,63.508 38.108,62.83 38.03,62.156 C38.014,62.002 37.829,61.763 37.706,61.756 C37.06,61.703 36.411,61.713 35.716,61.699 C35.77,62.535 35.818,63.299 35.869,64.117 L35.869,64.117 Z M116.801,59.676 C116.77,59.629 116.744,59.586 116.715,59.543 C115.504,59.863 114.293,60.18 113.084,60.514 C112.959,60.543 112.777,60.7 112.773,60.805 C112.744,61.557 112.757,62.317 112.757,63.266 C114.221,61.965 115.508,60.818 116.801,59.676 L116.801,59.676 Z M123.811,56.746 C124.204,56.539 124.702,56.445 124.831,56.174 C125.157,55.477 125.317,54.711 125.567,53.908 C124.573,53.773 123.618,53.64 122.567,53.5 C122.992,54.613 123.375,55.609 123.811,56.746 L123.811,56.746 Z M64.572,3.131 C64.537,2.475 63.851,1.366 63.347,1.236 C62.486,1.007 62.007,1.725 61.497,2.185 C61.226,2.425 61.267,3 61.12,3.586 C62.432,3.411 63.504,3.272 64.572,3.131 L64.572,3.131 Z M23.893,63.32 C23.897,62.595 23.897,61.965 23.897,61.273 C22.965,61.263 22.075,61.246 21.131,61.232 C21.133,61.941 21.133,62.537 21.131,63.138 C22.107,63.205 22.965,63.26 23.893,63.32 L23.893,63.32 Z M68.447,35.755 C69.312,34.475 70.086,33.343 70.92,32.109 C69.889,32.068 68.994,32.029 68.008,31.982 C68.154,33.252 68.289,34.414 68.447,35.755 L68.447,35.755 Z M68.994,9.224 C68.486,9.36 68.017,9.453 67.574,9.621 C67.4,9.685 67.197,9.901 67.17,10.072 C67.074,10.676 67.053,11.287 66.998,11.956 C67.744,12.086 68.463,12.205 69.199,12.335 C69.127,11.243 69.063,10.25 68.994,9.224 L68.994,9.224 Z M76.57,41.941 C77.455,41.828 78.261,41.722 79.062,41.617 C79.015,40.922 78.974,40.271 78.929,39.543 C78.066,39.66 77.265,39.772 76.433,39.889 C76.48,40.57 76.52,41.217 76.57,41.941 L76.57,41.941 Z M49.152,61.398 C50.162,61.105 51.078,60.839 51.99,60.568 C52.877,60.297 52.99,60.08 52.773,59.047 C51.597,59.283 50.423,59.516 49.205,59.758 C49.189,60.297 49.176,60.813 49.152,61.398 L49.152,61.398 Z M76.754,44.441 C77.645,44.318 78.447,44.209 79.26,44.099 C79.217,43.427 79.18,42.826 79.137,42.148 C78.268,42.252 77.442,42.351 76.625,42.453 C76.67,43.129 76.707,43.711 76.754,44.441 L76.754,44.441 Z M168.129,55.541 C168.096,54.846 167.68,54.373 167.115,54.406 C166.517,54.443 165.463,55.435 165.478,55.949 C165.494,56.578 166.15,57.01 166.992,56.951 C167.75,56.896 168.174,56.373 168.129,55.541 L168.129,55.541 Z M20.299,63.082 C20.303,62.447 20.307,61.844 20.309,61.191 C19.385,61.154 18.512,61.117 17.6,61.08 C17.59,61.533 17.594,61.918 17.565,62.301 C17.528,62.822 17.784,62.973 18.26,62.975 C18.92,62.986 19.574,63.045 20.299,63.082 L20.299,63.082 Z M61.795,12.274 C62.9,12.2 63.943,12.159 64.981,12.045 C65.192,12.017 65.376,11.73 65.565,11.558 C65.397,11.365 65.254,11.041 65.057,11.005 C64.28,10.866 63.485,10.723 62.702,10.756 C61.832,10.792 61.482,11.475 61.795,12.274 L61.795,12.274 Z M60.695,26.911 C60.238,27.143 59.871,27.32 59.506,27.503 C58.352,28.087 58.348,28.087 58.777,29.339 C58.787,29.372 58.834,29.395 58.853,29.417 C59.697,29.361 60.529,29.306 61.433,29.245 C61.186,28.467 60.957,27.735 60.695,26.911 L60.695,26.911 Z M69.406,14.864 C68.765,15.03 68.176,15.171 67.588,15.325 C66.524,15.613 66.51,15.643 66.627,16.692 C67.598,16.799 68.557,16.919 69.549,17.034 C69.504,16.346 69.455,15.635 69.406,14.864 L69.406,14.864 Z M92.939,41.527 C93.761,41.548 94.546,41.574 95.423,41.593 C95.343,41.03 95.292,40.532 95.191,40.046 C95.173,39.931 95.021,39.761 94.912,39.747 C94.224,39.671 93.529,39.626 92.81,39.571 C92.857,40.287 92.896,40.893 92.939,41.527 L92.939,41.527 Z M65.475,23.592 C66.356,23.536 67.204,23.475 67.991,23.426 C67.95,22.815 67.913,22.258 67.876,21.697 C67.062,21.699 66.317,21.708 65.499,21.708 C65.488,22.37 65.484,22.972 65.475,23.592 L65.475,23.592 Z M73.797,42.074 C74.567,42.025 75.279,41.974 75.975,41.929 C75.93,41.234 75.891,40.599 75.846,39.945 C75.035,40.045 74.274,40.138 73.45,40.246 C73.572,40.885 73.686,41.482 73.797,42.074 L73.797,42.074 Z M62.666,21.293 C63.461,21.243 64.205,21.193 64.986,21.141 C65,20.582 65.013,20.032 65.025,19.424 C64.091,19.485 63.261,19.539 62.396,19.595 C62.486,20.157 62.568,20.674 62.666,21.293 L62.666,21.293 Z M92.971,42.061 C93.01,42.661 93.043,43.178 93.082,43.743 C93.941,43.768 94.773,43.782 95.699,43.804 C95.621,43.218 95.547,42.673 95.47,42.122 C94.598,42.102 93.826,42.08 92.971,42.061 L92.971,42.061 Z M62.672,21.879 C62.764,22.499 62.858,23.135 62.951,23.766 C63.644,23.719 64.271,23.677 64.945,23.633 C64.953,23 64.959,22.4 64.965,21.731 C64.191,21.78 63.479,21.827 62.672,21.879 L62.672,21.879 Z M76.064,42.541 C75.337,42.588 74.666,42.631 73.925,42.678 C74.048,43.364 74.165,43.996 74.298,44.725 C74.958,44.62 75.569,44.522 76.185,44.426 C76.145,43.768 76.105,43.164 76.064,42.541 L76.064,42.541 Z M60.406,23.92 C61.133,23.873 61.761,23.832 62.422,23.791 C62.322,23.104 62.231,22.479 62.137,21.826 C61.446,21.871 60.803,21.915 60.131,21.959 C60.227,22.64 60.314,23.271 60.406,23.92 L60.406,23.92 Z M72.432,24.911 C71.942,24.787 71.569,24.692 71.196,24.604 C70.803,24.512 70.417,24.421 70.048,24.333 C69.06,26.499 69.017,26.067 70.259,26.767 C70.943,26.18 71.635,25.588 72.432,24.911 L72.432,24.911 Z M67.836,21.172 C67.789,20.502 67.754,19.949 67.719,19.371 C66.975,19.42 66.283,19.465 65.573,19.512 C65.553,20.09 65.536,20.621 65.516,21.188 C66.346,21.182 67.068,21.177 67.836,21.172 L67.836,21.172 Z M62.107,21.221 C62.039,20.735 62,20.283 61.902,19.85 C61.875,19.719 61.679,19.535 61.564,19.535 C60.988,19.538 60.412,19.593 59.8,19.632 C59.896,20.251 59.976,20.788 60.062,21.358 C60.738,21.315 61.363,21.274 62.107,21.221 L62.107,21.221 Z M58.271,32.415 C58.867,33.516 59.435,34.563 60.003,35.617 C60.048,35.603 60.097,35.595 60.14,35.584 C60.171,34.444 60.201,33.308 60.23,32.089 C59.555,32.202 58.998,32.295 58.271,32.415 L58.271,32.415 Z M117.602,63.186 C116.684,63.5 115.823,63.791 114.829,64.125 C115.862,64.631 116.77,65.076 117.761,65.561 C117.701,64.734 117.656,64.016 117.602,63.186 L117.602,63.186 Z M60.762,32.126 C60.731,33.196 60.701,34.206 60.672,35.21 C60.719,35.224 60.762,35.234 60.803,35.246 C61.416,34.131 62.03,33.017 62.69,31.816 C61.961,31.933 61.383,32.03 60.762,32.126 L60.762,32.126 Z M109.656,61.43 C109.646,61.485 109.635,61.534 109.623,61.584 C110.459,61.996 111.295,62.402 112.215,62.854 C112.223,62.077 112.225,61.471 112.233,60.756 C111.314,60.994 110.484,61.213 109.656,61.43 L109.656,61.43 Z M70.057,23.398 C70.02,22.836 69.983,22.256 69.936,21.614 C69.448,21.647 68.989,21.678 68.491,21.712 C68.528,22.273 68.563,22.823 68.6,23.407 C69.092,23.407 69.559,23.401 70.057,23.398 L70.057,23.398 Z M56.48,8.856 C56.455,8.809 56.427,8.762 56.404,8.712 C56.611,8.615 56.808,8.48 57.029,8.427 C58.545,8.043 60.062,7.68 61.58,7.31 C61.601,7.307 61.627,7.321 61.65,7.319 C62.548,7.263 63.451,7.2 64.351,7.141 C64.347,7.055 64.341,6.975 64.333,6.893 C62.854,6.989 61.353,7.286 59.903,7.125 C58.45,6.967 57.596,7.755 56.612,8.466 C56.523,8.53 56.523,8.723 56.48,8.856 L56.48,8.856 Z M123.469,62.783 C123.489,63.592 123.821,63.984 124.418,63.951 C125.088,63.91 125.104,63.367 125.125,62.906 C125.15,62.367 124.725,62.031 124.141,62.021 C123.518,62.012 123.445,62.402 123.469,62.783 L123.469,62.783 Z M116.584,58.787 C116.551,58.721 116.514,58.652 116.48,58.58 C115.851,58.678 115.22,58.766 114.589,58.871 C113.968,58.973 113.341,59.086 112.7,59.199 C112.723,59.512 112.739,59.771 112.761,60.056 C113.886,59.757 114.968,59.482 116.042,59.171 C116.248,59.113 116.406,58.92 116.584,58.787 L116.584,58.787 Z M69.881,21.078 C69.84,20.477 69.809,19.947 69.77,19.36 C69.272,19.354 68.829,19.352 68.34,19.346 C68.381,19.95 68.416,20.502 68.455,21.102 C68.945,21.094 69.41,21.083 69.881,21.078 L69.881,21.078 Z M59.289,21.869 C58.834,22.118 58.264,22.257 58.223,22.485 C58.127,23.081 58.262,23.716 58.295,24.336 C58.645,24.273 58.922,24.262 59.17,24.165 C59.315,24.106 59.512,23.899 59.504,23.769 C59.473,23.188 59.381,22.613 59.289,21.869 L59.289,21.869 Z M125.361,56.248 C126.248,55.982 127.017,55.754 127.912,55.486 C127.228,54.974 126.68,54.564 126.076,54.111 C125.822,54.869 125.611,55.504 125.361,56.248 L125.361,56.248 Z M69.818,28.579 C70.068,27.21 70.068,27.21 68.978,26.731 C68.701,27.364 68.425,27.989 68.124,28.689 C68.748,28.645 69.262,28.612 69.818,28.579 L69.818,28.579 Z M60.49,13.874 C59.558,14.197 58.724,14.49 57.886,14.78 C57.892,14.817 57.902,14.86 57.909,14.893 C58.841,15.038 59.772,15.181 60.804,15.336 C60.689,14.786 60.598,14.368 60.49,13.874 L60.49,13.874 Z M62.982,62.254 C62.789,63.215 62.845,63.287 63.74,63.301 C64.14,63.305 64.537,63.305 64.949,63.309 C64.922,62.961 64.904,62.651 64.883,62.315 C64.223,62.291 63.598,62.27 62.982,62.254 L62.982,62.254 Z M62.955,63.785 C62.935,64.199 62.92,64.51 62.902,64.824 C63.66,64.775 64.351,64.734 65.048,64.683 C65.028,64.396 65.015,64.15 64.993,63.853 C64.328,63.83 63.68,63.807 62.955,63.785 L62.955,63.785 Z M56.166,24.894 C56.053,24.184 55.951,23.564 55.844,22.903 C55.506,23.001 55.217,23.089 54.883,23.185 C55.02,23.83 55.141,24.416 55.274,25.027 C55.58,24.983 55.822,24.947 56.166,24.894 L56.166,24.894 Z M58.922,19.714 C57.988,19.938 57.84,20.366 58.238,21.678 C59.393,21.487 59.393,21.487 58.922,19.714 L58.922,19.714 Z M55.77,22.383 C55.682,21.749 55.612,21.215 55.534,20.618 C55.141,20.731 54.807,20.826 54.436,20.935 C54.555,21.531 54.657,22.037 54.776,22.615 C55.113,22.538 55.416,22.466 55.77,22.383 L55.77,22.383 Z M71.572,21.75 C71.406,23.755 71.427,23.827 72.367,23.993 C72.371,23.46 72.334,22.936 72.392,22.425 C72.469,21.772 72.199,21.606 71.572,21.75 L71.572,21.75 Z M66.717,14.997 C67.563,14.78 68.283,14.601 69.008,14.415 C68.494,14.098 67.981,13.912 67.471,13.732 C67.28,13.666 67.084,13.616 66.852,13.547 C66.809,14.017 66.771,14.443 66.717,14.997 L66.717,14.997 Z M66.42,12.393 C65.957,12.631 65.543,16.052 65.857,16.863 C66.24,15.436 66.24,13.961 66.42,12.393 L66.42,12.393 Z M66.904,12.482 C67.029,13.055 67.99,13.519 69.478,13.768 C69.271,13.386 69.185,12.938 68.978,12.87 C68.342,12.665 67.656,12.61 66.904,12.482 L66.904,12.482 Z M112.172,60.221 C112.156,59.924 112.141,59.703 112.121,59.403 C111.017,59.924 109.963,60.417 108.91,60.913 C108.93,60.966 108.951,61.02 108.973,61.075 C110.023,60.793 111.072,60.514 112.172,60.221 L112.172,60.221 Z M122.367,54.473 C122.318,54.477 122.271,54.487 122.224,54.496 C122.281,55.344 122.337,56.195 122.396,57.09 C122.664,56.998 122.953,56.91 123.271,56.805 C122.945,55.973 122.656,55.223 122.367,54.473 L122.367,54.473 Z M64.799,60.926 C64.166,60.932 63.565,60.938 62.936,60.946 C62.956,61.217 62.969,61.448 62.989,61.725 C63.628,61.739 64.225,61.752 64.854,61.766 C64.832,61.443 64.816,61.211 64.799,60.926 L64.799,60.926 Z M61.805,17.255 C61.907,17.045 61.961,16.99 61.955,16.938 C61.764,15.723 61.572,14.5 61.357,13.284 C61.337,13.174 61.169,13.091 61.068,12.997 C61.017,13.143 60.904,13.298 60.925,13.434 C61.029,14.018 61.169,14.596 61.308,15.173 C61.457,15.817 61.613,16.461 61.805,17.255 L61.805,17.255 Z M62.91,60.428 C63.58,60.387 64.16,60.35 64.764,60.307 C64.744,60.051 64.729,59.795 64.711,59.555 C64.102,59.592 63.541,59.629 62.955,59.668 C62.939,59.908 62.93,60.109 62.91,60.428 L62.91,60.428 Z M62.936,59.064 C63.565,59.025 64.12,58.99 64.711,58.951 C64.693,58.668 64.678,58.439 64.664,58.189 C64.049,58.228 63.478,58.267 62.887,58.308 C62.902,58.58 62.92,58.805 62.936,59.064 L62.936,59.064 Z M56.338,20.417 C56.428,21.048 56.504,21.576 56.588,22.168 C56.881,22.071 57.088,22.002 57.309,21.933 C57.27,21.341 57.235,20.783 57.192,20.152 C56.891,20.25 56.641,20.323 56.338,20.417 L56.338,20.417 Z M69.656,18.843 C69.713,17.947 69.693,17.933 68.228,17.725 C68.249,18.079 68.273,18.431 68.3,18.824 C68.76,18.827 69.186,18.837 69.656,18.843 L69.656,18.843 Z M65.432,7.097 C66.955,7.319 68.373,7.52 69.959,7.75 C69.584,7.453 69.32,7.063 69.043,7.05 C67.871,7.006 66.695,7.07 65.432,7.097 L65.432,7.097 Z M72.4,21.239 C72.416,20.727 72.439,20.276 72.455,19.795 C72.131,19.718 71.851,19.651 71.494,19.566 C71.531,20.125 71.562,20.614 71.598,21.129 C71.848,21.164 72.092,21.197 72.4,21.239 L72.4,21.239 Z M65.635,9.932 C64.166,10.026 62.783,10.115 61.348,10.211 C61.407,10.374 61.461,10.543 61.573,10.872 C62.147,10.111 62.823,10.158 63.524,10.255 C64.213,10.355 64.911,10.41 65.628,10.484 C65.631,10.358 65.631,10.206 65.635,9.932 L65.635,9.932 Z M57.361,22.469 C57.076,22.579 56.881,22.662 56.662,22.745 C56.766,23.4 56.863,23.998 56.959,24.596 C57.055,24.607 57.152,24.612 57.252,24.623 C57.631,23.987 57.328,23.251 57.361,22.469 L57.361,22.469 Z M57.699,14.061 C57.763,14.108 57.828,14.164 57.89,14.213 C58.714,13.931 59.535,13.649 60.353,13.361 C60.335,13.283 60.308,13.209 60.287,13.134 C59.543,13.285 58.797,13.421 58.068,13.613 C57.912,13.649 57.822,13.907 57.699,14.061 L57.699,14.061 Z" id="Shape" sketch:type="MSShapeGroup"></path>
            <path d="M48.299,61.311 C47.004,61.284 45.756,61.26 44.508,61.217 C42.867,61.16 41.225,61.086 39.584,61.028 C37.424,60.948 35.258,60.874 33.094,60.801 C31.594,60.748 30.102,60.715 28.606,60.647 C27.223,60.577 25.844,60.442 24.458,60.393 C23.491,60.354 22.52,60.422 21.548,60.416 C20.433,60.408 19.319,60.377 18.202,60.344 C17.858,60.334 17.481,60.297 17.661,59.662 C27.862,59.711 38.073,59.756 48.384,59.801 C48.354,60.311 48.328,60.775 48.299,61.311 L48.299,61.311 Z" id="Shape" sketch:type="MSShapeGroup"></path>
            <path d="M73.463,44.732 C72.779,44.837 72.19,44.898 71.613,45.023 C71.338,45.084 71.088,45.259 70.822,45.384 C70.724,45.431 70.623,45.484 70.519,45.491 C68.339,45.637 66.152,45.78 63.888,45.929 C63.878,44.945 63.868,44.159 63.861,43.398 C66.955,43.197 69.978,42.998 73.068,42.793 C73.205,43.457 73.326,44.055 73.463,44.732 L73.463,44.732 Z" id="Shape" sketch:type="MSShapeGroup"></path>
            <path d="M70.514,29.465 C70.623,30.002 70.741,30.597 70.891,31.319 C66.661,31.142 62.485,30.747 58.284,31.663 C58.304,31.218 58.313,30.948 58.333,30.678 C58.343,30.57 58.382,30.465 58.427,30.263 C62.426,30 66.43,29.737 70.514,29.465 L70.514,29.465 Z" id="Shape" sketch:type="MSShapeGroup"></path>
            <path d="M68.455,26.592 C68.142,27.315 67.908,27.908 67.623,28.473 C67.557,28.617 67.332,28.755 67.164,28.774 C65.621,28.935 64.072,29.057 62.529,29.217 C62.107,29.261 61.912,29.125 61.804,28.719 C61.632,28.061 61.406,27.413 61.177,26.695 C63.598,26.662 65.957,26.628 68.455,26.592 L68.455,26.592 Z" id="Shape" sketch:type="MSShapeGroup"></path>
            <path d="M57.078,46.279 C57.139,45.515 57.201,44.728 57.269,43.849 C59.181,43.722 61.058,43.601 63.027,43.47 C63.035,44.222 63.043,45.005 63.052,45.888 C61.041,46.018 59.094,46.146 57.078,46.279 L57.078,46.279 Z" id="Shape" sketch:type="MSShapeGroup"></path>
            <path d="M111.783,58.654 C109.955,59.33 108.357,60.543 106.248,60.568 C104.564,60.586 102.893,60.918 101.219,61.113 C101.022,61.134 100.819,61.14 100.596,61.154 C100.563,60.64 100.533,60.189 100.494,59.629 C104.256,59.25 107.994,58.871 111.734,58.488 C111.752,58.545 111.768,58.6 111.783,58.654 L111.783,58.654 Z" id="Shape" sketch:type="MSShapeGroup"></path>
            <path d="M57.783,9.196 C58.551,8.945 59.299,8.56 60.082,8.461 C61.475,8.278 62.857,7.991 64.303,8.23 C65.393,8.415 66.53,8.301 67.647,8.348 C68.073,8.368 68.495,8.453 68.932,8.661 C68.405,8.824 67.879,9.031 67.344,9.137 C66.834,9.235 66.668,9.528 66.641,9.984 C66.614,10.465 66.586,10.946 66.516,11.419 C66.495,11.603 66.352,11.769 66.266,11.94 C66.2,11.916 66.133,11.888 66.069,11.863 C66.104,11.232 66.145,10.601 66.18,9.974 C66.205,9.609 66.069,9.429 65.67,9.445 C64.272,9.504 62.873,9.556 61.477,9.582 C60.858,9.587 60.745,9.872 60.866,10.408 C60.985,10.945 61.089,11.481 61.151,12.029 C61.171,12.195 61.038,12.377 60.971,12.551 C60.889,12.534 60.809,12.518 60.729,12.504 C60.577,11.823 60.411,11.144 60.276,10.463 C60.167,9.921 59.987,9.536 59.313,9.553 C58.819,9.564 58.323,9.423 57.827,9.351 C57.809,9.299 57.799,9.249 57.783,9.196 L57.783,9.196 Z" id="Shape" sketch:type="MSShapeGroup"></path>
            <path d="M60.582,24.737 C63.598,24.541 66.496,24.35 69.518,24.153 C69.241,24.784 69.043,25.315 68.776,25.813 C68.704,25.951 68.458,26.067 68.29,26.07 C65.981,26.108 63.671,26.136 61.362,26.136 C61.198,26.136 60.975,25.94 60.893,25.774 C60.758,25.495 60.709,25.17 60.582,24.737 L60.582,24.737 Z" id="Shape" sketch:type="MSShapeGroup"></path>
            <path d="M61.818,12.856 C63.023,12.778 64.195,12.701 65.459,12.615 C65.352,14.017 65.238,15.442 65.129,16.886 C64.25,16.944 63.414,16.996 62.539,17.054 C62.299,15.668 62.066,14.299 61.818,12.856 L61.818,12.856 Z" id="Shape" sketch:type="MSShapeGroup"></path>
            <path d="M108.902,66.695 C108.886,65.004 108.869,63.466 108.851,61.808 C110.042,62.386 111.162,62.927 112.433,63.54 C111.219,64.625 110.115,65.615 108.902,66.695 L108.902,66.695 Z" id="Shape" sketch:type="MSShapeGroup"></path>
            <path d="M55.828,25.768 C57.23,25.436 58.459,25.132 59.695,24.867 C59.822,24.837 60.068,25.011 60.123,25.146 C60.289,25.516 60.383,25.915 60.529,26.387 C59.861,26.725 59.213,27.087 58.533,27.386 C58.361,27.461 58.058,27.413 57.9,27.303 C57.24,26.852 56.621,26.363 55.828,25.768 L55.828,25.768 Z" id="Shape" sketch:type="MSShapeGroup"></path>
            <path d="M117.391,59.855 C117.459,60.875 117.512,61.732 117.577,62.668 C116.214,62.912 115.024,63.9 113.557,63.592 C113.52,63.52 113.485,63.446 113.45,63.367 C114.725,62.236 115.998,61.1 117.391,59.855 L117.391,59.855 Z" id="Shape" sketch:type="MSShapeGroup"></path>
            <path d="M116.801,59.676 C115.508,60.819 114.221,61.965 112.758,63.266 C112.758,62.317 112.744,61.557 112.774,60.805 C112.778,60.7 112.96,60.543 113.085,60.514 C114.294,60.18 115.505,59.864 116.716,59.543 C116.744,59.586 116.77,59.629 116.801,59.676 L116.801,59.676 Z" id="Shape" sketch:type="MSShapeGroup"></path>
            <path d="M49.152,61.398 C49.175,60.812 49.189,60.296 49.205,59.757 C50.424,59.515 51.598,59.282 52.773,59.046 C52.99,60.079 52.877,60.296 51.99,60.567 C51.078,60.84 50.162,61.105 49.152,61.398 L49.152,61.398 Z" id="Shape" sketch:type="MSShapeGroup"></path>
            <path d="M61.795,12.274 C61.482,11.475 61.832,10.792 62.701,10.756 C63.484,10.723 64.279,10.866 65.056,11.005 C65.253,11.041 65.396,11.364 65.564,11.558 C65.375,11.73 65.191,12.017 64.98,12.045 C63.943,12.159 62.9,12.2 61.795,12.274 L61.795,12.274 Z" id="Shape" sketch:type="MSShapeGroup"></path>
            <path d="M60.695,26.911 C60.957,27.735 61.185,28.468 61.433,29.245 C60.529,29.306 59.697,29.361 58.853,29.417 C58.833,29.395 58.787,29.372 58.777,29.339 C58.347,28.087 58.351,28.087 59.506,27.503 C59.871,27.32 60.238,27.143 60.695,26.911 L60.695,26.911 Z" id="Shape" sketch:type="MSShapeGroup"></path>
            <path d="M76.064,42.541 C76.105,43.164 76.144,43.768 76.185,44.426 C75.57,44.522 74.958,44.619 74.298,44.725 C74.165,43.996 74.048,43.364 73.925,42.678 C74.666,42.631 75.338,42.588 76.064,42.541 L76.064,42.541 Z" id="Shape" sketch:type="MSShapeGroup"></path>
            <path d="M72.432,24.911 C71.635,25.589 70.944,26.181 70.258,26.766 C69.016,26.067 69.059,26.498 70.047,24.332 C70.416,24.421 70.803,24.512 71.195,24.603 C71.568,24.692 71.941,24.787 72.432,24.911 L72.432,24.911 Z" id="Shape" sketch:type="MSShapeGroup"></path>
            <path d="M117.602,63.186 C117.657,64.016 117.702,64.735 117.76,65.561 C116.77,65.077 115.862,64.631 114.828,64.125 C115.822,63.791 116.684,63.5 117.602,63.186 L117.602,63.186 Z" id="Shape" sketch:type="MSShapeGroup"></path>
            <path d="M116.584,58.787 C116.406,58.92 116.248,59.113 116.043,59.172 C114.969,59.483 113.887,59.758 112.762,60.057 C112.741,59.772 112.725,59.512 112.701,59.2 C113.342,59.087 113.969,58.973 114.59,58.872 C115.221,58.767 115.852,58.679 116.481,58.581 C116.514,58.652 116.551,58.721 116.584,58.787 L116.584,58.787 Z" id="Shape" sketch:type="MSShapeGroup"></path>
            <path d="M69.818,28.579 C69.261,28.612 68.748,28.645 68.125,28.689 C68.426,27.989 68.701,27.364 68.979,26.731 C70.068,27.209 70.068,27.209 69.818,28.579 L69.818,28.579 Z" id="Shape" sketch:type="MSShapeGroup"></path>
            <path d="M66.42,12.393 C66.24,13.961 66.24,15.436 65.857,16.863 C65.543,16.052 65.957,12.631 66.42,12.393 L66.42,12.393 Z" id="Shape" sketch:type="MSShapeGroup"></path>
            <path d="M66.904,12.482 C67.656,12.61 68.342,12.665 68.978,12.87 C69.185,12.938 69.271,13.387 69.478,13.768 C67.99,13.519 67.029,13.055 66.904,12.482 L66.904,12.482 Z" id="Shape" sketch:type="MSShapeGroup"></path>
            <path d="M112.172,60.221 C111.072,60.514 110.024,60.793 108.973,61.075 C108.952,61.02 108.93,60.966 108.91,60.913 C109.963,60.417 111.017,59.925 112.121,59.403 C112.141,59.703 112.156,59.924 112.172,60.221 L112.172,60.221 Z" id="Shape" sketch:type="MSShapeGroup"></path>
            <path d="M122.367,54.473 C122.656,55.223 122.945,55.973 123.271,56.805 C122.953,56.91 122.664,56.998 122.396,57.09 C122.337,56.195 122.281,55.344 122.224,54.496 C122.271,54.486 122.318,54.477 122.367,54.473 L122.367,54.473 Z" id="Shape" sketch:type="MSShapeGroup"></path>
            <path d="M61.805,17.255 C61.614,16.461 61.457,15.817 61.309,15.172 C61.17,14.595 61.03,14.017 60.926,13.433 C60.905,13.297 61.018,13.143 61.069,12.996 C61.171,13.09 61.339,13.173 61.358,13.283 C61.573,14.5 61.764,15.722 61.956,16.937 C61.961,16.991 61.906,17.045 61.805,17.255 L61.805,17.255 Z" id="Shape" sketch:type="MSShapeGroup"></path>
            <path d="M65.635,9.932 C65.631,10.205 65.631,10.358 65.627,10.485 C64.91,10.411 64.213,10.355 63.523,10.256 C62.822,10.159 62.146,10.112 61.572,10.873 C61.461,10.544 61.406,10.375 61.347,10.212 C62.783,10.115 64.166,10.026 65.635,9.932 L65.635,9.932 Z" id="Shape" sketch:type="MSShapeGroup"></path>
            <path d="M57.699,14.061 C57.822,13.907 57.912,13.649 58.068,13.614 C58.797,13.423 59.543,13.287 60.287,13.135 C60.308,13.209 60.336,13.283 60.353,13.362 C59.535,13.649 58.714,13.931 57.89,14.214 C57.828,14.164 57.764,14.108 57.699,14.061 L57.699,14.061 Z" id="Shape" sketch:type="MSShapeGroup"></path>
            <path d="M4.186,66.719 C4.922,66.869 5.612,66.998 6.295,67.143 C9.092,67.721 11.883,68.325 14.69,68.86 C15.442,69.003 16.231,68.977 17.006,68.971 C19.635,68.955 22.26,68.897 24.887,68.893 C28.176,68.879 31.469,68.913 34.756,68.905 C36.809,68.897 38.861,68.85 40.942,68.823 C40.995,68.208 41.055,67.667 41.083,67.118 C41.103,66.702 41.323,66.554 41.706,66.585 C41.845,66.597 41.979,66.62 42.118,66.63 C42.753,66.669 43.559,66.485 43.97,66.816 C44.382,67.142 44.392,67.968 44.583,68.578 C44.603,68.641 44.634,68.699 44.698,68.832 C50.303,68.814 55.936,68.801 61.606,68.785 C61.624,68.246 61.686,67.721 61.651,67.199 C61.608,66.613 61.854,66.433 62.401,66.42 C63.225,66.4 64.049,66.359 64.868,66.26 C65.509,66.18 65.809,66.348 65.79,67.039 C65.772,67.607 65.853,68.17 65.892,68.746 C66.759,68.76 67.55,68.791 68.345,68.787 C71.751,68.758 75.156,68.711 78.558,68.682 C81.529,68.662 84.499,68.655 87.466,68.655 C89.956,68.655 92.446,68.735 94.937,68.663 C96.113,68.634 97.285,68.337 98.453,68.155 C99.81,67.948 101.16,67.729 102.516,67.518 C103.957,67.295 105.403,67.071 106.848,66.85 C107.049,66.821 107.266,66.75 107.457,66.793 C107.648,66.844 107.814,67.004 107.99,67.119 C107.834,67.277 107.693,67.537 107.517,67.564 C105.736,67.855 103.947,68.095 102.165,68.365 C100.249,68.654 98.339,69.041 96.409,69.238 C94.618,69.418 92.805,69.41 91.001,69.451 C90.065,69.476 89.128,69.418 88.192,69.424 C85.54,69.445 82.893,69.502 80.241,69.512 C76.975,69.52 73.71,69.483 70.442,69.491 C68.569,69.491 66.696,69.557 64.823,69.559 C62.26,69.571 59.706,69.539 57.143,69.539 C55.477,69.539 53.809,69.57 52.141,69.572 C49.354,69.584 46.569,69.578 43.78,69.59 C42.089,69.596 40.397,69.619 38.702,69.625 C35.962,69.631 33.223,69.625 30.481,69.631 C28.766,69.637 27.055,69.664 25.342,69.676 C22.666,69.69 19.994,69.629 17.324,69.729 C13.322,69.875 9.59,68.473 5.724,67.858 C5.363,67.801 5.009,67.717 4.652,67.631 C4.129,67.5 4.133,67.494 4.186,66.719 L4.186,66.719 Z M65.223,66.811 C64.166,66.881 63.196,66.944 62.186,67.01 C62.174,67.6 62.159,68.155 62.147,68.77 C63.278,68.758 64.305,68.752 65.352,68.745 C65.303,68.031 65.266,67.449 65.223,66.811 L65.223,66.811 Z M41.578,67.115 C41.557,67.746 41.535,68.297 41.515,68.845 C42.447,68.843 43.269,68.837 44.136,68.831 C43.96,68.253 43.952,67.581 43.62,67.306 C43.298,67.036 42.638,67.177 42.124,67.14 C41.971,67.129 41.814,67.127 41.578,67.115 L41.578,67.115 Z" id="Shape" sketch:type="MSShapeGroup"></path>
            <path d="M154.773,70.418 C156.687,70.471 157.753,71.518 157.709,73.318 C157.678,74.775 156.629,75.66 154.988,75.631 C153.316,75.594 152.107,74.373 152.16,72.766 C152.215,71.125 153.055,70.371 154.773,70.418 L154.773,70.418 Z M155.365,75.08 C156.4,75.215 157.328,74.09 157.222,72.937 C157.105,71.667 155.915,70.783 154.396,70.898 C153.169,70.996 152.617,71.697 152.703,73.07 C152.775,74.348 153.879,75.178 155.365,75.08 L155.365,75.08 Z" id="Shape" sketch:type="MSShapeGroup"></path>
            <path d="M102.748,65.369 C102.789,66.383 102.381,66.851 101.434,66.889 C100.567,66.922 99.926,66.424 99.887,65.688 C99.838,64.737 100.373,64.065 101.221,64.018 C102.131,63.971 102.713,64.479 102.748,65.369 L102.748,65.369 Z M102.244,65.48 C102.238,64.761 101.836,64.57 101.303,64.56 C100.735,64.55 100.371,64.98 100.414,65.599 C100.449,66.226 100.896,66.359 101.41,66.357 C102.033,66.357 102.271,66.066 102.244,65.48 L102.244,65.48 Z" id="Shape" sketch:type="MSShapeGroup"></path>
            <path d="M93.596,73.748 C92.739,73.797 92.287,73.391 92.235,72.508 C92.206,72.067 92.641,71.641 93.165,71.61 C93.823,71.569 94.497,72.09 94.53,72.673 C94.566,73.324 94.24,73.703 93.596,73.748 L93.596,73.748 Z M93.539,73.492 C93.766,73.113 94.029,72.806 93.975,72.734 C93.799,72.492 93.51,72.334 93.26,72.14 C93.117,72.341 92.832,72.579 92.865,72.74 C92.92,72.971 93.209,73.145 93.539,73.492 L93.539,73.492 Z" id="Shape" sketch:type="MSShapeGroup"></path>
            <path d="M83.686,73.307 C83.721,73.95 83.446,74.311 82.891,74.354 C82.182,74.407 81.686,73.997 81.637,73.319 C81.592,72.659 81.932,72.241 82.547,72.214 C83.166,72.184 83.65,72.646 83.686,73.307 L83.686,73.307 Z M82.846,74.094 C83.006,73.703 83.196,73.463 83.141,73.326 C83.043,73.097 82.797,72.928 82.608,72.732 C82.462,72.933 82.182,73.156 82.206,73.337 C82.23,73.551 82.521,73.73 82.846,74.094 L82.846,74.094 Z" id="Shape" sketch:type="MSShapeGroup"></path>
            <path d="M13.977,72.055 C14.067,71.967 14.27,71.608 14.504,71.584 C15.176,71.525 15.578,71.902 15.543,72.449 C15.514,72.875 15.412,73.277 14.854,73.283 C14.313,73.291 13.98,72.928 13.977,72.055 L13.977,72.055 Z" id="Shape" sketch:type="MSShapeGroup"></path>
            <path d="M32.484,72.799 C32.945,72.748 33.259,72.906 33.246,73.416 C33.236,73.895 33.113,74.354 32.525,74.383 C32.045,74.41 31.773,74.135 31.75,73.637 C31.727,73.117 31.934,72.813 32.484,72.799 L32.484,72.799 Z" id="Shape" sketch:type="MSShapeGroup"></path>
            <path d="M8.92,71.816 C8.887,71.195 9.01,70.787 9.525,70.763 C10,70.738 10.267,71.029 10.273,71.536 C10.279,72.02 10.181,72.431 9.609,72.458 C9.082,72.482 8.908,72.127 8.92,71.816 L8.92,71.816 Z" id="Shape" sketch:type="MSShapeGroup"></path>
            <path d="M12.086,71.379 C12.637,71.289 12.981,71.484 12.986,72.043 C12.99,72.467 12.902,72.891 12.336,72.914 C11.818,72.937 11.514,72.725 11.51,72.162 C11.508,71.734 11.445,71.285 12.086,71.379 L12.086,71.379 Z" id="Shape" sketch:type="MSShapeGroup"></path>
            <path d="M36.25,72.965 C36.711,72.959 36.982,73.178 36.969,73.617 C36.955,74.068 36.805,74.533 36.268,74.556 C35.78,74.579 35.549,74.22 35.514,73.749 C35.473,73.213 35.818,73.039 36.25,72.965 L36.25,72.965 Z" id="Shape" sketch:type="MSShapeGroup"></path>
            <path d="M80.459,47.604 C80.494,48.557 80.131,49.116 79.469,49.127 C78.799,49.139 78.371,48.652 78.338,47.846 C78.293,46.821 78.649,46.323 79.449,46.309 C80.049,46.293 80.426,46.773 80.459,47.604 L80.459,47.604 Z M80.152,47.652 C79.855,47.302 79.636,46.867 79.47,46.884 C78.984,46.933 78.724,47.349 78.87,47.823 C78.96,48.122 79.243,48.354 79.444,48.618 C79.66,48.328 79.871,48.035 80.152,47.652 L80.152,47.652 Z" id="Shape" sketch:type="MSShapeGroup"></path>
            <path d="M75.51,48.107 C75.49,48.353 75.485,48.537 75.467,48.718 C75.426,49.148 75.297,49.622 74.799,49.591 C74.397,49.564 73.772,49.357 73.672,49.081 C73.492,48.573 73.543,47.931 73.67,47.39 C73.725,47.144 74.229,46.827 74.486,46.861 C74.799,46.9 75.107,47.244 75.343,47.517 C75.479,47.67 75.467,47.949 75.51,48.107 L75.51,48.107 Z M74.479,47.32 C73.922,47.658 73.868,48.158 74.022,48.652 C74.081,48.841 74.407,48.959 74.616,49.101 C74.735,48.935 74.917,48.785 74.96,48.599 C75.068,48.109 75,47.648 74.479,47.32 L74.479,47.32 Z" id="Shape" sketch:type="MSShapeGroup"></path>
            <path d="M69.479,60.416 C69.528,61.158 69.288,61.545 68.756,61.59 C68.065,61.651 67.606,61.231 67.563,60.5 C67.526,59.848 67.846,59.463 68.436,59.449 C69.092,59.424 69.436,59.744 69.479,60.416 L69.479,60.416 Z M69.176,60.486 C68.885,60.256 68.701,60.109 68.524,59.968 C68.383,60.163 68.128,60.374 68.141,60.562 C68.157,60.74 68.436,60.947 68.643,61.033 C68.719,61.061 68.922,60.756 69.176,60.486 L69.176,60.486 Z" id="Shape" sketch:type="MSShapeGroup"></path>
            <path d="M92.834,46.613 C92.838,46.681 92.844,46.746 92.844,46.818 C92.852,47.631 92.369,48.263 91.77,48.224 C91.223,48.191 90.864,47.511 90.985,46.708 C91.01,46.526 91.063,46.353 91.098,46.173 C91.18,45.743 91.211,45.275 91.848,45.345 C92.411,45.408 92.68,45.769 92.805,46.275 C92.832,46.38 92.823,46.5 92.828,46.613 L92.834,46.613 L92.834,46.613 Z M91.91,45.916 C91.465,46.309 91.422,46.814 91.527,47.338 C91.548,47.463 91.705,47.606 91.832,47.656 C91.904,47.677 92.068,47.549 92.146,47.451 C92.482,47.023 92.383,46.355 91.91,45.916 L91.91,45.916 Z" id="Shape" sketch:type="MSShapeGroup"></path>
            <path d="M85.309,47.305 C85.432,46.928 85.489,46.5 85.705,46.184 C85.865,45.955 86.273,45.709 86.506,45.758 C86.801,45.821 87.111,46.141 87.26,46.426 C87.397,46.682 87.362,47.047 87.34,47.365 C87.297,48.051 86.906,48.449 86.346,48.449 C85.77,48.447 85.455,48.074 85.309,47.305 L85.309,47.305 Z M87.008,46.975 C86.754,46.668 86.588,46.467 86.424,46.266 C86.25,46.606 86.004,46.934 85.944,47.299 C85.911,47.471 86.233,47.703 86.391,47.91 C86.582,47.623 86.771,47.326 87.008,46.975 L87.008,46.975 Z" id="Shape" sketch:type="MSShapeGroup"></path>
            <path d="M88.068,46.998 C88.072,46.928 88.097,46.719 88.105,46.519 C88.121,46.048 88.209,45.634 88.779,45.583 C89.269,45.54 89.832,45.976 89.929,46.479 C89.968,46.698 89.982,46.932 89.964,47.157 C89.925,47.827 89.528,48.255 88.978,48.257 C88.4,48.262 88.111,47.902 88.068,46.998 L88.068,46.998 Z M88.672,46.021 C88.647,46.546 88.608,46.966 88.623,47.384 C88.627,47.499 88.799,47.702 88.896,47.698 C89.042,47.698 89.244,47.596 89.328,47.469 C89.676,46.953 89.469,46.408 88.672,46.021 L88.672,46.021 Z" id="Shape" sketch:type="MSShapeGroup"></path>
            <path d="M95.68,46.467 C95.551,46.879 95.52,47.285 95.311,47.539 C95.112,47.769 94.682,47.984 94.416,47.932 C94.15,47.871 93.791,47.487 93.766,47.219 C93.725,46.692 93.838,46.135 93.985,45.612 C94.085,45.243 94.774,45.165 95.102,45.503 C95.354,45.762 95.488,46.135 95.68,46.467 L95.68,46.467 Z M94.514,45.854 C94.422,46.25 94.301,46.645 94.25,47.045 C94.234,47.174 94.396,47.412 94.514,47.44 C94.623,47.467 94.862,47.321 94.92,47.194 C95.131,46.742 95.15,46.283 94.514,45.854 L94.514,45.854 Z" id="Shape" sketch:type="MSShapeGroup"></path>
            <path d="M95.51,58.465 C95.506,58.002 95.406,57.461 96.078,57.348 C96.549,57.272 97.019,57.817 97.033,58.389 C97.047,59.026 96.715,59.512 96.258,59.491 C95.621,59.457 95.496,59.01 95.51,58.465 L95.51,58.465 Z" id="Shape" sketch:type="MSShapeGroup"></path>
            <path d="M57.258,61.098 C57.244,60.668 57.252,60.207 57.834,60.227 C58.322,60.243 58.787,60.377 58.777,61.051 C58.773,61.69 58.529,62.065 58.039,62.071 C57.523,62.074 57.279,61.771 57.258,61.098 L57.258,61.098 Z" id="Shape" sketch:type="MSShapeGroup"></path>
            <path d="M153.547,73.057 C153.488,71.977 153.832,71.537 154.777,71.491 C155.797,71.438 156.601,72.034 156.654,72.874 C156.717,73.905 156.088,74.722 155.199,74.774 C154.293,74.822 153.602,74.104 153.547,73.057 L153.547,73.057 Z M154.074,72.994 C154.131,73.789 154.58,74.287 155.148,74.256 C155.718,74.235 156.166,73.652 156.127,72.985 C156.1,72.399 155.467,71.921 154.803,71.997 C154.15,72.07 153.969,72.475 154.074,72.994 L154.074,72.994 Z" id="Shape" sketch:type="MSShapeGroup"></path>
        </g>
    </g>
</svg>