<svg width="132" height="49" viewBox="0 0 132 49" fill="none" xmlns="http://www.w3.org/2000/svg">
<g id="Warstwa_1" clip-path="url(#clip0_1020_101)">
<path id="Vector" d="M15.5898 12.8086H28.0898L32.2798 24.7186C32.6798 25.8386 33.0398 26.7686 33.1398 27.6586H33.2098C33.3098 26.7686 33.6698 25.8086 34.0698 24.6586L38.0898 12.8186H50.9198V36.2386H43.1998V23.3786C43.1998 21.8986 43.3598 20.1486 43.6598 18.4286H43.4998C43.2998 19.2586 42.5398 21.4986 41.9198 23.0786L36.8398 36.2386H28.9898L24.2098 23.1486C23.5498 21.3386 23.0198 19.5586 22.7298 18.4286H22.5998C22.8998 19.9786 22.9298 21.7886 22.9298 23.3786V36.2386H15.6098V12.8086H15.5898Z" fill="white"/>
<path id="Vector_2" d="M53.3301 12.8086H62.7001L68.8301 27.2186C69.2301 28.1386 69.4201 28.8986 69.5901 29.7286H69.7201C69.8801 28.9086 70.0801 28.1486 70.4801 27.2186L76.6201 12.8086H85.9901L74.7801 36.2286H64.5501L53.3401 12.8086H53.3301Z" fill="white"/>
<path id="Vector_3" d="M98.6497 12.8086L96.5397 24.4486C95.6497 29.2986 98.9197 30.5186 101.62 30.5186C105.55 30.5186 107.29 27.8786 107.85 24.8786L109.96 12.8086H118.4L116.22 25.1786C115 32.1686 111.04 37.0186 101.38 37.0186C93.3297 37.0186 86.3697 33.6886 88.1497 23.9886L90.1897 12.8086H98.6297H98.6497Z" fill="white"/>
<path id="Vector_4" d="M131.37 48.41H0V0H131.37V48.41ZM6.43 41.98H124.95V6.43H6.43V41.99V41.98Z" fill="white"/>
</g>
<defs>
<clipPath id="clip0_1020_101">
<rect width="131.37" height="48.41" fill="white"/>
</clipPath>
</defs>
</svg>
