<svg width="1124" height="171" viewBox="0 0 1124 171" fill="none" xmlns="http://www.w3.org/2000/svg">
<g clip-path="url(#clip0_1020_122)">
<path d="M6.24136 153.619C5.98829 151.503 6.08952 149.415 5.97383 147.328C5.97383 145.778 5.80029 143.269 5.58337 141.734C5.41707 140.33 5.28692 138.039 5.28692 136.628C5.28692 136.351 5.28692 135.893 5.30138 135.617C5.30138 133.689 5.12062 130.576 4.91093 128.663C4.49156 126.088 4.8097 123.579 4.62171 120.946C4.13003 114.166 4.62171 107.227 4.23126 100.412C3.99265 96.1564 4.34695 91.9303 3.91311 87.7115C3.60943 84.7074 3.91311 81.6888 3.57328 78.7429C3.37082 76.3716 3.37082 74.1167 3.37082 71.8619C3.35636 70.2907 3.19005 67.7449 3.00206 66.181C2.40915 62.4859 3.00206 58.769 2.71284 55.0885C2.59715 53.6482 2.32239 52.208 2.11993 50.7824V50.3605C2.00424 47.8874 1.93193 45.3925 1.75117 42.8975C1.61379 41.2028 1.29564 39.3697 1.1438 37.5877C1.04257 36.2857 1.1438 34.94 1.1438 33.638C1.07873 33.1143 0.897962 32.2923 0.73889 31.7904C0.652123 31.5722 0.550895 31.2085 0.500281 30.9758C0.261672 29.0846 0.0375241 26.0078 -0.00585938 24.1093C0.182136 22.5745 0.673815 20.1232 1.09319 18.6321C1.96809 15.4535 4.60725 11.031 6.99334 8.76155C7.34764 8.32512 8.09961 7.96143 8.6636 7.96143H8.67806C8.67806 7.96143 8.70698 7.96143 8.72144 7.96143C8.96728 7.96143 9.33604 7.85233 9.5385 7.7214C10.4134 7.14677 11.2232 6.4703 12.0981 5.91022C13.2044 5.12465 15.106 4.04085 16.3425 3.48804C17.5211 3.1389 19.4588 2.73156 20.6736 2.57154C21.3533 2.45516 22.4234 2.15693 23.0669 1.90962C23.6815 1.67686 24.7082 1.48047 25.3662 1.48047C25.7784 1.48047 26.4436 1.56048 26.8485 1.65504C28.2006 1.89508 29.6106 1.82234 30.9916 1.94599C32.6763 2.11329 34.3611 2.31696 36.0458 2.54245C37.7305 2.76066 39.4152 3.03706 41.1 3.3062C41.4109 3.37893 41.9098 3.53168 42.2135 3.64806C42.3798 3.72808 42.6473 3.82991 42.8208 3.8881C45.2575 4.44091 49.1042 5.69928 51.4035 6.68852C52.9147 7.36498 55.2791 8.63062 56.6818 9.51803C58.3666 10.5364 60.0513 11.6565 61.736 12.7912C62.4808 13.3004 63.6087 14.2242 64.2667 14.8425C66.5733 16.9955 68.9377 19.1122 71.0056 21.4253C71.96 22.5963 73.37 24.5894 74.1581 25.8841C74.7294 26.7133 75.4018 27.4625 75.9802 28.2917C76.5515 29.1209 77.0793 30.0884 77.665 30.9903C77.9397 31.4849 78.4459 32.2414 78.7929 32.6851C79.1834 33.0488 79.5088 33.7835 79.5088 34.3217C79.5088 34.3654 79.5088 34.4381 79.5088 34.4818C79.5015 34.5763 79.4943 34.7291 79.4943 34.8236C79.4943 35.6674 80.0221 36.7803 80.6729 37.3113C80.9838 37.5586 81.4249 38.0095 81.6707 38.3296C81.8949 38.6496 82.1262 39.2315 82.1768 39.6171C82.3793 42.7884 82.495 45.9598 82.6975 49.1094C82.7625 49.5749 83.0518 50.2514 83.341 50.6223C83.8327 51.3424 84.2376 52.6372 84.2376 53.51C84.2376 53.5391 84.2376 53.5828 84.2376 53.6046C84.2376 55.7576 84.4906 57.9107 84.5268 60.0637C84.5196 61.1039 84.3677 62.7841 84.187 63.8098C83.8833 65.6718 83.5145 67.5412 83.1385 69.3888C82.8493 70.9163 82.5312 72.4219 82.1624 73.9349C81.9672 74.7132 81.5767 75.9497 81.2875 76.6989C80.5789 78.561 79.9571 80.4668 79.0822 82.227C78.4386 83.5072 77.2094 85.4712 76.3345 86.5986C75.2572 88.0024 73.7532 89.1226 72.7988 90.6137C71.3021 93.0141 68.4532 96.5637 66.4431 98.5495C64.7295 100.15 61.7071 102.426 59.7042 103.634C57.1084 105.329 54.3753 106.616 51.7 108.093C50.0659 108.871 47.5062 110.297 45.9878 111.279C44.7225 112.297 42.8859 114.166 41.8953 115.447C41.0204 116.516 40.4275 117.818 39.6394 118.974C38.8368 120.371 37.933 122.786 37.6148 124.364C37.2461 125.746 36.9135 128.023 36.8701 129.449C36.8701 131.26 36.2121 133.064 36.0241 134.875C35.8144 136.242 35.6409 138.483 35.6409 139.865C35.6409 140.359 35.6626 141.159 35.6915 141.654C35.7349 142.331 35.771 143.429 35.771 144.105C35.771 144.782 35.7349 145.88 35.6915 146.557C35.6698 148.71 35.3661 152.179 35.019 154.303C34.8817 155.103 35.019 155.998 35.019 156.747C35.019 157.169 34.8455 157.802 34.6503 158.173C34.1731 158.733 33.7682 159.788 33.7392 160.53V164.567C33.7465 164.661 33.7537 164.821 33.7537 164.916C33.7537 165.636 33.3777 166.661 32.9077 167.207C32.0907 168.465 30.2613 169.826 28.8297 170.24C28.1645 170.407 27.0654 170.597 26.3857 170.662C21.3316 170.815 16.14 170.953 11.0135 170.982C9.07574 170.968 7.21748 169.404 6.87042 167.491C6.75473 165.963 6.56673 164.436 6.41489 162.915H6.66796C6.55227 159.795 6.66796 156.674 6.26305 153.605L6.24136 153.619ZM39.8201 99.4951C40.1383 99.466 40.6444 99.3714 40.9481 99.2768L42.5171 98.8331C42.763 98.7968 43.1534 98.695 43.392 98.6149C44.6574 97.9676 46.024 97.6984 47.2821 96.9201C48.1787 96.4255 49.3211 96.1564 50.2683 95.5817C52.2423 94.3961 54.2451 93.276 56.154 91.9667C57.1012 91.2611 58.5329 89.9955 59.3427 89.1372C61.0274 87.5296 62.5965 85.9003 64.1293 84.1691C65.091 83.129 65.9298 81.1432 66.0165 79.7248C66.0599 79.1793 66.3274 78.3501 66.6094 77.8773C67.5205 76.2989 69.3932 75.4551 69.6969 73.4039C69.8993 72.131 70.3549 70.8799 70.673 69.6215C70.8899 68.7705 71.0779 67.9267 71.2948 67.0611C71.3961 66.8575 71.5407 66.5156 71.613 66.2974C72.0251 64.719 72.365 62.115 72.3722 60.4783C72.336 60.0419 72.2999 59.3291 72.2999 58.8854C72.2999 58.4417 72.3288 57.7288 72.3722 57.2924C72.3722 57.1251 72.3794 56.8487 72.3794 56.6741C72.3794 54.3683 71.7287 50.746 70.9188 48.5929L70.3621 46.8981C70.2464 46.5272 70.0006 45.9598 69.8053 45.6252C69.1835 44.6433 68.4604 43.7122 67.8314 42.723C67.3903 42.0538 66.7396 40.9191 66.3853 40.199C66.1177 39.6825 65.8285 38.7951 65.7418 38.2132C65.7201 37.464 65.2718 36.4311 64.7439 35.9074C64.5126 35.7037 64.1727 35.3546 63.9703 35.1291C63.0954 34.0235 62.0686 33.0124 62.2855 31.3467V31.3322C62.2855 30.9249 62.0614 30.3648 61.7794 30.0738C60.6153 28.7864 59.4005 27.5498 58.1713 26.3278C57.7158 25.8041 56.906 25.0476 56.3492 24.633C54.1728 23.2073 52.0181 21.7162 49.7405 20.4578C48.0268 19.5341 45.1563 18.2175 43.3342 17.5265C41.9315 17.0028 39.596 16.37 38.1282 16.1008C36.5664 15.6717 33.9851 15.3225 32.3654 15.3225C32.3003 15.3225 32.1991 15.3225 32.134 15.3225H28.526C28.4031 15.3225 28.2151 15.3153 28.0922 15.3153C25.5831 15.3153 21.9534 16.5954 19.9939 18.1739C19.1913 18.9012 17.991 20.1814 17.3114 21.0252C16.4582 21.7017 15.4242 23.0691 15.0048 24.0802C14.5131 25.3968 13.9564 27.6007 13.7756 28.9973C13.725 29.8265 13.6816 31.1722 13.6816 32.0014C13.6816 33.4707 13.8118 35.8419 13.9781 37.304C14.195 39.4207 14.3758 42.8612 14.3758 44.9851C14.3758 45.2688 14.3758 45.7343 14.3758 46.018V52.3462C14.3396 52.5572 14.3107 52.9063 14.3107 53.1245C14.3107 53.8083 14.5927 54.8339 14.9325 55.4158C14.9904 55.5176 15.0337 55.6922 15.0337 55.8086V55.8231C15.1494 56.9578 15.323 58.0925 15.3736 59.2127C15.511 62.6023 15.6122 66.1665 15.7134 69.6433V70.4726C15.9303 73.0329 16.1545 75.557 16.3569 78.1537C16.5088 79.2593 16.6317 81.0632 16.6317 82.1834C16.6317 82.2925 16.6317 82.4598 16.6317 82.5689C16.6823 83.9364 17.4415 85.8858 18.3164 86.9259C19.3215 88.4825 21.1797 90.832 22.4595 92.1631C22.7415 92.4104 23.0524 92.905 23.1681 93.2687C23.2838 94.578 24.2455 95.0799 25.1421 95.7127C25.735 96.1055 26.646 96.8038 27.1811 97.2693C27.586 97.6766 28.3814 98.0403 28.9526 98.0839C29.3286 98.1785 29.8926 98.4185 30.2179 98.6295C30.6518 98.9132 31.4038 99.2477 31.9027 99.3787C33.2186 99.5969 34.5491 99.5169 35.8939 99.5169H39.8346L39.8201 99.4951Z" fill="white"/>
<path d="M248.272 126.99C245.437 122.465 243.167 117.665 241.084 112.748C238.966 107.736 237.643 102.499 236.45 97.2252C235.792 94.2939 235.56 91.2607 235.22 88.2639C235.112 87.3037 234.57 86.9982 233.803 86.8891C230.962 86.4745 228.113 86.0672 225.264 85.718C222.726 85.4053 220.159 85.2816 217.628 84.9034C213.695 84.3142 209.747 84.176 205.778 84.1324C202.386 84.096 198.966 84.096 195.604 83.7178C190.203 83.114 184.802 83.4923 179.4 83.4486C176.761 83.4268 174.115 83.9432 171.468 84.1251C169.95 84.2342 168.403 84.0814 166.884 84.1905C164.361 84.3651 161.852 84.6561 159.336 84.9034C159.27 84.9034 159.213 84.9252 159.148 84.9252C156.682 85.0634 154.209 85.158 151.751 85.3544C149.61 85.5217 147.485 85.8126 145.352 86.0454C145.193 86.0599 145.033 86.089 144.882 86.0963C142.539 86.2272 140.196 86.3145 137.861 86.5036C135.561 86.6927 133.277 86.9837 130.992 87.2746C130.789 87.3037 130.507 87.6383 130.471 87.8638C130.066 90.4315 129.705 93.0137 129.329 95.5886C129.314 95.7123 129.314 95.8432 129.307 95.9741C129.177 98.3308 129.191 100.702 128.88 103.03C128.374 106.805 128.244 110.667 126.885 114.268C125.909 116.85 124.766 119.367 123.566 121.854C122.076 124.938 120.218 127.862 119.285 131.194C118.374 134.438 117.521 137.689 116.675 140.948C115.938 143.785 115.215 146.622 114.542 149.473C114.065 151.481 113.703 153.51 113.233 155.518C112.886 157.009 112.467 158.478 112.019 159.94C111.932 160.216 111.578 160.566 111.303 160.609C109.958 160.813 109.228 161.795 108.505 162.755C107.644 163.904 107.124 164.035 105.461 163.257C104.513 162.813 104.362 162.18 104.636 160.922C105.135 158.66 105.533 156.376 105.996 154.099C106.278 152.695 106.646 151.306 106.899 149.902C107.268 147.902 107.557 145.894 107.904 143.894C108.15 142.483 108.353 141.064 108.707 139.682C109.719 135.704 110.674 131.703 111.917 127.79C112.568 125.724 113.891 123.891 114.701 121.862C115.902 118.836 117.781 116.101 118.302 112.769C118.606 110.82 118.786 108.856 119.076 106.921C119.502 104.004 119.191 101.109 119.408 98.2144C119.567 96.156 119.9 94.1193 120.095 92.0608C120.189 91.0134 120.168 89.9441 120.124 88.8967C120.124 88.7221 119.726 88.4094 119.517 88.4166C118.345 88.4603 117.181 88.5767 116.017 88.6712C115.858 88.6858 115.706 88.7512 115.547 88.7585C112.698 88.8967 109.85 89.0349 106.993 89.1586C103.631 89.304 100.269 89.4059 96.914 89.5659C95.5547 89.6314 94.2098 89.8496 92.8504 89.915C91.7514 89.966 91.0789 89.3695 91.1657 88.3075C91.2886 86.7946 91.5562 85.2816 91.8743 83.7905C92.3298 81.6374 92.9227 79.5208 93.3855 77.3677C93.5446 76.604 93.8482 76.0221 94.5568 75.7529C95.0847 75.5493 95.6559 75.3965 96.2199 75.3747C100.349 75.1928 104.477 75.091 108.606 74.8728C111.39 74.7273 114.166 74.4509 116.943 74.1745C118.931 73.9781 120.898 73.6508 122.886 73.4399C123.682 73.3526 124.029 72.9234 124.282 72.2251C124.867 70.5812 125.431 68.9228 126.147 67.3371C127.781 63.7148 129.473 60.1215 131.201 56.5428C132.105 54.6807 133.154 52.8986 134.108 51.0656C135.099 49.1526 135.995 47.1814 137.044 45.2975C138.468 42.7371 139.929 40.1913 141.512 37.7327C143.913 34.0158 146.357 30.3207 148.945 26.7347C150.767 24.2107 152.691 21.7085 154.882 19.5118C156.516 17.8679 158.649 16.726 160.565 15.373C161.216 14.9148 161.845 14.3983 162.56 14.0856C166.147 12.5071 169.711 10.8487 173.377 9.49578C177.737 7.881 182.162 6.39714 186.638 5.15332C189.697 4.30228 192.799 3.45852 196.031 3.34941C197.253 3.30577 198.46 2.97118 199.675 2.78206C200.116 2.70932 200.557 2.62203 200.991 2.62203C204.715 2.61476 208.446 2.54929 212.169 2.66568C214.273 2.73114 216.37 3.11665 218.474 3.34214C219.855 3.49489 221.244 3.61127 222.625 3.78584C224.252 3.98951 225.879 4.19318 227.498 4.46231C229.834 4.84782 232.162 5.27697 234.49 5.7134C235.857 5.97526 237.231 6.2153 238.554 6.6299C239.501 6.92085 239.935 6.49897 240.289 5.80069C240.586 5.20424 240.831 4.57869 241.056 3.95314C241.663 2.22925 243.239 1.18909 244.996 1.55278C246.442 1.85101 247.845 2.37472 249.284 2.73114C251.12 3.18212 252.972 3.81494 254.83 3.85858C255.907 3.88768 256.811 4.10589 257.758 4.46958C259.183 5.01512 260.021 6.59353 259.544 8.11376C258.619 11.0597 257.686 14.0128 256.645 16.9223C255.415 20.3338 254.078 23.7015 252.769 27.0839C252.646 27.4039 252.473 27.753 252.22 27.9713C250.376 29.5424 249.161 31.4845 248.416 33.8049C247.766 35.827 246.934 37.7836 246.182 39.7767C245.531 41.5005 244.808 43.2026 244.244 44.9629C243.398 47.5887 242.574 50.2291 241.894 52.8986C241.338 55.0808 240.99 57.3138 240.571 59.5323C240.202 61.4672 239.776 63.3947 239.537 65.3441C239.277 67.4899 239.183 69.6575 239.06 71.8178C239.016 72.6252 239.653 72.9161 240.296 73.2071C241.648 73.8108 243.051 74.3564 244.302 75.1347C246.146 76.2912 246.934 78.2551 247.614 80.2336C247.664 80.3718 247.672 80.5973 247.592 80.6991C246.58 82.0302 247.541 83.3177 247.671 84.6124C247.78 85.6526 248.076 86.6709 248.192 87.7111C248.329 88.9112 247.476 89.7987 246.225 89.9223C245.502 89.995 244.794 90.2205 244.078 90.2133C243.377 90.2133 242.661 90.0605 241.995 89.8423C241.446 89.6677 240.983 89.0786 240.354 89.6314C239.768 90.1405 239.834 90.737 240.007 91.4571C240.383 93.0282 240.593 94.643 240.94 96.2214C241.526 98.8618 242.075 101.517 242.827 104.106C244.063 108.347 245.502 112.537 247.686 116.399C249.392 119.41 251.236 122.349 253.08 125.28C253.319 125.659 253.861 125.877 254.309 126.066C254.982 126.342 255.712 126.48 256.377 126.764C257.115 127.077 257.201 127.513 256.681 128.095C255.907 128.961 255.083 129.717 253.868 129.95C253.463 130.03 253.109 130.379 252.726 130.605C252.198 130.917 251.67 131.23 251.251 131.478C250.188 129.87 249.197 128.437 248.272 126.968V126.99ZM241.706 36.838C241.764 36.4962 241.851 36.147 242.003 35.8343C242.95 33.7903 243.926 31.7682 244.866 29.717C245.56 28.204 245.191 26.7129 243.868 26.0801C242.451 25.4036 240.947 24.8872 239.494 24.2689C238.684 23.927 237.816 23.6361 237.137 23.1124C235.502 21.8685 234.136 20.4283 235.192 18.0862C235.343 17.7443 235.43 17.366 235.575 17.0169C236.059 15.8095 236.58 14.6093 237.035 13.3945C237.267 12.7835 237.216 12.2962 236.356 12.2016C234.664 12.0125 232.986 11.7216 231.294 11.5034C229.884 11.3215 228.467 11.1833 227.057 11.016C225.271 10.8051 223.485 10.3759 221.706 10.3905C213.869 10.4341 206.009 9.88857 198.207 11.1106C196.898 11.3142 195.554 11.3361 194.259 11.6052C191.591 12.1507 188.923 12.7108 186.306 13.4382C182.647 14.4565 178.988 15.504 175.424 16.7841C172.611 17.7952 169.899 19.0972 167.21 20.4138C164.73 21.6285 162.264 22.916 160.42 25.0836C159.458 26.2183 158.526 27.3748 157.564 28.5168C156.798 29.426 155.937 30.2698 155.272 31.2445C153.92 33.2448 152.647 35.296 151.382 37.3545C150.536 38.7365 149.762 40.1622 148.938 41.5587C147.969 43.1881 146.87 44.7519 146.024 46.4395C143.877 50.7456 141.78 55.0735 139.784 59.4523C138.244 62.8274 136.877 66.2824 135.475 69.7157C134.954 70.9813 135.345 71.5268 136.74 71.4687C138.128 71.4105 139.509 71.2432 140.89 71.1122C142.242 70.9813 143.595 70.8286 144.939 70.6685C146.942 70.4358 148.945 70.1594 150.955 69.9702C152.944 69.7884 154.932 69.7084 156.921 69.5556C158.244 69.4538 159.56 69.3011 160.883 69.1628C163.146 68.9228 165.395 68.6173 167.665 68.45C170.413 68.2536 173.175 68.1663 175.93 68.0354C175.995 68.0354 176.06 68.0281 176.118 68.0209C179.111 67.7736 182.097 67.4099 185.098 67.3153C187.34 67.2498 189.588 67.5772 191.83 67.6426C197.231 67.8027 202.625 67.8972 208.026 68.0572C210.463 68.13 212.9 68.3045 215.336 68.4355C215.43 68.4355 215.524 68.4646 215.618 68.4791C217.368 68.7192 219.118 69.1265 220.875 69.1556C224.049 69.2065 227.05 70.1521 230.145 70.6249C231.67 70.8577 233.181 71.1486 234.758 71.4177C234.779 71.1486 234.808 70.9086 234.83 70.6613C234.96 68.6246 235.069 66.5879 235.228 64.5585C235.286 63.8021 235.466 63.0529 235.596 62.3037C236.016 59.8306 236.37 57.3502 236.869 54.8916C237.223 53.1532 237.773 51.4584 238.236 49.7418C238.886 47.3123 239.458 44.861 240.195 42.4607C240.643 41.0132 240.766 39.6385 240.123 38.0309C241.366 38.3801 241.569 37.6673 241.706 36.8453V36.838Z" fill="white"/>
<path d="M302.449 56.5052C302.333 58.8401 302.239 61.175 302.08 63.5026C301.957 65.2992 301.741 67.0886 301.567 68.8779C301.567 68.9216 301.553 68.9652 301.567 69.0016C302.688 71.9839 300.981 75.0316 301.929 78.1302C302.514 80.0505 302.001 82.2981 302.073 84.393C302.196 88.0372 302.189 91.7031 302.594 95.3255C303.1 99.8716 302.492 104.389 302.384 108.898C302.326 111.117 302.818 113.168 302.919 115.307C302.941 115.721 303.035 116.129 303.013 116.536C302.868 119.555 302.297 122.624 302.63 125.585C303.447 132.902 302.753 140.219 303.071 147.522C303.093 148.097 303.404 148.657 303.772 149.144C303.693 150.075 303.555 150.999 303.548 151.93C303.519 155.975 303.418 160.019 303.57 164.056C303.671 166.703 300.938 169.177 298.096 168.536C296.368 168.144 294.495 168.035 292.796 169.06C292.377 169.315 291.683 169.453 291.256 169.278C289.709 168.653 288.386 169.344 287.077 169.46C286.477 169.264 285.869 168.893 285.269 168.907C282.312 169.009 279.355 169.249 276.39 169.358C274.597 169.424 274.503 169.206 275.038 167.525C275.175 167.096 275.212 166.638 275.262 166.187C275.414 164.71 275.559 163.227 275.696 161.75C275.718 161.546 275.761 161.335 275.739 161.132C275.313 157.466 276.014 153.8 275.739 150.134C275.559 147.704 275.255 145.275 275.204 142.838C275.161 140.867 275.414 138.896 275.53 136.924C275.588 135.972 275.732 135.019 275.682 134.073C275.602 132.466 275.306 130.865 275.269 129.265C275.19 125.788 275.284 122.311 275.19 118.834C275.052 113.539 274.828 108.244 274.633 102.956C274.46 98.2641 274.25 93.5798 274.134 88.8882C274.076 86.6115 274.286 84.3275 274.221 82.0581C274.17 80.3415 273.881 78.6248 273.708 76.9082C273.404 73.7878 274.163 70.8128 274.901 67.8232C275.19 66.6522 275.183 65.3938 275.233 64.1791C275.277 63.0734 275.096 61.9387 275.262 60.8549C275.342 60.3458 276 59.9239 276.47 59.3711C275.501 58.6219 275.804 57.5963 276.462 56.5561C276.527 56.4543 276.636 56.3233 276.614 56.2215C276.289 54.5049 276.332 52.5555 275.486 51.1517C274.713 49.8569 274.293 48.5986 274.836 47.4784C275.732 45.609 275.551 43.856 275.233 41.9648C274.951 40.2773 274.821 38.5534 274.727 36.8441C274.496 32.7126 274.279 28.5738 274.156 24.435C274.084 21.9837 274.206 19.5324 274.221 17.0811C274.221 16.5938 274.272 15.9464 273.997 15.6482C273.021 14.5789 273.223 13.4151 273.36 12.1568C273.454 11.313 273.223 10.4329 273.1 9.57456C272.898 8.1198 273.903 6.73777 275.255 7.13783C277.352 7.75611 278.856 6.60685 280.49 5.90129C282.804 4.8975 285.074 4.03919 287.648 3.75551C290.367 3.45729 293.013 2.52624 295.696 1.87887C296.491 1.68248 297.315 1.56609 298.089 1.31879C298.581 1.15876 299.065 0.889631 299.456 0.555035C300.388 -0.23781 301.14 -0.186893 301.863 0.744154C302.492 1.55155 303.194 2.29348 303.866 3.0645C303.975 3.18815 304.127 3.29726 304.177 3.45001C305.334 6.62139 308.161 8.5926 309.795 11.4221C310.374 12.4259 311.104 13.3424 311.784 14.2807C312.348 15.059 312.731 15.8373 312.594 16.892C312.529 17.423 312.854 18.0922 313.172 18.5868C316.035 22.9947 318.928 27.3954 321.841 31.767C323.533 34.3055 325.269 36.8077 327.019 39.3099C328.862 41.9576 330.706 44.6052 332.63 47.1947C333.635 48.5476 334.914 49.6969 335.421 51.3917C335.522 51.7263 335.811 52.0536 336.1 52.2646C337.857 53.5738 338.747 55.465 339.585 57.3999C339.701 57.6617 339.875 57.9018 340.026 58.1491C341.653 60.724 343.15 63.3935 344.95 65.8375C346.064 67.3504 347.51 68.7034 349.043 69.8017C350.193 70.6236 350.843 71.7075 351.581 72.784C353.533 75.6499 355.529 78.5012 357.351 81.4471C358.992 84.102 360.395 86.9024 361.978 89.601C363.613 92.3869 364.907 95.5583 367.127 97.7768C370.077 100.73 371.624 104.454 373.952 107.713C374.191 108.047 374.697 108.186 375.073 108.418C375.247 108.04 375.543 107.676 375.565 107.291C375.637 105.88 375.615 104.461 375.637 103.043C375.651 101.843 375.767 100.788 376.743 99.7844C377.358 99.1515 377.474 97.8786 377.539 96.8821C377.654 95.0273 377.893 93.0925 377.502 91.3176C376.895 88.5754 377.119 85.855 377.112 83.1273C377.069 69.4598 377.141 55.7924 377.076 42.1249C377.032 34.0582 376.801 25.9916 376.685 17.9176C376.671 16.892 376.975 15.8664 376.989 14.8335C377.011 13.7279 376.96 12.6005 376.765 11.5094C376.483 9.88006 376.91 9.07994 378.493 8.62897C379.831 8.25073 381.089 8.2871 382.47 8.64351C383.88 9.0072 385.413 8.8981 386.895 8.95629C390.633 9.10176 394.371 9.24724 398.117 9.34907C398.796 9.36362 399.512 9.27633 400.163 9.07267C402.166 8.43257 403.417 9.30543 403.431 11.4439C403.439 12.695 403.366 13.9461 403.446 15.1972C403.655 18.5359 403.923 21.8746 404.162 25.2205C404.183 25.5042 404.212 25.8752 404.06 26.0643C403.185 27.1554 403.431 28.4356 403.453 29.6576C403.511 32.8435 403.742 36.0294 403.655 39.2008C403.605 40.9902 403.699 42.6849 404.133 44.4307C404.371 45.3763 403.952 46.4746 403.952 47.5075C403.937 56.9707 404.241 66.4412 403.858 75.8826C403.504 84.6403 403.569 93.3907 403.41 102.141C403.359 104.803 402.809 107.451 402.499 110.106C402.47 110.353 402.426 110.615 402.47 110.855C402.86 113.001 403.294 115.147 403.67 117.3C403.822 118.151 403.916 119.024 403.93 119.889C404.003 123.599 404.046 127.301 403.041 130.931C402.86 131.578 403.041 132.32 402.983 133.011C402.831 134.822 402.549 136.626 402.491 138.437C402.455 139.448 402.708 140.481 402.918 141.492C403.106 142.365 403.222 143.151 402.484 143.871C402.188 144.162 402.065 144.656 401.927 145.078C401.595 146.119 400.886 146.409 400.084 145.697C399.353 145.049 398.717 145.086 397.835 145.42C396.62 145.878 395.239 145.922 394.039 146.417C391.284 147.537 388.406 147.224 385.572 147.442C383.656 147.588 381.74 147.922 379.845 148.272C379.455 148.344 378.97 148.817 378.833 149.21C378.479 150.199 377.741 150.606 376.917 151.152C374.025 153.058 371.385 152.614 368.869 150.548C367.597 149.501 366.324 148.402 365.268 147.137C364.48 146.191 364.025 144.955 363.439 143.835C361.328 139.819 359.245 135.782 357.105 131.782C355.688 129.127 354.191 126.523 352.738 123.89C351.183 121.068 349.636 118.245 348.081 115.423C347.98 115.241 347.886 115.038 347.734 114.914C345.413 113.045 344.379 110.23 342.629 107.938C340.916 105.683 339.166 103.45 337.539 101.13C336.028 98.977 334.712 96.6857 333.201 94.5254C331.256 91.7468 329.195 89.0555 327.228 86.2987C326.635 85.4695 326.144 84.5603 325.688 83.6438C324.141 80.5524 322.087 77.8029 320.048 75.0316C318.978 73.5768 318.183 71.9184 317.221 70.3836C316.187 68.7397 315.146 67.1031 314.011 65.532C313.664 65.0519 312.962 64.8264 312.435 64.4773C311.842 64.0845 311.104 63.7863 310.699 63.248C308.248 59.9748 305.884 56.6361 303.476 53.3265C303.338 53.1374 303.114 53.021 302.659 52.6428C302.586 54.1485 302.529 55.3268 302.464 56.5125L302.449 56.5052Z" fill="white"/>
<path d="M555.137 50.9466H513.546V133.555H457.444V50.9466H414.965V8.92578H555.137V50.9393V50.9466Z" fill="white"/>
<path d="M556.848 70.3572C556.848 31.9006 589.233 4.66016 643.036 4.66016C696.839 4.66016 729.051 31.9006 729.051 70.3572C729.051 108.814 696.485 137.836 642.863 137.836C589.241 137.836 556.848 107.388 556.848 70.3572ZM668.524 70.7136C668.524 55.9332 658.437 46.4991 642.863 46.4991C627.288 46.4991 617.201 55.9332 617.201 70.7136C617.201 85.494 627.288 95.9974 642.863 95.9974C658.437 95.9974 668.524 85.6686 668.524 70.7136Z" fill="white"/>
<path d="M836.586 8.75C872.689 8.75 890.743 28.1565 890.743 56.6408C890.743 85.125 869.326 104.357 828.445 104.357H796.059V133.554H739.957V8.75H836.586ZM812.697 73.5597C826.326 73.5597 833.224 67.8643 833.224 58.7793C833.224 49.6943 826.854 44.1807 815.169 44.1807H796.052V73.5597H812.689H812.697Z" fill="white"/>
<path d="M899.695 133.554V8.75H955.797V133.554H899.695Z" fill="white"/>
<path d="M1067.54 133.555L1062.05 114.149H1020.29L1014.63 133.555H959.764L1000.65 8.92578H1083.47L1124 133.555H1067.54ZM1028.25 86.3773H1054.09L1041.17 41.3306L1028.25 86.3773Z" fill="white"/>
</g>
<defs>
<clipPath id="clip0_1020_122">
<rect width="1124" height="171" fill="white"/>
</clipPath>
</defs>
</svg>
