<svg width="181" height="72" viewBox="0 0 181 72" fill="none" xmlns="http://www.w3.org/2000/svg">
<path d="M55.084 14.2734C55.084 14.5241 54.6624 15.1279 53.8193 16.085C51.4951 18.751 49.2962 20.084 47.2227 20.084C45.901 20.084 44.8187 19.6283 43.9756 18.7168C43.1553 17.7826 42.7451 16.5635 42.7451 15.0596C42.7451 13.7835 43.4971 11.7214 45.001 8.87305C45.7074 7.55143 46.0605 6.45768 46.0605 5.5918C46.0605 4.45247 45.4225 3.48405 44.1465 2.68652C42.8932 1.86621 41.3551 1.45605 39.5322 1.45605C34.3141 1.45605 29.472 3.46126 25.0059 7.47168C20.5625 11.4821 18.3408 15.8229 18.3408 20.4941C18.3408 22.8639 19.0814 24.8008 20.5625 26.3047C22.0664 27.8086 24.0033 28.5605 26.373 28.5605C28.9479 28.5605 31.5342 27.6263 34.1318 25.7578C36.7523 23.8665 38.598 21.5993 39.6689 18.9561C39.7373 18.7282 39.8285 18.6143 39.9424 18.6143C40.1475 18.6143 40.25 18.7282 40.25 18.9561C40.25 19.4346 39.8512 20.2891 39.0537 21.5195C38.2562 22.7272 37.4359 23.7412 36.5928 24.5615C33.5166 27.5921 30.0645 29.1074 26.2363 29.1074C23.6387 29.1074 21.5537 28.3099 19.9814 26.7148C18.4092 25.1198 17.623 23.0007 17.623 20.3574C17.623 15.5495 19.9359 11.0947 24.5615 6.99316C29.21 2.8916 34.2458 0.84082 39.6689 0.84082C42.0615 0.84082 43.93 1.43327 45.2744 2.61816C46.6416 3.80306 47.3252 5.43229 47.3252 7.50586C47.3252 9.05534 46.7783 10.8896 45.6846 13.0088C44.7048 14.9456 44.2148 16.2559 44.2148 16.9395C44.2148 18.6257 45.2174 19.4688 47.2227 19.4688C49.5013 19.4688 51.8597 17.7826 54.2979 14.4102C54.5029 14.1367 54.6738 14 54.8105 14C54.9928 14 55.084 14.0911 55.084 14.2734ZM91.6904 8.05273C91.6904 8.46289 91.4512 8.66797 90.9727 8.66797C90.7676 8.66797 90.0042 8.53125 88.6826 8.25781C86.2445 7.75651 84.2165 7.50586 82.5986 7.50586C78.93 8.6224 75.6829 10.7871 72.8574 14C70.0547 17.2129 66.8532 22.4196 63.2529 29.6201C57.7386 40.6715 50.6748 47.1999 42.0615 49.2051C43.8617 49.4785 45.4225 49.6152 46.7441 49.6152C50.9368 49.6152 54.4574 48.2708 57.3057 45.582C60.0628 42.9844 62.3529 40.2272 64.1758 37.3105C64.3809 36.9915 64.5404 36.832 64.6543 36.832C64.791 36.832 64.8708 36.8776 64.8936 36.9688C64.8936 37.3105 63.5833 39.0765 60.9629 42.2666C58.5247 45.2516 56.3031 47.3138 54.2979 48.4531C52.2926 49.5697 49.8431 50.1279 46.9492 50.1279C45.2858 50.1279 43.2578 49.8887 40.8652 49.4102C39.4069 49.8887 37.7321 50.1279 35.8408 50.1279C34.5192 50.1279 33.8584 49.8887 33.8584 49.4102C33.8584 48.8633 34.7471 48.5898 36.5244 48.5898C37.7777 48.5898 39.2246 48.7038 40.8652 48.9316C44.3971 48.0885 47.0632 46.6986 48.8633 44.7617C50.6862 42.8249 54.1839 37.584 59.3564 29.0391H46.1973C40.6146 34.918 36.2965 39.0993 33.2432 41.583C26.111 47.3708 19.389 50.2646 13.0771 50.2646C9.47689 50.2646 6.41211 49.4215 3.88281 47.7354C1.3763 46.0492 0.123047 43.9984 0.123047 41.583C0.123047 40.3298 0.499023 39.2588 1.25098 38.3701C2.02572 37.4814 2.95996 37.0371 4.05371 37.0371C5.53483 37.0371 6.27539 37.7549 6.27539 39.1904C6.27539 39.9424 6.01335 40.5918 5.48926 41.1387C4.98796 41.6628 4.39551 41.9248 3.71191 41.9248C2.64095 41.9248 2.10547 41.4121 2.10547 40.3867L2.17383 39.7031C2.2194 39.612 2.24219 39.4867 2.24219 39.3271C2.24219 39.0993 2.13965 38.9854 1.93457 38.9854C1.70671 38.9854 1.47884 39.2702 1.25098 39.8398C1.02311 40.4095 0.90918 40.9906 0.90918 41.583C0.90918 43.8161 2.08268 45.7074 4.42969 47.2568C6.77669 48.7835 9.65918 49.5469 13.0771 49.5469C17.9762 49.5469 23.3652 47.1429 29.2441 42.335C30.5885 41.264 32.0811 39.8512 33.7217 38.0967C36.9801 34.6787 39.5778 32.0127 41.5146 30.0986L42.54 29.0391H35.9092L36.3193 28.4238C38.5068 28.4238 40.7513 28.4466 43.0527 28.4922C49.7292 21.0638 56.2005 15.6406 62.4668 12.2227C68.7559 8.7819 75.3981 7.03874 82.3936 6.99316C84.0114 6.67415 85.5267 6.51465 86.9395 6.51465C90.1068 6.51465 91.6904 7.02734 91.6904 8.05273ZM80.8555 7.64258C74.9082 7.9388 69.3939 9.64779 64.3125 12.7695C59.2311 15.8913 53.375 21.1322 46.7441 28.4922H59.6982C62.6149 23.4108 66.1354 18.8535 70.2598 14.8203C74.3158 10.8099 77.8477 8.41732 80.8555 7.64258ZM87.3496 38.3018C87.3496 38.6663 86.1191 40.2272 83.6582 42.9844C80.901 46.0378 77.335 48.7607 72.96 51.1533L71.251 54.2637C68.152 59.9831 64.6771 64.3923 60.8262 67.4912C57.1348 70.4762 53.9447 71.9688 51.2559 71.9688C50.276 71.9688 49.4671 71.6725 48.8291 71.0801C48.1911 70.4876 47.8721 69.7585 47.8721 68.8926C47.8721 64.2214 53.1471 59.4818 63.6973 54.6738C65.9759 53.6257 67.4456 52.9193 68.1064 52.5547L73.917 41.8564C71.3877 45.2061 69.599 47.3708 68.5508 48.3506C67.5254 49.3076 66.4658 49.7861 65.3721 49.7861C64.1872 49.7861 63.1732 49.262 62.3301 48.2139C61.5098 47.1657 61.0996 45.8896 61.0996 44.3857C61.0996 40.4437 63.6745 36.8662 68.8242 33.6533C72.265 31.5114 74.9652 30.4404 76.9248 30.4404C78.292 30.4404 78.9756 31.1924 78.9756 32.6963C78.9756 33.1064 78.873 33.5964 78.668 34.166L80.582 30.7139C81.1973 30.8734 81.7327 30.9531 82.1885 30.9531C82.7809 30.9531 83.6468 30.8734 84.7861 30.7139C84.6266 30.9189 83.624 32.6279 81.7783 35.8408L73.3018 50.4697C76.2868 48.7835 78.668 47.1543 80.4453 45.582C82.2454 44.0098 84.2734 41.7425 86.5293 38.7803C86.8711 38.3245 87.099 38.0967 87.2129 38.0967C87.304 38.1195 87.3496 38.1878 87.3496 38.3018ZM78.5996 32.6963C78.5996 31.5342 78.0413 30.9531 76.9248 30.9531C74.874 30.9531 72.151 33.0039 68.7559 37.1055C65.3835 41.1842 63.6973 44.4769 63.6973 46.9834C63.6973 48.5101 64.3581 49.2734 65.6797 49.2734C67.0241 49.2734 69.3027 47.2454 72.5156 43.1895C76.5716 38.0625 78.5996 34.5648 78.5996 32.6963ZM67.7646 53.1357C67.3317 53.3864 66.0443 54.0358 63.9023 55.084C53.5117 60.2337 48.3164 64.8594 48.3164 68.9609C48.3164 69.6673 48.5785 70.2598 49.1025 70.7383C49.6266 71.2168 50.2988 71.4561 51.1191 71.4561C53.6257 71.4561 56.0638 70.1686 58.4336 67.5938C60.8034 65.0417 63.777 60.4502 67.3545 53.8193C67.3545 53.8193 67.4912 53.5915 67.7646 53.1357ZM104.645 38.3018C104.645 38.3701 104.439 38.6663 104.029 39.1904L102.56 41.0361C97.8428 46.8695 93.7982 49.7861 90.4258 49.7861C88.8307 49.7861 87.4863 49.2165 86.3926 48.0771C85.3216 46.915 84.7861 45.4681 84.7861 43.7363C84.7861 39.6348 87.6458 36.0231 93.3652 32.9014C96.373 31.2607 98.8226 30.4404 100.714 30.4404C101.534 30.4404 102.229 30.6911 102.799 31.1924C103.391 31.6709 103.688 32.2633 103.688 32.9697C103.688 34.6104 102.617 36.0117 100.475 37.1738C98.3327 38.3132 94.7552 39.3841 89.7422 40.3867C88.1927 42.7337 87.418 44.6934 87.418 46.2656C87.418 48.2253 88.4775 49.2051 90.5967 49.2051C94.1969 49.2051 98.6061 45.6846 103.824 38.6436C104.098 38.279 104.326 38.0967 104.508 38.0967C104.599 38.1195 104.645 38.1878 104.645 38.3018ZM101.773 31.9785C101.773 31.2493 101.375 30.8848 100.577 30.8848C99.3695 30.8848 97.7744 31.7279 95.792 33.4141C93.8324 35.0775 91.9069 37.2422 90.0156 39.9082C93.2969 39.0651 96.0768 37.8802 98.3555 36.3535C100.634 34.804 101.773 33.3457 101.773 31.9785ZM132.022 38.3018C132.022 38.7803 130.37 40.9906 127.066 44.9326C124.355 48.1683 122.224 49.7861 120.675 49.7861C119.649 49.7861 118.784 49.3874 118.077 48.5898C117.394 47.7923 117.052 46.8125 117.052 45.6504C117.052 44.625 117.257 43.6794 117.667 42.8135C118.1 41.9248 119.205 40.1816 120.982 37.584C122.828 34.8496 123.751 33.1064 123.751 32.3545C123.751 31.4202 123.261 30.9531 122.281 30.9531C118.954 30.9531 113.827 37.1283 106.9 49.4785C105.784 49.3874 105.112 49.3418 104.884 49.3418C104.086 49.3418 103.334 49.3874 102.628 49.4785L107.96 41.0361C110.991 36.2054 112.506 33.1862 112.506 31.9785C112.506 31.2949 112.221 30.9531 111.651 30.9531C110.489 30.9531 108.199 33.4027 104.781 38.3018C104.576 38.598 104.417 38.7575 104.303 38.7803C104.189 38.7803 104.12 38.7119 104.098 38.5752C104.12 38.4613 104.166 38.3701 104.234 38.3018L104.884 37.4473C108.37 32.776 110.717 30.4404 111.925 30.4404C112.7 30.4404 113.36 30.7936 113.907 31.5C114.454 32.2064 114.728 33.0495 114.728 34.0293C114.728 35.4876 113.873 37.5156 112.164 40.1133C114.853 36.3991 116.915 33.8584 118.351 32.4912C119.809 31.124 121.153 30.4404 122.384 30.4404C123.386 30.4404 124.229 30.8506 124.913 31.6709C125.597 32.4912 125.938 33.5052 125.938 34.7129C125.938 36.2396 124.89 38.5752 122.794 41.7197C120.652 44.9326 119.581 46.9834 119.581 47.8721C119.581 48.8063 120.048 49.2734 120.982 49.2734C123.01 49.2734 126.508 45.6618 131.476 38.4385C131.59 38.2106 131.703 38.0967 131.817 38.0967C131.954 38.0967 132.022 38.165 132.022 38.3018ZM163.092 14.4102C154.547 27.9909 149.158 36.6725 146.925 40.4551C144.669 44.306 143.541 46.7327 143.541 47.7354C143.541 48.7607 144.008 49.2734 144.942 49.2734C147.016 49.2734 150.536 45.6618 155.504 38.4385C155.641 38.2106 155.766 38.0967 155.88 38.0967C156.017 38.0967 156.085 38.165 156.085 38.3018C156.062 38.3701 155.948 38.5524 155.743 38.8486L154.273 40.8652C149.967 46.8125 146.788 49.7861 144.737 49.7861C143.689 49.7861 142.835 49.3988 142.174 48.624C141.513 47.8265 141.183 46.8125 141.183 45.582C141.183 44.3516 141.593 42.9274 142.413 41.3096C138.425 46.9606 135.463 49.7861 133.526 49.7861C132.319 49.7861 131.305 49.2734 130.484 48.248C129.664 47.1999 129.254 45.8896 129.254 44.3174C129.254 40.5576 131.59 37.151 136.261 34.0977C139.975 31.6595 142.892 30.4404 145.011 30.4404C146.424 30.4404 147.13 31.124 147.13 32.4912C147.13 33.1292 146.936 33.847 146.549 34.6445L158.751 14.2051C159.503 14.4329 160.243 14.5469 160.973 14.5469C161.155 14.5469 161.861 14.5013 163.092 14.4102ZM146.617 32.7646C146.617 31.557 146.059 30.9531 144.942 30.9531C142.892 30.9531 140.18 33.0039 136.808 37.1055C133.458 41.1842 131.783 44.4769 131.783 46.9834C131.783 48.5101 132.41 49.2734 133.663 49.2734C135.486 49.2734 138.619 46.1061 143.062 39.7715C145.432 36.3535 146.617 34.0179 146.617 32.7646ZM180.216 38.3018C180.216 38.7803 178.552 40.9906 175.226 44.9326C172.537 48.1683 170.418 49.7861 168.868 49.7861C167.82 49.7861 166.965 49.3988 166.305 48.624C165.644 47.8265 165.313 46.8353 165.313 45.6504C165.313 44.4199 165.678 43.0869 166.407 41.6514C164.129 44.8415 162.385 46.9948 161.178 48.1113C159.97 49.2279 158.797 49.7861 157.657 49.7861C156.45 49.7861 155.436 49.2734 154.615 48.248C153.795 47.1999 153.385 45.8896 153.385 44.3174C153.385 39.9424 156.472 36.0687 162.647 32.6963C165.359 31.1924 167.547 30.4404 169.21 30.4404C170.623 30.4404 171.329 31.124 171.329 32.4912C171.329 32.8786 171.238 33.3913 171.056 34.0293L172.799 30.7139C173.482 30.8734 174.086 30.9531 174.61 30.9531C175.226 30.9531 176.023 30.8734 177.003 30.7139L170.953 40.7285C168.857 44.2376 167.809 46.5505 167.809 47.667C167.809 48.738 168.253 49.2734 169.142 49.2734C170.053 49.2734 171.511 48.2367 173.517 46.1631C175.522 44.0667 177.561 41.4919 179.635 38.4385C179.771 38.2106 179.897 38.0967 180.011 38.0967C180.147 38.0967 180.216 38.165 180.216 38.3018ZM170.816 32.6279C170.816 31.5114 170.304 30.9531 169.278 30.9531C167.182 30.9531 164.425 33.0039 161.007 37.1055C157.612 41.207 155.914 44.5225 155.914 47.0518C155.914 48.5329 156.575 49.2734 157.896 49.2734C159.469 49.2734 162.192 46.6644 166.065 41.4463C169.233 37.1624 170.816 34.223 170.816 32.6279Z" fill="#F2EEB1"/>
</svg>
