<svg width="225" height="51" viewBox="0 0 225 51" fill="none" xmlns="http://www.w3.org/2000/svg">
<path d="M224.403 38.0752C224.381 38.1436 224.267 38.3258 224.062 38.6221L222.592 40.6387C218.308 46.5859 215.141 49.5596 213.09 49.5596C212.019 49.5596 211.142 49.1608 210.458 48.3633C209.774 47.5658 209.433 46.5404 209.433 45.2871C209.433 44.0111 209.866 42.6325 210.731 41.1514C210.891 40.8779 211.723 39.6589 213.227 37.4941C215.141 34.7598 216.098 32.971 216.098 32.1279C216.098 31.1937 215.631 30.7266 214.696 30.7266C211.688 30.7266 206.527 36.9017 199.213 49.252C198.757 49.1608 198.131 49.1152 197.333 49.1152C196.399 49.1152 195.601 49.1608 194.94 49.252L199.794 41.5615C202.961 36.5029 204.545 33.404 204.545 32.2646C204.545 31.2393 204.123 30.7266 203.28 30.7266C202.027 30.7266 199.976 32.5267 197.128 36.127C194.28 39.7272 191.454 44.1022 188.651 49.252C188.127 49.1608 187.455 49.1152 186.635 49.1152C185.746 49.1152 184.971 49.1608 184.311 49.252L189.198 41.5615C192.571 36.2751 194.257 33.0052 194.257 31.752C194.257 31.0684 193.995 30.7266 193.471 30.7266C192.354 30.7266 190.041 33.1761 186.532 38.0752C186.304 38.3942 186.122 38.5537 185.985 38.5537C185.894 38.5309 185.849 38.4626 185.849 38.3486C185.849 38.1436 186.897 36.7194 188.993 34.0762C191.044 31.5013 192.628 30.2139 193.744 30.2139C194.473 30.2139 195.1 30.5671 195.624 31.2734C196.148 31.957 196.41 32.7773 196.41 33.7344C196.41 35.056 195.738 36.8903 194.394 39.2373C198.495 33.2217 201.549 30.2139 203.554 30.2139C204.511 30.2139 205.297 30.6012 205.912 31.376C206.527 32.1507 206.835 33.1191 206.835 34.2812C206.835 35.5801 206.231 37.2321 205.023 39.2373C209.353 33.2217 212.6 30.2139 214.765 30.2139C215.744 30.2139 216.565 30.6354 217.226 31.4785C217.909 32.3216 218.251 33.347 218.251 34.5547C218.251 35.9674 217.693 37.6195 216.576 39.5107C216.553 39.5335 215.574 40.9919 213.637 43.8857C212.52 45.5264 211.962 46.7796 211.962 47.6455C211.962 48.5798 212.429 49.0469 213.363 49.0469C215.141 49.0469 218.08 46.1758 222.182 40.4336L223.241 38.9639L223.856 38.2119C223.97 37.984 224.084 37.8701 224.198 37.8701C224.335 37.8701 224.403 37.9385 224.403 38.0752Z" fill="#F2EEB1"/>
<path d="M186.361 38.0752C186.361 38.5993 184.709 40.8096 181.405 44.7061C178.671 47.9417 176.506 49.5596 174.911 49.5596C173.909 49.5596 173.054 49.1608 172.348 48.3633C171.664 47.543 171.322 46.5632 171.322 45.4238C171.322 44.5352 171.767 43.2933 172.655 41.6982L171.972 42.6211C169.875 45.3099 168.337 47.11 167.357 48.0215C166.286 49.0469 165.272 49.5596 164.315 49.5596C163.313 49.5596 162.47 49.1722 161.786 48.3975C161.103 47.5999 160.761 46.6315 160.761 45.4922C160.761 44.1706 161.273 42.6553 162.299 40.9463L168.52 30.4873C169.294 30.6468 169.898 30.7266 170.331 30.7266C170.764 30.7266 171.539 30.6468 172.655 30.4873L164.521 43.8857C163.7 45.2529 163.29 46.4606 163.29 47.5088C163.29 48.5342 163.723 49.0469 164.589 49.0469C166.89 49.0469 170.582 44.7516 175.663 36.1611L179.013 30.4873C179.719 30.6468 180.312 30.7266 180.79 30.7266C181.36 30.7266 182.169 30.6468 183.217 30.4873L177.748 39.4082C175.15 43.6465 173.852 46.3695 173.852 47.5771C173.852 48.557 174.319 49.0469 175.253 49.0469C177.076 49.0469 180.038 46.1758 184.14 40.4336L185.199 38.9639L185.814 38.2119C185.928 37.984 186.042 37.8701 186.156 37.8701C186.293 37.8701 186.361 37.9385 186.361 38.0752Z" fill="#F2EEB1"/>
<path d="M164.486 38.0068C164.486 38.2575 163.757 39.1348 162.299 40.6387C160.339 42.7122 158.619 43.749 157.138 43.749C156.135 43.749 155.292 43.2021 154.608 42.1084C152.58 44.9111 150.928 46.8594 149.652 47.9531C148.376 49.0241 147.089 49.5596 145.79 49.5596C144.628 49.5596 143.66 49.1722 142.885 48.3975C142.11 47.5999 141.723 46.6315 141.723 45.4922C141.723 44.5352 142.03 43.3844 142.646 42.04C139.228 47.0531 136.539 49.5596 134.579 49.5596C133.599 49.5596 132.768 49.1608 132.084 48.3633C131.423 47.5658 131.093 46.6087 131.093 45.4922C131.093 44.1934 131.765 42.3932 133.109 40.0918L138.783 30.4873C139.695 30.6468 140.367 30.7266 140.8 30.7266C141.187 30.7266 141.939 30.6468 143.056 30.4873L135.297 43.168C134.066 45.1504 133.451 46.5973 133.451 47.5088C133.451 48.5342 133.918 49.0469 134.853 49.0469C135.878 49.0469 137.405 47.9076 139.433 45.6289C141.483 43.3503 143.511 40.502 145.517 37.084L149.345 30.4873C150.575 30.6012 151.35 30.6582 151.669 30.6582C152.466 30.6582 153.116 30.6012 153.617 30.4873L146.474 42.04C144.901 44.6149 144.115 46.3923 144.115 47.3721C144.115 48.4886 144.696 49.0469 145.858 49.0469C148.183 49.0469 151.008 46.5973 154.335 41.6982C154.198 40.8551 154.13 40.2285 154.13 39.8184C154.13 37.7904 154.757 35.6826 156.01 33.4951C157.286 31.3076 158.516 30.2139 159.701 30.2139C160.225 30.2139 160.487 30.5671 160.487 31.2734C160.487 33.1875 158.619 36.6852 154.882 41.7666C155.451 42.792 156.203 43.3047 157.138 43.3047C158.847 43.3047 160.943 41.7666 163.427 38.6904C163.882 38.1436 164.19 37.8701 164.35 37.8701C164.418 37.8701 164.464 37.9157 164.486 38.0068Z" fill="#F2EEB1"/>
<path d="M134.237 23.9248C134.237 24.7223 133.896 25.4743 133.212 26.1807C132.551 26.8643 131.822 27.2061 131.024 27.2061C129.999 27.2061 129.486 26.6934 129.486 25.668C129.486 24.916 129.84 24.1982 130.546 23.5146C131.252 22.8083 131.993 22.4551 132.768 22.4551C133.747 22.4551 134.237 22.945 134.237 23.9248ZM134.716 38.0752C134.693 38.1436 134.579 38.3258 134.374 38.6221L132.904 40.6387C128.62 46.5859 125.351 49.5596 123.095 49.5596C122.024 49.5596 121.124 49.1836 120.395 48.4316C119.688 47.6569 119.335 46.6999 119.335 45.5605C119.335 44.2389 120.121 42.2337 121.693 39.5449L127.025 30.4873C127.732 30.6468 128.29 30.7266 128.7 30.7266C129.315 30.7266 130.181 30.6468 131.298 30.4873L123.539 43.2363C122.423 45.082 121.864 46.5062 121.864 47.5088C121.864 48.5342 122.4 49.0469 123.471 49.0469C125.499 49.0469 129.065 45.4352 134.169 38.2119C134.283 37.984 134.397 37.8701 134.511 37.8701C134.647 37.8701 134.716 37.9385 134.716 38.0752Z" fill="#F2EEB1"/>
<path d="M122.924 38.0068C122.924 38.1891 122.81 38.3942 122.582 38.6221L121.112 40.6387C116.828 46.5859 113.638 49.5596 111.542 49.5596C110.448 49.5596 109.548 49.1722 108.842 48.3975C108.158 47.5999 107.816 46.6087 107.816 45.4238C107.816 43.8288 108.682 41.7438 110.414 39.1689C113.126 35.1813 114.481 32.8115 114.481 32.0596C114.481 31.1709 114.014 30.7266 113.08 30.7266C111.713 30.7266 109.844 32.071 107.475 34.7598C105.196 37.3346 102.063 42.2109 98.0752 49.3887C97.3916 49.252 96.8105 49.1836 96.332 49.1836C95.8307 49.1836 95.1585 49.252 94.3154 49.3887L99.3398 40.2969C100.023 38.998 101.072 37.084 102.484 34.5547C103.236 33.3242 105.549 29.4049 109.423 22.7969L114.618 13.9785C115.302 14.1152 115.883 14.1836 116.361 14.1836C117.273 14.1836 118.139 14.0697 118.959 13.8418C116.589 17.6471 113.057 23.3438 108.363 30.9316C108.227 31.1595 106.461 34.099 103.065 39.75C107.349 33.3926 110.733 30.2139 113.217 30.2139C114.197 30.2139 115.028 30.6354 115.712 31.4785C116.418 32.3216 116.771 33.347 116.771 34.5547C116.771 36.127 115.769 38.3942 113.764 41.3564C111.531 44.6605 110.414 46.734 110.414 47.5771C110.414 48.557 110.904 49.0469 111.884 49.0469C113.661 49.0469 116.601 46.1758 120.702 40.4336L121.762 38.9639L122.377 38.2119C122.491 37.984 122.628 37.8701 122.787 37.8701C122.878 37.8701 122.924 37.9157 122.924 38.0068Z" fill="#F2EEB1"/>
<path d="M101.083 38.0752C101.083 38.3714 99.4766 40.2855 96.2637 43.8174C92.7546 47.6455 89.7695 49.5596 87.3086 49.5596C85.7135 49.5596 84.3464 48.9557 83.207 47.748C82.0677 46.5176 81.498 45.0592 81.498 43.373C81.498 41.459 82.2728 39.4766 83.8223 37.4258C85.3717 35.375 87.4567 33.609 90.0771 32.1279C92.2874 30.8519 94.0876 30.2139 95.4775 30.2139C97.1637 30.2139 98.0068 31.2165 98.0068 33.2217C98.0068 34.7939 97.4714 36.3662 96.4004 37.9385C95.3522 39.5107 94.304 40.2969 93.2559 40.2969C92.2305 40.2969 91.7178 39.7842 91.7178 38.7588C91.7178 37.5511 92.766 36.4346 94.8623 35.4092C96.4801 34.6117 97.2891 33.5635 97.2891 32.2646C97.2891 31.2393 96.7308 30.7266 95.6143 30.7266C93.723 30.7266 91.3988 32.6064 88.6416 36.3662C85.8844 40.126 84.5059 43.2819 84.5059 45.834C84.5059 47.9759 85.5085 49.0469 87.5137 49.0469C90.6582 49.0469 94.9193 45.5036 100.297 38.417C100.593 38.0524 100.81 37.8701 100.946 37.8701C101.037 37.8929 101.083 37.9613 101.083 38.0752Z" fill="#F2EEB1"/>
<path d="M84.1299 38.0752C84.1299 38.2575 83.4463 39.0892 82.0791 40.5703C80.3473 42.4844 78.7181 43.4414 77.1914 43.4414C75.4596 43.4414 74.5938 42.4388 74.5938 40.4336C74.5938 39.7956 74.7305 38.9867 75.0039 38.0068C73.5684 39.2601 72.3949 40.502 71.4834 41.7324C70.5947 42.9629 69.0452 45.4694 66.835 49.252C65.6273 49.1608 64.9209 49.1152 64.7158 49.1152C64.6247 49.1152 63.9297 49.1608 62.6309 49.252L68.2363 40.1602C71.0391 35.6029 72.4404 32.7773 72.4404 31.6836C72.4404 31.0456 72.1784 30.7266 71.6543 30.7266C70.3783 30.7266 68.0654 33.1761 64.7158 38.0752C64.5107 38.3942 64.3285 38.5537 64.1689 38.5537C64.0778 38.5309 64.0322 38.4626 64.0322 38.3486C64.055 38.2347 64.1006 38.1436 64.1689 38.0752L64.7842 37.2207C68.2933 32.5495 70.6745 30.2139 71.9277 30.2139C73.7507 30.2139 74.6621 31.3874 74.6621 33.7344C74.6621 35.4889 73.7279 37.8132 71.8594 40.707C73.0443 39.3398 74.1722 38.2233 75.2432 37.3574C76.109 35.3294 77.18 33.6318 78.4561 32.2646C79.7549 30.8975 80.917 30.2139 81.9424 30.2139C82.6488 30.2139 83.002 30.5215 83.002 31.1367C83.002 32.2305 81.4183 33.7913 78.251 35.8193C77.7497 36.1383 76.9977 36.6055 75.9951 37.2207L75.585 37.5625C75.266 38.6107 75.1064 39.4766 75.1064 40.1602C75.1064 42.0742 75.8242 43.0312 77.2598 43.0312C79.0371 43.0312 80.974 41.5615 83.0703 38.6221C83.526 38.1208 83.8109 37.8701 83.9248 37.8701C84.0615 37.8701 84.1299 37.9385 84.1299 38.0752Z" fill="#F2EEB1"/>
<path d="M55.7607 14.0469C55.7607 14.2975 55.3392 14.9014 54.4961 15.8584C52.1719 18.5244 49.973 19.8574 47.8994 19.8574C46.5778 19.8574 45.4954 19.4017 44.6523 18.4902C43.832 17.556 43.4219 16.3369 43.4219 14.833C43.4219 13.557 44.1738 11.4948 45.6777 8.64648C46.3841 7.32487 46.7373 6.23112 46.7373 5.36523C46.7373 4.22591 46.0993 3.25749 44.8232 2.45996C43.57 1.63965 42.0319 1.22949 40.209 1.22949C34.9909 1.22949 30.1488 3.2347 25.6826 7.24512C21.2393 11.2555 19.0176 15.5964 19.0176 20.2676C19.0176 22.6374 19.7581 24.5742 21.2393 26.0781C22.7432 27.582 24.68 28.334 27.0498 28.334C29.6247 28.334 32.2109 27.3997 34.8086 25.5312C37.429 23.64 39.2747 21.3727 40.3457 18.7295C40.4141 18.5016 40.5052 18.3877 40.6191 18.3877C40.8242 18.3877 40.9268 18.5016 40.9268 18.7295C40.9268 19.208 40.528 20.0625 39.7305 21.293C38.9329 22.5007 38.1126 23.5146 37.2695 24.335C34.1934 27.3656 30.7412 28.8809 26.9131 28.8809C24.3154 28.8809 22.2305 28.0833 20.6582 26.4883C19.0859 24.8932 18.2998 22.7741 18.2998 20.1309C18.2998 15.3229 20.6126 10.8682 25.2383 6.7666C29.8867 2.66504 34.9225 0.614258 40.3457 0.614258C42.7383 0.614258 44.6068 1.20671 45.9512 2.3916C47.3184 3.5765 48.002 5.20573 48.002 7.2793C48.002 8.82878 47.4551 10.6631 46.3613 12.7822C45.3815 14.7191 44.8916 16.0293 44.8916 16.7129C44.8916 18.3991 45.8942 19.2422 47.8994 19.2422C50.1781 19.2422 52.5365 17.556 54.9746 14.1836C55.1797 13.9102 55.3506 13.7734 55.4873 13.7734C55.6696 13.7734 55.7607 13.8646 55.7607 14.0469ZM92.3672 7.82617C92.3672 8.23633 92.1279 8.44141 91.6494 8.44141C91.4443 8.44141 90.681 8.30469 89.3594 8.03125C86.9212 7.52995 84.8932 7.2793 83.2754 7.2793C79.6068 8.39583 76.3597 10.5605 73.5342 13.7734C70.7314 16.9863 67.5299 22.193 63.9297 29.3936C58.4154 40.445 51.3516 46.9733 42.7383 48.9785C44.5384 49.252 46.0993 49.3887 47.4209 49.3887C51.6136 49.3887 55.1341 48.0443 57.9824 45.3555C60.7396 42.7578 63.0296 40.0007 64.8525 37.084C65.0576 36.765 65.2171 36.6055 65.3311 36.6055C65.4678 36.6055 65.5475 36.651 65.5703 36.7422C65.5703 37.084 64.2601 38.8499 61.6396 42.04C59.2015 45.0251 56.9798 47.0872 54.9746 48.2266C52.9694 49.3431 50.5199 49.9014 47.626 49.9014C45.9626 49.9014 43.9346 49.6621 41.542 49.1836C40.0837 49.6621 38.4089 49.9014 36.5176 49.9014C35.196 49.9014 34.5352 49.6621 34.5352 49.1836C34.5352 48.6367 35.4238 48.3633 37.2012 48.3633C38.4544 48.3633 39.9014 48.4772 41.542 48.7051C45.0739 47.862 47.7399 46.472 49.54 44.5352C51.363 42.5983 54.8607 37.3574 60.0332 28.8125H46.874C41.2913 34.6914 36.9733 38.8727 33.9199 41.3564C26.7878 47.1442 20.0658 50.0381 13.7539 50.0381C10.1536 50.0381 7.08887 49.195 4.55957 47.5088C2.05306 45.8226 0.799805 43.7718 0.799805 41.3564C0.799805 40.1032 1.17578 39.0322 1.92773 38.1436C2.70247 37.2549 3.63672 36.8105 4.73047 36.8105C6.21159 36.8105 6.95215 37.5283 6.95215 38.9639C6.95215 39.7158 6.6901 40.3652 6.16602 40.9121C5.66471 41.4362 5.07227 41.6982 4.38867 41.6982C3.31771 41.6982 2.78223 41.1855 2.78223 40.1602L2.85059 39.4766C2.89616 39.3854 2.91895 39.2601 2.91895 39.1006C2.91895 38.8727 2.81641 38.7588 2.61133 38.7588C2.38346 38.7588 2.1556 39.0436 1.92773 39.6133C1.69987 40.1829 1.58594 40.764 1.58594 41.3564C1.58594 43.5895 2.75944 45.4808 5.10645 47.0303C7.45345 48.557 10.3359 49.3203 13.7539 49.3203C18.653 49.3203 24.042 46.9163 29.9209 42.1084C31.2653 41.0374 32.7578 39.6247 34.3984 37.8701C37.6569 34.4521 40.2546 31.7861 42.1914 29.8721L43.2168 28.8125H36.5859L36.9961 28.1973C39.1836 28.1973 41.4281 28.2201 43.7295 28.2656C50.4059 20.8372 56.8773 15.4141 63.1436 11.9961C69.4326 8.55534 76.0749 6.81217 83.0703 6.7666C84.6882 6.44759 86.2035 6.28809 87.6162 6.28809C90.7835 6.28809 92.3672 6.80078 92.3672 7.82617ZM81.5322 7.41602C75.585 7.71224 70.0706 9.42122 64.9893 12.543C59.9079 15.6647 54.0518 20.9056 47.4209 28.2656H60.375C63.2917 23.1842 66.8122 18.627 70.9365 14.5938C74.9925 10.5833 78.5244 8.19076 81.5322 7.41602Z" fill="#F2EEB1"/>
</svg>
