<svg width="186" height="66" viewBox="0 0 186 66" fill="none" xmlns="http://www.w3.org/2000/svg">
<path d="M185.604 30.2139L185.331 30.7266H180.854L173.231 43.749C172.297 45.3213 171.83 46.5745 171.83 47.5088C171.83 48.5342 172.366 49.0469 173.437 49.0469C175.51 49.0469 179.008 45.4352 183.93 38.2119C184.089 37.984 184.226 37.8701 184.34 37.8701C184.477 37.8701 184.545 37.9385 184.545 38.0752C184.522 38.1436 184.408 38.3258 184.203 38.6221L182.733 40.6387C178.45 46.5859 175.225 49.5596 173.061 49.5596C171.99 49.5596 171.09 49.1722 170.36 48.3975C169.654 47.6227 169.301 46.6543 169.301 45.4922C169.301 44.125 169.905 42.416 171.112 40.3652L176.854 30.7266H173.368L173.71 30.2139H177.128L181.127 23.583C181.811 23.7653 182.46 23.8564 183.075 23.8564C183.713 23.8564 184.374 23.7653 185.058 23.583L181.127 30.2139H185.604Z" fill="#F2EEB1"/>
<path d="M170.873 24.7793C170.873 25.6908 169.449 27.5023 166.601 30.2139C166.464 30.9202 166.396 31.5355 166.396 32.0596C166.396 33.3812 166.999 35.4775 168.207 38.3486C168.822 39.7842 169.13 40.9919 169.13 41.9717C169.13 44.0225 168.127 45.7998 166.122 47.3037C164.14 48.8076 161.781 49.5596 159.047 49.5596C157.497 49.5596 156.256 49.1266 155.321 48.2607C154.41 47.3721 153.954 46.1872 153.954 44.7061C153.954 42.9971 154.558 41.3337 155.766 39.7158C156.996 38.098 158.261 37.2891 159.56 37.2891C159.787 37.2891 159.993 37.3346 160.175 37.4258L162.909 34.0762C163.729 33.0964 164.823 31.7406 166.19 30.0088C166.578 28.4137 167.17 27.0465 167.968 25.9072C168.765 24.7679 169.551 24.1982 170.326 24.1982C170.691 24.1982 170.873 24.3919 170.873 24.7793ZM166.122 38.2803C166.122 37.5967 166.099 36.9245 166.054 36.2637C166.008 35.5801 165.985 34.6117 165.985 33.3584C165.985 32.333 166.031 31.4785 166.122 30.7949C164.846 32.4128 163 34.6914 160.585 37.6309C161.018 37.9954 161.234 38.4398 161.234 38.9639C161.234 40.3083 160.129 41.2197 157.919 41.6982C157.03 41.9033 156.256 42.3932 155.595 43.168C154.957 43.9199 154.638 44.7174 154.638 45.5605C154.638 46.472 154.968 47.2354 155.629 47.8506C156.29 48.4658 157.11 48.7734 158.09 48.7734C160.004 48.7734 161.815 47.6683 163.524 45.458C165.256 43.2249 166.122 40.8324 166.122 38.2803Z" fill="#F2EEB1"/>
<path d="M159.32 38.0752C159.32 38.1436 159.115 38.4398 158.705 38.9639L157.235 40.8096C152.519 46.6429 148.474 49.5596 145.102 49.5596C143.507 49.5596 142.162 48.9899 141.068 47.8506C139.997 46.6885 139.462 45.2415 139.462 43.5098C139.462 39.4082 142.322 35.7965 148.041 32.6748C151.049 31.0342 153.498 30.2139 155.39 30.2139C156.21 30.2139 156.905 30.4645 157.475 30.9658C158.067 31.4443 158.363 32.0368 158.363 32.7432C158.363 34.3838 157.292 35.7852 155.15 36.9473C153.008 38.0866 149.431 39.1576 144.418 40.1602C142.868 42.5072 142.094 44.4668 142.094 46.0391C142.094 47.9987 143.153 48.9785 145.272 48.9785C148.873 48.9785 153.282 45.458 158.5 38.417C158.773 38.0524 159.001 37.8701 159.184 37.8701C159.275 37.8929 159.32 37.9613 159.32 38.0752ZM156.449 31.752C156.449 31.0228 156.05 30.6582 155.253 30.6582C154.045 30.6582 152.45 31.5013 150.468 33.1875C148.508 34.8509 146.583 37.0156 144.691 39.6816C147.973 38.8385 150.753 37.6536 153.031 36.127C155.31 34.5775 156.449 33.1191 156.449 31.752Z" fill="#F2EEB1"/>
<path d="M155.971 13.5684C155.971 15.5964 154.535 18.1484 151.664 21.2246C148.793 24.278 145.033 27.2744 140.385 30.2139H146.264L145.956 30.7266H140.009L137.206 36.1611C133.765 42.8831 130.826 47.9417 128.388 51.3369C125.95 54.7549 123.135 57.7969 119.945 60.4629C115.548 64.1087 111.457 65.9316 107.675 65.9316C105.989 65.9316 105.146 65.6924 105.146 65.2139C105.146 64.986 105.271 64.8721 105.521 64.8721C105.704 64.8721 105.84 64.8949 105.932 64.9404C106.752 65.1683 107.527 65.2822 108.256 65.2822C111.332 65.2822 114.431 63.9036 117.553 61.1465C119.467 59.4603 121.142 57.4779 122.577 55.1992C123.762 53.3763 126.565 48.4089 130.985 40.2969L136.249 30.7266H132.592L132.865 30.2139H136.591C139.507 25.2692 142.732 20.9967 146.264 17.3965C149.796 13.7734 152.519 11.9619 154.433 11.9619C155.458 11.9619 155.971 12.4974 155.971 13.5684ZM155.561 13.5C155.561 12.748 155.185 12.3721 154.433 12.3721C152.701 12.3721 150.342 14.3545 147.357 18.3193C145.876 20.3245 143.643 24.0615 140.658 29.5303C144.395 26.9326 147.813 23.9704 150.912 20.6436C154.011 17.3167 155.561 14.9355 155.561 13.5Z" fill="#F2EEB1"/>
<path d="M132.25 23.9248C132.25 24.7223 131.908 25.4743 131.225 26.1807C130.564 26.8643 129.835 27.2061 129.037 27.2061C128.012 27.2061 127.499 26.6934 127.499 25.668C127.499 24.916 127.852 24.1982 128.559 23.5146C129.265 22.8083 130.006 22.4551 130.78 22.4551C131.76 22.4551 132.25 22.945 132.25 23.9248ZM132.729 38.0752C132.706 38.1436 132.592 38.3258 132.387 38.6221L130.917 40.6387C126.633 46.5859 123.363 49.5596 121.107 49.5596C120.036 49.5596 119.136 49.1836 118.407 48.4316C117.701 47.6569 117.348 46.6999 117.348 45.5605C117.348 44.2389 118.134 42.2337 119.706 39.5449L125.038 30.4873C125.744 30.6468 126.303 30.7266 126.713 30.7266C127.328 30.7266 128.194 30.6468 129.311 30.4873L121.552 43.2363C120.435 45.082 119.877 46.5062 119.877 47.5088C119.877 48.5342 120.412 49.0469 121.483 49.0469C123.511 49.0469 127.077 45.4352 132.182 38.2119C132.296 37.984 132.41 37.8701 132.523 37.8701C132.66 37.8701 132.729 37.9385 132.729 38.0752Z" fill="#F2EEB1"/>
<path d="M121.005 38.0752C121.005 38.5537 119.353 40.764 116.049 44.7061C113.337 47.9417 111.207 49.5596 109.657 49.5596C108.632 49.5596 107.766 49.1608 107.06 48.3633C106.376 47.5658 106.034 46.5859 106.034 45.4238C106.034 44.3984 106.239 43.4528 106.649 42.5869C107.082 41.6982 108.188 39.9551 109.965 37.3574C111.811 34.623 112.733 32.8799 112.733 32.1279C112.733 31.1937 112.243 30.7266 111.264 30.7266C107.937 30.7266 102.81 36.9017 95.8828 49.252C94.7663 49.1608 94.0941 49.1152 93.8662 49.1152C93.0687 49.1152 92.3167 49.1608 91.6104 49.252L96.9424 40.8096C99.973 35.9788 101.488 32.9596 101.488 31.752C101.488 31.0684 101.203 30.7266 100.634 30.7266C99.4717 30.7266 97.1816 33.1761 93.7637 38.0752C93.5586 38.3714 93.3991 38.5309 93.2852 38.5537C93.1712 38.5537 93.1029 38.4854 93.0801 38.3486C93.1029 38.2347 93.1484 38.1436 93.2168 38.0752L93.8662 37.2207C97.3525 32.5495 99.6995 30.2139 100.907 30.2139C101.682 30.2139 102.343 30.5671 102.89 31.2734C103.437 31.9798 103.71 32.8229 103.71 33.8027C103.71 35.2611 102.855 37.2891 101.146 39.8867C103.835 36.1725 105.897 33.6318 107.333 32.2646C108.791 30.8975 110.136 30.2139 111.366 30.2139C112.369 30.2139 113.212 30.624 113.896 31.4443C114.579 32.2646 114.921 33.2786 114.921 34.4863C114.921 36.013 113.873 38.3486 111.776 41.4932C109.634 44.7061 108.563 46.7568 108.563 47.6455C108.563 48.5798 109.031 49.0469 109.965 49.0469C111.993 49.0469 115.491 45.4352 120.458 38.2119C120.572 37.984 120.686 37.8701 120.8 37.8701C120.937 37.8701 121.005 37.9385 121.005 38.0752Z" fill="#F2EEB1"/>
<path d="M93.5244 38.0752C93.5244 38.5537 91.861 40.764 88.5342 44.7061C85.8454 47.9417 83.7262 49.5596 82.1768 49.5596C81.1286 49.5596 80.2741 49.1722 79.6133 48.3975C78.9525 47.5999 78.6221 46.6087 78.6221 45.4238C78.6221 44.1934 78.9867 42.8604 79.7158 41.4248C77.4372 44.6149 75.694 46.7682 74.4863 47.8848C73.2786 49.0013 72.1051 49.5596 70.9658 49.5596C69.7581 49.5596 68.7441 49.0469 67.9238 48.0215C67.1035 46.9733 66.6934 45.6631 66.6934 44.0908C66.6934 39.7158 69.7809 35.8421 75.9561 32.4697C78.6676 30.9658 80.8551 30.2139 82.5186 30.2139C83.9313 30.2139 84.6377 30.8975 84.6377 32.2646C84.6377 32.652 84.5465 33.1647 84.3643 33.8027L86.1074 30.4873C86.791 30.6468 87.3949 30.7266 87.9189 30.7266C88.5342 30.7266 89.3317 30.6468 90.3115 30.4873L84.2617 40.502C82.1654 44.0111 81.1172 46.3239 81.1172 47.4404C81.1172 48.5114 81.5615 49.0469 82.4502 49.0469C83.3617 49.0469 84.82 48.0101 86.8252 45.9365C88.8304 43.8402 90.8698 41.2653 92.9434 38.2119C93.0801 37.984 93.2054 37.8701 93.3193 37.8701C93.4561 37.8701 93.5244 37.9385 93.5244 38.0752ZM84.125 32.4014C84.125 31.2848 83.6123 30.7266 82.5869 30.7266C80.4906 30.7266 77.7334 32.7773 74.3154 36.8789C70.9202 40.9805 69.2227 44.2959 69.2227 46.8252C69.2227 48.3063 69.8835 49.0469 71.2051 49.0469C72.7773 49.0469 75.5003 46.4378 79.374 41.2197C82.5413 36.9359 84.125 33.9964 84.125 32.4014Z" fill="#F2EEB1"/>
<path d="M83.4756 5.36523C83.4756 5.47917 83.168 5.69564 82.5527 6.01465C79.8867 7.42741 77.5397 9.4668 75.5117 12.1328C73.4837 14.7988 71.1709 18.889 68.5732 24.4033C64.7907 32.4242 61.4069 38.1891 58.4219 41.6982C55.4596 45.2074 51.791 47.7253 47.416 49.252C49.444 49.5482 51.0049 49.6963 52.0986 49.6963C55.6077 49.6963 58.4105 48.9557 60.5068 47.4746C62.626 45.9707 65.611 42.6211 69.4619 37.4258C69.7126 37.1068 69.9062 36.9473 70.043 36.9473C70.1341 36.9701 70.1797 37.0384 70.1797 37.1523C70.1797 37.3802 69.1087 38.8499 66.9668 41.5615C64.3464 44.8883 61.9993 47.1556 59.9258 48.3633C57.875 49.571 55.3457 50.1748 52.3379 50.1748C50.4694 50.1748 48.4528 49.9697 46.2881 49.5596C44.7614 50.0609 43.2005 50.3115 41.6055 50.3115C40.3978 50.3115 39.7939 50.0837 39.7939 49.6279C39.7939 49.0583 40.637 48.7734 42.3232 48.7734C43.2575 48.7734 44.488 48.8874 46.0146 49.1152H46.459C48.8743 48.2493 50.9137 46.8822 52.5771 45.0137C54.2633 43.1224 56.2799 39.9437 58.627 35.4775C63.3893 26.4313 67.1605 20.0283 69.9404 16.2686C72.6292 12.6683 75.8535 9.59212 79.6133 7.04004C81.5046 5.78678 82.7236 5.16016 83.2705 5.16016C83.4072 5.16016 83.4756 5.22852 83.4756 5.36523ZM99.916 14.6279C99.916 15.5166 99.8135 16.3825 99.6084 17.2256C99.4261 18.0459 99.2324 18.4561 99.0273 18.4561C98.8678 18.4561 98.7881 18.3877 98.7881 18.251C98.8109 18.1598 98.8337 18.0687 98.8564 17.9775C99.1982 17.18 99.3691 16.109 99.3691 14.7646C99.3691 11.734 98.1615 9.17057 95.7461 7.07422C93.3307 4.95508 90.3799 3.89551 86.8936 3.89551C81.2653 3.89551 75.5003 6.65267 69.5986 12.167C67.2744 14.3317 65.2692 16.4395 63.583 18.4902C61.9652 20.4271 58.7979 24.5286 54.0811 30.7949C47.1084 40.0234 41.389 45.7884 36.9229 48.0898C34.9176 49.1152 33.6302 49.6279 33.0605 49.6279C32.9238 49.6279 32.8555 49.5482 32.8555 49.3887C32.8783 49.3659 33.1175 49.1836 33.5732 48.8418C35.8063 47.1784 37.5837 44.9453 38.9053 42.1426C40.1357 39.5677 42.346 33.4723 45.5361 23.8564C48.2477 15.6533 51.3467 9.77441 54.833 6.21973C54.9697 6.08301 55.0381 5.96908 55.0381 5.87793C54.7419 5.78678 54.0697 6.27669 53.0215 7.34766C49.6263 10.7201 45.6387 16.7812 41.0586 25.5312C38.2331 30.9089 35.7493 34.9876 33.6074 37.7676C31.4883 40.5247 28.959 42.9515 26.0195 45.0479C21.1888 48.5114 16.3353 50.2432 11.459 50.2432C8.29167 50.2432 5.7054 49.5824 3.7002 48.2607C1.71777 46.9163 0.726562 45.196 0.726562 43.0996C0.726562 41.9147 1.06836 40.9235 1.75195 40.126C2.43555 39.3057 3.29004 38.8955 4.31543 38.8955C5.79655 38.8955 6.53711 39.6247 6.53711 41.083C6.53711 41.835 6.29785 42.4844 5.81934 43.0312C5.34082 43.5553 4.75977 43.8174 4.07617 43.8174C2.95964 43.8174 2.40137 43.2021 2.40137 41.9717C2.40137 41.516 2.31022 41.2881 2.12793 41.2881C1.76335 41.2881 1.58105 41.9147 1.58105 43.168C1.58105 45.0365 2.50391 46.5745 4.34961 47.7822C6.2181 48.9671 8.61068 49.5596 11.5273 49.5596C17.4746 49.5596 23.3079 46.472 29.0273 40.2969C31.3288 37.8132 33.277 35.3978 34.8721 33.0508C36.4671 30.681 39.6458 25.5426 44.4082 17.6357C46.4134 14.2861 48.6693 11.2441 51.1758 8.50977C53.7051 5.77539 55.5052 4.4082 56.5762 4.4082C56.7357 4.4082 56.8154 4.47656 56.8154 4.61328C56.7926 4.70443 56.7471 4.79557 56.6787 4.88672C54.5596 7.21094 52.6455 11.5973 50.9365 18.0459C48.3844 27.5023 45.9805 34.3838 43.7246 38.6904C41.4915 42.8831 38.6204 46.0618 35.1113 48.2266C35.0202 48.2493 34.9746 48.2949 34.9746 48.3633C34.9974 48.3861 35.043 48.4089 35.1113 48.4316C35.6354 48.4316 36.9115 47.7025 38.9395 46.2441C41.4004 44.5124 43.6676 42.4388 45.7412 40.0234C47.8148 37.6081 51.5745 32.6634 57.0205 25.1895C60.8714 19.903 63.9248 16.0407 66.1807 13.6025C68.4593 11.1416 70.9772 8.97689 73.7344 7.1084C78.041 4.21452 82.3818 2.76758 86.7568 2.76758C90.585 2.76758 93.7295 3.88411 96.1904 6.11719C98.6742 8.35026 99.916 11.1872 99.916 14.6279ZM45.7412 12.7139C45.7412 13.2152 45.0918 14.195 43.793 15.6533C41.8333 17.8636 39.9421 18.9688 38.1191 18.9688C36.8659 18.9688 35.8063 18.513 34.9404 17.6016C34.0745 16.6673 33.6416 15.528 33.6416 14.1836C33.6416 12.8848 34.1087 11.3239 35.043 9.50098C36.2051 7.22233 36.7861 5.61589 36.7861 4.68164C36.7861 3.51953 36.2393 2.58529 35.1455 1.87891C34.0518 1.17253 32.6162 0.819336 30.8389 0.819336C25.7575 0.819336 20.9837 2.87012 16.5176 6.97168C12.0514 11.0732 9.81836 15.4368 9.81836 20.0625C9.81836 22.4551 10.5475 24.4147 12.0059 25.9414C13.487 27.4453 15.3783 28.1973 17.6797 28.1973C19.7305 28.1973 21.804 27.6162 23.9004 26.4541C26.0195 25.2692 27.7285 23.7539 29.0273 21.9082C29.1185 21.7943 29.1868 21.7373 29.2324 21.7373C29.4147 21.7373 29.5059 21.8398 29.5059 22.0449C29.5059 22.5007 28.7767 23.3779 27.3184 24.6768C24.3105 27.3883 21.0521 28.7441 17.543 28.7441C15.082 28.7441 13.0768 27.9466 11.5273 26.3516C9.97786 24.7565 9.20312 22.6829 9.20312 20.1309C9.20312 15.1862 11.4818 10.6403 16.0391 6.49316C20.6191 2.34603 25.6208 0.272461 31.0439 0.272461C33.277 0.272461 35.0202 0.830729 36.2734 1.94727C37.5495 3.0638 38.1875 4.60189 38.1875 6.56152C38.1875 8.01986 37.4583 10.2415 36 13.2266C35.4987 14.2747 35.248 15.1064 35.248 15.7217C35.248 17.4535 36.1823 18.3193 38.0508 18.3193C39.1673 18.3193 40.4092 17.7839 41.7764 16.7129C43.1663 15.6419 44.2829 14.3317 45.126 12.7822C45.2399 12.5544 45.3538 12.4404 45.4678 12.4404C45.6501 12.4404 45.7412 12.5316 45.7412 12.7139Z" fill="#F2EEB1"/>
</svg>
