<svg width="122" height="49" viewBox="0 0 122 49" fill="none" xmlns="http://www.w3.org/2000/svg">
<path d="M121.201 21.7793C121.201 22.6908 119.777 24.5023 116.929 27.2139C116.792 27.9202 116.724 28.5355 116.724 29.0596C116.724 30.3812 117.327 32.4775 118.535 35.3486C119.15 36.7842 119.458 37.9919 119.458 38.9717C119.458 41.0225 118.455 42.7998 116.45 44.3037C114.468 45.8076 112.109 46.5596 109.375 46.5596C107.826 46.5596 106.584 46.1266 105.649 45.2607C104.738 44.3721 104.282 43.1872 104.282 41.7061C104.282 39.9971 104.886 38.3337 106.094 36.7158C107.324 35.098 108.589 34.2891 109.888 34.2891C110.116 34.2891 110.321 34.3346 110.503 34.4258L113.237 31.0762C114.058 30.0964 115.151 28.7406 116.519 27.0088C116.906 25.4137 117.498 24.0465 118.296 22.9072C119.093 21.7679 119.88 21.1982 120.654 21.1982C121.019 21.1982 121.201 21.3919 121.201 21.7793ZM116.45 35.2803C116.45 34.5967 116.427 33.9245 116.382 33.2637C116.336 32.5801 116.313 31.6117 116.313 30.3584C116.313 29.333 116.359 28.4785 116.45 27.7949C115.174 29.4128 113.328 31.6914 110.913 34.6309C111.346 34.9954 111.562 35.4398 111.562 35.9639C111.562 37.3083 110.457 38.2197 108.247 38.6982C107.358 38.9033 106.584 39.3932 105.923 40.168C105.285 40.9199 104.966 41.7174 104.966 42.5605C104.966 43.472 105.296 44.2354 105.957 44.8506C106.618 45.4658 107.438 45.7734 108.418 45.7734C110.332 45.7734 112.144 44.6683 113.853 42.458C115.584 40.2249 116.45 37.8324 116.45 35.2803Z" fill="#F2EEB1"/>
<path d="M109.546 35.0752C109.546 35.5537 107.882 37.764 104.556 41.7061C101.867 44.9417 99.7477 46.5596 98.1982 46.5596C97.1501 46.5596 96.2956 46.1722 95.6348 45.3975C94.974 44.5999 94.6436 43.6087 94.6436 42.4238C94.6436 41.1934 95.0081 39.8604 95.7373 38.4248C93.4587 41.6149 91.7155 43.7682 90.5078 44.8848C89.3001 46.0013 88.1266 46.5596 86.9873 46.5596C85.7796 46.5596 84.7656 46.0469 83.9453 45.0215C83.125 43.9733 82.7148 42.6631 82.7148 41.0908C82.7148 36.7158 85.8024 32.8421 91.9775 29.4697C94.6891 27.9658 96.8766 27.2139 98.54 27.2139C99.9528 27.2139 100.659 27.8975 100.659 29.2646C100.659 29.652 100.568 30.1647 100.386 30.8027L102.129 27.4873C102.812 27.6468 103.416 27.7266 103.94 27.7266C104.556 27.7266 105.353 27.6468 106.333 27.4873L100.283 37.502C98.1868 41.0111 97.1387 43.3239 97.1387 44.4404C97.1387 45.5114 97.583 46.0469 98.4717 46.0469C99.3831 46.0469 100.841 45.0101 102.847 42.9365C104.852 40.8402 106.891 38.2653 108.965 35.2119C109.102 34.984 109.227 34.8701 109.341 34.8701C109.478 34.8701 109.546 34.9385 109.546 35.0752ZM100.146 29.4014C100.146 28.2848 99.6338 27.7266 98.6084 27.7266C96.512 27.7266 93.7549 29.7773 90.3369 33.8789C86.9417 37.9805 85.2441 41.2959 85.2441 43.8252C85.2441 45.3063 85.9049 46.0469 87.2266 46.0469C88.7988 46.0469 91.5218 43.4378 95.3955 38.2197C98.5628 33.9359 100.146 30.9964 100.146 29.4014Z" fill="#F2EEB1"/>
<path d="M85.4834 35.0752C85.4834 35.5537 83.8314 37.764 80.5273 41.7061C77.8158 44.9417 75.6852 46.5596 74.1357 46.5596C73.1104 46.5596 72.2445 46.1608 71.5381 45.3633C70.8545 44.5658 70.5127 43.5859 70.5127 42.4238C70.5127 41.3984 70.7178 40.4528 71.1279 39.5869C71.5609 38.6982 72.666 36.9551 74.4434 34.3574C76.2891 31.623 77.2119 29.8799 77.2119 29.1279C77.2119 28.1937 76.722 27.7266 75.7422 27.7266C72.4154 27.7266 67.2884 33.9017 60.3613 46.252C59.2448 46.1608 58.5726 46.1152 58.3447 46.1152C57.5472 46.1152 56.7952 46.1608 56.0889 46.252L61.4209 37.8096C64.4515 32.9788 65.9668 29.9596 65.9668 28.752C65.9668 28.0684 65.682 27.7266 65.1123 27.7266C63.9502 27.7266 61.6602 30.1761 58.2422 35.0752C58.0371 35.3714 57.8776 35.5309 57.7637 35.5537C57.6497 35.5537 57.5814 35.4854 57.5586 35.3486C57.5814 35.2347 57.627 35.1436 57.6953 35.0752L58.3447 34.2207C61.8311 29.5495 64.1781 27.2139 65.3857 27.2139C66.1605 27.2139 66.8213 27.5671 67.3682 28.2734C67.915 28.9798 68.1885 29.8229 68.1885 30.8027C68.1885 32.2611 67.334 34.2891 65.625 36.8867C68.3138 33.1725 70.376 30.6318 71.8115 29.2646C73.2699 27.8975 74.6143 27.2139 75.8447 27.2139C76.8473 27.2139 77.6904 27.624 78.374 28.4443C79.0576 29.2646 79.3994 30.2786 79.3994 31.4863C79.3994 33.013 78.3512 35.3486 76.2549 38.4932C74.113 41.7061 73.042 43.7568 73.042 44.6455C73.042 45.5798 73.5091 46.0469 74.4434 46.0469C76.4714 46.0469 79.9691 42.4352 84.9365 35.2119C85.0505 34.984 85.1644 34.8701 85.2783 34.8701C85.415 34.8701 85.4834 34.9385 85.4834 35.0752Z" fill="#F2EEB1"/>
<path d="M47.373 18.4639C47.373 21.9502 46.3932 25.5049 44.4336 29.1279C42.474 32.7282 39.7624 35.9867 36.2988 38.9033C32.972 41.7288 29.3945 43.9733 25.5664 45.6367C21.7611 47.2773 18.2633 48.0977 15.0732 48.0977C10.8805 48.0977 7.47396 46.6735 4.85352 43.8252C2.25586 40.9769 0.957031 37.2627 0.957031 32.6826C0.957031 28.4899 2.25586 24.2174 4.85352 19.8652C7.45117 15.513 10.9603 11.7646 15.3809 8.62012C18.5254 6.34147 22.0573 4.49577 25.9766 3.08301C29.9186 1.67025 33.4733 0.963867 36.6406 0.963867C39.7852 0.963867 42.2917 1.72721 44.1602 3.25391C46.0514 4.7806 46.9971 6.81999 46.9971 9.37207C46.9971 10.4202 46.8148 11.6621 46.4502 13.0977C47.0654 14.8978 47.373 16.6865 47.373 18.4639ZM46.4502 9.44043C46.4502 7.139 45.6413 5.2819 44.0234 3.86914C42.4056 2.45638 40.2751 1.75 37.6318 1.75C32.391 1.75 27.0931 3.49316 21.7383 6.97949C16.6113 10.3291 12.4072 14.6243 9.12598 19.8652C5.68522 25.2884 3.96484 30.6546 3.96484 35.9639C3.96484 39.3363 4.95605 42.082 6.93848 44.2012C8.94368 46.3203 11.5186 47.3799 14.6631 47.3799C21.0433 47.3799 27.4577 44.0986 33.9062 37.5361C40.3548 30.9736 43.9323 24.1035 44.6387 16.9258C43.8639 18.293 42.474 19.9108 40.4688 21.7793C38.4863 23.625 37.1419 24.5479 36.4355 24.5479C36.2533 24.5479 36.1621 24.4567 36.1621 24.2744C36.1621 24.1605 36.3444 24.001 36.709 23.7959C40.4004 21.7451 43.0664 19.0335 44.707 15.6611C44.707 12.8128 43.8753 10.557 42.2119 8.89355C40.5485 7.20736 38.2926 6.36426 35.4443 6.36426C30.1579 6.36426 24.7233 9.18978 19.1406 14.8408C13.5807 20.4691 10.8008 25.972 10.8008 31.3496C10.8008 33.4915 11.3021 35.2347 12.3047 36.5791C13.3073 37.9007 14.6289 38.5615 16.2695 38.5615C17.0443 38.5615 17.8304 38.3337 18.6279 37.8779C19.4482 37.4222 19.8584 36.9779 19.8584 36.5449C19.8356 36.4082 19.79 36.3398 19.7217 36.3398C19.7217 36.3398 19.6191 36.3854 19.4141 36.4766C19.1406 36.75 18.6963 36.8867 18.0811 36.8867C17.0101 36.8867 16.4746 36.2601 16.4746 35.0068C16.4746 34.2321 16.7367 33.5827 17.2607 33.0586C17.7848 32.5345 18.4115 32.2725 19.1406 32.2725C20.599 32.2725 21.3281 33.0814 21.3281 34.6992C21.3281 35.9069 20.804 36.9551 19.7559 37.8438C18.7305 38.7324 17.5228 39.1768 16.1328 39.1768C14.1732 39.1768 12.5326 38.3792 11.2109 36.7842C9.91211 35.1663 9.2627 33.1497 9.2627 30.7344C9.2627 25.1745 12.1566 19.6374 17.9443 14.123C23.7549 8.58594 29.5654 5.81738 35.376 5.81738C37.8597 5.81738 40.0814 6.40983 42.041 7.59473C44.0007 8.75684 45.3337 10.2835 46.04 12.1748C46.3135 11.2633 46.4502 10.3519 46.4502 9.44043Z" fill="#F2EEB1"/>
</svg>
