<svg width="265" height="76" viewBox="0 0 265 76" fill="none" xmlns="http://www.w3.org/2000/svg">
<path d="M264.277 42.0752C264.277 42.1436 264.072 42.4398 263.662 42.9639L262.192 44.8096C257.476 50.6429 253.431 53.5596 250.059 53.5596C248.464 53.5596 247.119 52.9899 246.025 51.8506C244.954 50.6885 244.419 49.2415 244.419 47.5098C244.419 43.4082 247.279 39.7965 252.998 36.6748C256.006 35.0342 258.455 34.2139 260.347 34.2139C261.167 34.2139 261.862 34.4645 262.432 34.9658C263.024 35.4443 263.32 36.0368 263.32 36.7432C263.32 38.3838 262.249 39.7852 260.107 40.9473C257.965 42.0866 254.388 43.1576 249.375 44.1602C247.826 46.5072 247.051 48.4668 247.051 50.0391C247.051 51.9987 248.11 52.9785 250.229 52.9785C253.83 52.9785 258.239 49.458 263.457 42.417C263.73 42.0524 263.958 41.8701 264.141 41.8701C264.232 41.8929 264.277 41.9613 264.277 42.0752ZM261.406 35.752C261.406 35.0228 261.007 34.6582 260.21 34.6582C259.002 34.6582 257.407 35.5013 255.425 37.1875C253.465 38.8509 251.54 41.0156 249.648 43.6816C252.93 42.8385 255.71 41.6536 257.988 40.127C260.267 38.5775 261.406 37.1191 261.406 35.752Z" fill="#F2EEB1"/>
<path d="M246.504 27.9248C246.504 28.7223 246.162 29.4743 245.479 30.1807C244.818 30.8643 244.089 31.2061 243.291 31.2061C242.266 31.2061 241.753 30.6934 241.753 29.668C241.753 28.916 242.106 28.1982 242.812 27.5146C243.519 26.8083 244.259 26.4551 245.034 26.4551C246.014 26.4551 246.504 26.945 246.504 27.9248ZM246.982 42.0752C246.96 42.1436 246.846 42.3258 246.641 42.6221L245.171 44.6387C240.887 50.5859 237.617 53.5596 235.361 53.5596C234.29 53.5596 233.39 53.1836 232.661 52.4316C231.955 51.6569 231.602 50.6999 231.602 49.5605C231.602 48.2389 232.388 46.2337 233.96 43.5449L239.292 34.4873C239.998 34.6468 240.557 34.7266 240.967 34.7266C241.582 34.7266 242.448 34.6468 243.564 34.4873L235.806 47.2363C234.689 49.082 234.131 50.5062 234.131 51.5088C234.131 52.5342 234.666 53.0469 235.737 53.0469C237.765 53.0469 241.331 49.4352 246.436 42.2119C246.549 41.984 246.663 41.8701 246.777 41.8701C246.914 41.8701 246.982 41.9385 246.982 42.0752Z" fill="#F2EEB1"/>
<path d="M235.327 42.0068C235.327 42.2575 234.598 43.1348 233.14 44.6387C231.18 46.7122 229.46 47.749 227.979 47.749C226.976 47.749 226.133 47.2021 225.449 46.1084C223.421 48.9111 221.769 50.8594 220.493 51.9531C219.217 53.0241 217.93 53.5596 216.631 53.5596C215.469 53.5596 214.5 53.1722 213.726 52.3975C212.951 51.5999 212.563 50.6315 212.563 49.4922C212.563 48.5352 212.871 47.3844 213.486 46.04C210.068 51.0531 207.38 53.5596 205.42 53.5596C204.44 53.5596 203.608 53.1608 202.925 52.3633C202.264 51.5658 201.934 50.6087 201.934 49.4922C201.934 48.1934 202.606 46.3932 203.95 44.0918L209.624 34.4873C210.535 34.6468 211.208 34.7266 211.641 34.7266C212.028 34.7266 212.78 34.6468 213.896 34.4873L206.138 47.168C204.907 49.1504 204.292 50.5973 204.292 51.5088C204.292 52.5342 204.759 53.0469 205.693 53.0469C206.719 53.0469 208.245 51.9076 210.273 49.6289C212.324 47.3503 214.352 44.502 216.357 41.084L220.186 34.4873C221.416 34.6012 222.191 34.6582 222.51 34.6582C223.307 34.6582 223.957 34.6012 224.458 34.4873L217.314 46.04C215.742 48.6149 214.956 50.3923 214.956 51.3721C214.956 52.4886 215.537 53.0469 216.699 53.0469C219.023 53.0469 221.849 50.5973 225.176 45.6982C225.039 44.8551 224.971 44.2285 224.971 43.8184C224.971 41.7904 225.597 39.6826 226.851 37.4951C228.127 35.3076 229.357 34.2139 230.542 34.2139C231.066 34.2139 231.328 34.5671 231.328 35.2734C231.328 37.1875 229.46 40.6852 225.723 45.7666C226.292 46.792 227.044 47.3047 227.979 47.3047C229.688 47.3047 231.784 45.7666 234.268 42.6904C234.723 42.1436 235.031 41.8701 235.19 41.8701C235.259 41.8701 235.304 41.9157 235.327 42.0068Z" fill="#F2EEB1"/>
<path d="M205.522 42.0752C205.522 42.5537 203.859 44.764 200.532 48.7061C197.843 51.9417 195.724 53.5596 194.175 53.5596C193.127 53.5596 192.272 53.1722 191.611 52.3975C190.951 51.5999 190.62 50.6087 190.62 49.4238C190.62 48.1934 190.985 46.8604 191.714 45.4248C189.435 48.6149 187.692 50.7682 186.484 51.8848C185.277 53.0013 184.103 53.5596 182.964 53.5596C181.756 53.5596 180.742 53.0469 179.922 52.0215C179.102 50.9733 178.691 49.6631 178.691 48.0908C178.691 43.7158 181.779 39.8421 187.954 36.4697C190.666 34.9658 192.853 34.2139 194.517 34.2139C195.929 34.2139 196.636 34.8975 196.636 36.2646C196.636 36.652 196.545 37.1647 196.362 37.8027L198.105 34.4873C198.789 34.6468 199.393 34.7266 199.917 34.7266C200.532 34.7266 201.33 34.6468 202.31 34.4873L196.26 44.502C194.163 48.0111 193.115 50.3239 193.115 51.4404C193.115 52.5114 193.56 53.0469 194.448 53.0469C195.36 53.0469 196.818 52.0101 198.823 49.9365C200.828 47.8402 202.868 45.2653 204.941 42.2119C205.078 41.984 205.203 41.8701 205.317 41.8701C205.454 41.8701 205.522 41.9385 205.522 42.0752ZM196.123 36.4014C196.123 35.2848 195.61 34.7266 194.585 34.7266C192.489 34.7266 189.731 36.7773 186.313 40.8789C182.918 44.9805 181.221 48.2959 181.221 50.8252C181.221 52.3063 181.882 53.0469 183.203 53.0469C184.775 53.0469 187.498 50.4378 191.372 45.2197C194.539 40.9359 196.123 37.9964 196.123 36.4014Z" fill="#F2EEB1"/>
<path d="M181.494 42.0752C181.494 42.2575 180.811 43.0892 179.443 44.5703C177.712 46.4844 176.082 47.4414 174.556 47.4414C172.824 47.4414 171.958 46.4388 171.958 44.4336C171.958 43.7956 172.095 42.9867 172.368 42.0068C170.933 43.2601 169.759 44.502 168.848 45.7324C167.959 46.9629 166.41 49.4694 164.199 53.252C162.992 53.1608 162.285 53.1152 162.08 53.1152C161.989 53.1152 161.294 53.1608 159.995 53.252L165.601 44.1602C168.403 39.6029 169.805 36.7773 169.805 35.6836C169.805 35.0456 169.543 34.7266 169.019 34.7266C167.743 34.7266 165.43 37.1761 162.08 42.0752C161.875 42.3942 161.693 42.5537 161.533 42.5537C161.442 42.5309 161.396 42.4626 161.396 42.3486C161.419 42.2347 161.465 42.1436 161.533 42.0752L162.148 41.2207C165.658 36.5495 168.039 34.2139 169.292 34.2139C171.115 34.2139 172.026 35.3874 172.026 37.7344C172.026 39.4889 171.092 41.8132 169.224 44.707C170.409 43.3398 171.536 42.2233 172.607 41.3574C173.473 39.3294 174.544 37.6318 175.82 36.2646C177.119 34.8975 178.281 34.2139 179.307 34.2139C180.013 34.2139 180.366 34.5215 180.366 35.1367C180.366 36.2305 178.783 37.7913 175.615 39.8193C175.114 40.1383 174.362 40.6055 173.359 41.2207L172.949 41.5625C172.63 42.6107 172.471 43.4766 172.471 44.1602C172.471 46.0742 173.188 47.0312 174.624 47.0312C176.401 47.0312 178.338 45.5615 180.435 42.6221C180.89 42.1208 181.175 41.8701 181.289 41.8701C181.426 41.8701 181.494 41.9385 181.494 42.0752Z" fill="#F2EEB1"/>
<path d="M159.688 39.6826C159.688 43.3968 157.375 46.7806 152.749 49.834C148.989 52.3177 146.05 53.5596 143.931 53.5596C142.472 53.5596 141.743 52.876 141.743 51.5088C141.743 51.0986 141.857 50.5404 142.085 49.834L128.994 71.6748C128.197 71.4925 127.547 71.4014 127.046 71.4014C126.294 71.4014 125.553 71.5381 124.824 71.8115L152.886 25.6689C153.501 25.874 154.105 25.9766 154.697 25.9766C155.312 25.9766 156.064 25.874 156.953 25.6689L146.802 42.0752C149.24 38.8395 151.006 36.7204 152.1 35.7178C153.216 34.7152 154.321 34.2139 155.415 34.2139C156.623 34.2139 157.637 34.738 158.457 35.7861C159.277 36.8343 159.688 38.1331 159.688 39.6826ZM157.158 36.9482C157.158 35.4671 156.497 34.7266 155.176 34.7266C153.512 34.7266 150.721 37.404 146.802 42.7588C143.771 46.9059 142.256 49.7542 142.256 51.3037C142.256 52.4658 142.791 53.0469 143.862 53.0469C145.959 53.0469 148.693 51.0075 152.065 46.9287C155.461 42.8271 157.158 39.5003 157.158 36.9482Z" fill="#F2EEB1"/>
<path d="M143.315 42.0752C143.315 42.417 142.062 43.9779 139.556 46.7578C136.776 49.8112 133.153 52.5684 128.687 55.0293L127.012 58.0371C123.708 63.9616 120.256 68.3708 116.655 71.2646C112.941 74.2497 109.717 75.7422 106.982 75.7422C106.048 75.7422 105.273 75.446 104.658 74.8535C104.02 74.2611 103.701 73.5319 103.701 72.666C103.701 68.0859 108.976 63.3464 119.526 58.4473C120.392 58.0143 121.691 57.4105 123.423 56.6357L123.936 56.3281L129.951 45.6299C127.581 48.8883 125.861 51.0303 124.79 52.0557C123.719 53.0583 122.637 53.5596 121.543 53.5596C120.609 53.5596 119.788 53.1608 119.082 52.3633C118.398 51.5658 118.057 50.6315 118.057 49.5605C118.057 48.2617 118.866 46.2337 120.483 43.4766L125.747 34.5898C126.271 34.681 126.875 34.7266 127.559 34.7266C128.151 34.7266 128.971 34.6468 130.02 34.4873L123.286 45.4248C121.372 48.5238 120.415 50.5518 120.415 51.5088C120.415 52.5342 120.882 53.0469 121.816 53.0469C124.277 53.0469 128.06 48.6833 133.164 39.9561L136.309 34.5898C136.833 34.681 137.471 34.7266 138.223 34.7266C138.838 34.7266 139.601 34.6468 140.513 34.4873C137.687 38.9762 133.859 45.5615 129.028 54.2432C131.808 52.8076 134.155 51.2581 136.069 49.5947C137.983 47.9085 140.125 45.5387 142.495 42.4854C142.814 42.0752 143.019 41.8701 143.11 41.8701C143.247 41.8701 143.315 41.9385 143.315 42.0752ZM123.594 56.9092C123.229 57.1143 121.942 57.7637 119.731 58.8574C109.364 64.0072 104.18 68.6328 104.18 72.7344C104.18 74.4434 105.137 75.2979 107.051 75.2979C109.466 75.2979 111.87 73.9876 114.263 71.3672C116.655 68.7467 119.618 64.1553 123.149 57.5928C123.149 57.5928 123.298 57.3649 123.594 56.9092Z" fill="#F2EEB1"/>
<path d="M169.224 0.957031C169.224 1.52669 168.87 1.81152 168.164 1.81152H167.686C166.979 1.72038 166.09 1.6748 165.02 1.6748C159.779 1.6748 153.455 4.0332 146.05 8.75C141.834 11.4388 138.302 14.196 135.454 17.0215C132.515 19.9154 127.559 25.6006 120.586 34.0771C112.155 44.3083 105.57 51.167 100.83 54.6533C99.2578 55.8154 98.3464 56.3965 98.0957 56.3965C97.9818 56.3965 97.9134 56.3509 97.8906 56.2598C97.8906 56.237 98.221 55.8952 98.8818 55.2344C101.776 52.2949 104.761 46.5755 107.837 38.0762C110.594 30.4883 112.77 24.9512 114.365 21.4648C115.983 17.9785 117.703 15.0732 119.526 12.749C119.959 12.2021 120.176 11.8945 120.176 11.8262C120.016 11.7806 119.845 11.8717 119.663 12.0996L119.321 12.4414L118.467 13.501C116.986 15.3467 113.511 19.8698 108.042 27.0703C99.4059 38.7598 91.8294 47.168 85.3125 52.2949C81.8034 55.0293 79.764 56.3965 79.1943 56.3965C79.0804 56.3509 79.012 56.2826 78.9893 56.1914C78.9893 56.123 79.1374 55.9635 79.4336 55.7129C83.8997 51.6341 88.1722 45.516 92.251 37.3584C96.3525 29.1781 98.4033 22.6497 98.4033 17.7734C98.4033 14.4466 97.5944 11.8148 95.9766 9.87793C94.3587 7.91829 92.1484 6.93848 89.3457 6.93848C83.444 6.93848 77.5765 10.2311 71.7432 16.8164C65.9326 23.4017 63.0273 30.0439 63.0273 36.7432C63.0273 39.5231 63.7793 41.7676 65.2832 43.4766C66.8099 45.1855 68.7923 46.04 71.2305 46.04C76.3802 46.04 81.2565 42.5195 85.8594 35.4785C88.8444 30.8984 90.3369 26.8197 90.3369 23.2422C90.3369 21.556 89.9154 20.2002 89.0723 19.1748C88.252 18.1494 87.1582 17.6367 85.791 17.6367C84.9707 17.6367 84.1732 17.8418 83.3984 18.252C82.6237 18.6393 82.2363 19.0381 82.2363 19.4482C82.2363 19.585 82.3047 19.6533 82.4414 19.6533C82.5098 19.6533 82.6237 19.6305 82.7832 19.585C83.3529 19.4938 83.7288 19.4482 83.9111 19.4482C84.9365 19.4482 85.4492 20.0293 85.4492 21.1914C85.4492 21.8978 85.1758 22.513 84.6289 23.0371C84.082 23.5384 83.444 23.7891 82.7148 23.7891C81.3021 23.7891 80.5957 23.0257 80.5957 21.499C80.5957 20.2913 81.1198 19.2432 82.168 18.3545C83.2161 17.443 84.4238 16.9873 85.791 16.9873C87.3633 16.9873 88.6165 17.557 89.5508 18.6963C90.5078 19.8356 90.9863 21.3509 90.9863 23.2422C90.9863 27.526 89.0267 32.3568 85.1074 37.7344C80.7552 43.6589 76.1068 46.6211 71.1621 46.6211C68.291 46.6211 65.9212 45.5273 64.0527 43.3398C62.207 41.1296 61.2842 38.3496 61.2842 35C61.2842 31.8555 62.1159 28.5742 63.7793 25.1562C65.4655 21.7383 67.7669 18.6279 70.6836 15.8252C77.2233 9.46777 83.501 6.28906 89.5166 6.28906C93.0485 6.28906 96.0107 7.67904 98.4033 10.459C100.819 13.2389 102.026 16.6569 102.026 20.7129C102.026 25.0651 100.226 30.3516 96.626 36.5723C93.0257 42.7702 88.6621 48.1022 83.5352 52.5684C83.0339 53.0241 82.7832 53.2747 82.7832 53.3203C82.806 53.4115 82.8516 53.457 82.9199 53.457C83.6263 53.457 85.8936 51.4746 89.7217 47.5098C95.1449 41.8815 102.471 32.9948 111.699 20.8496C114.342 17.3633 116.94 14.2415 119.492 11.4844C122.044 8.72721 123.617 7.34863 124.209 7.34863C124.346 7.34863 124.414 7.41699 124.414 7.55371C124.414 7.62207 124.346 7.736 124.209 7.89551C122.773 9.80957 121.611 11.7578 120.723 13.7402C119.72 15.9961 118.205 20.2344 116.177 26.4551C113.944 33.2454 111.916 38.418 110.093 41.9727C108.179 45.6413 105.775 48.9567 102.881 51.9189C102.835 52.0101 102.79 52.0898 102.744 52.1582C102.767 52.2266 102.812 52.2721 102.881 52.2949C103.268 52.2949 104.897 50.8024 107.769 47.8174C109.774 45.7438 115.379 39.1357 124.585 27.9932C129.347 22.2282 133.608 17.6823 137.368 14.3555C141.128 11.0059 145.355 8.02083 150.049 5.40039C156.452 1.80013 162.035 0 166.797 0C168.415 0 169.224 0.31901 169.224 0.957031Z" fill="#F2EEB1"/>
<path d="M46.416 25.4639C46.416 28.9502 45.4362 32.5049 43.4766 36.1279C41.5169 39.7282 38.8053 42.9867 35.3418 45.9033C32.015 48.7288 28.4375 50.9733 24.6094 52.6367C20.804 54.2773 17.3063 55.0977 14.1162 55.0977C9.9235 55.0977 6.51693 53.6735 3.89648 50.8252C1.29883 47.9769 0 44.2627 0 39.6826C0 35.4899 1.29883 31.2174 3.89648 26.8652C6.49414 22.513 10.0033 18.7646 14.4238 15.6201C17.5684 13.3415 21.1003 11.4958 25.0195 10.083C28.9616 8.67025 32.5163 7.96387 35.6836 7.96387C38.8281 7.96387 41.3346 8.72721 43.2031 10.2539C45.0944 11.7806 46.04 13.82 46.04 16.3721C46.04 17.4202 45.8577 18.6621 45.4932 20.0977C46.1084 21.8978 46.416 23.6865 46.416 25.4639ZM45.4932 16.4404C45.4932 14.139 44.6842 12.2819 43.0664 10.8691C41.4486 9.45638 39.318 8.75 36.6748 8.75C31.4339 8.75 26.1361 10.4932 20.7812 13.9795C15.6543 17.3291 11.4502 21.6243 8.16895 26.8652C4.72819 32.2884 3.00781 37.6546 3.00781 42.9639C3.00781 46.3363 3.99902 49.082 5.98145 51.2012C7.98665 53.3203 10.5615 54.3799 13.7061 54.3799C20.0863 54.3799 26.5007 51.0986 32.9492 44.5361C39.3978 37.9736 42.9753 31.1035 43.6816 23.9258C42.9069 25.293 41.5169 26.9108 39.5117 28.7793C37.5293 30.625 36.1849 31.5479 35.4785 31.5479C35.2962 31.5479 35.2051 31.4567 35.2051 31.2744C35.2051 31.1605 35.3874 31.001 35.752 30.7959C39.4434 28.7451 42.1094 26.0335 43.75 22.6611C43.75 19.8128 42.9183 17.557 41.2549 15.8936C39.5915 14.2074 37.3356 13.3643 34.4873 13.3643C29.2008 13.3643 23.7663 16.1898 18.1836 21.8408C12.6237 27.4691 9.84375 32.972 9.84375 38.3496C9.84375 40.4915 10.3451 42.2347 11.3477 43.5791C12.3503 44.9007 13.6719 45.5615 15.3125 45.5615C16.0872 45.5615 16.8734 45.3337 17.6709 44.8779C18.4912 44.4222 18.9014 43.9779 18.9014 43.5449C18.8786 43.4082 18.833 43.3398 18.7646 43.3398C18.7646 43.3398 18.6621 43.3854 18.457 43.4766C18.1836 43.75 17.7393 43.8867 17.124 43.8867C16.0531 43.8867 15.5176 43.2601 15.5176 42.0068C15.5176 41.2321 15.7796 40.5827 16.3037 40.0586C16.8278 39.5345 17.4544 39.2725 18.1836 39.2725C19.6419 39.2725 20.3711 40.0814 20.3711 41.6992C20.3711 42.9069 19.847 43.9551 18.7988 44.8438C17.7734 45.7324 16.5658 46.1768 15.1758 46.1768C13.2161 46.1768 11.5755 45.3792 10.2539 43.7842C8.95508 42.1663 8.30566 40.1497 8.30566 37.7344C8.30566 32.1745 11.1995 26.6374 16.9873 21.123C22.7979 15.5859 28.6084 12.8174 34.4189 12.8174C36.9027 12.8174 39.1243 13.4098 41.084 14.5947C43.0436 15.7568 44.3766 17.2835 45.083 19.1748C45.3564 18.2633 45.4932 17.3519 45.4932 16.4404Z" fill="#F2EEB1"/>
</svg>
