<svg width="934" height="240" viewBox="0 0 934 240" fill="none" xmlns="http://www.w3.org/2000/svg">
<path d="M650.512 134.412C650.512 137.255 648.986 140.349 645.934 143.694C644.721 144.948 643.154 146.202 641.23 147.457C639.307 148.711 637.948 149.338 637.154 149.338C636.903 149.338 636.777 149.213 636.777 148.962C636.777 148.711 636.945 148.523 637.279 148.398C639.035 147.77 640.603 146.871 641.983 145.701C643.404 144.572 644.115 143.589 644.115 142.753C644.115 142.502 643.906 142.377 643.488 142.377C641.607 142.377 640.666 141.478 640.666 139.68C640.666 138.049 641.502 136.314 643.174 134.474C644.889 132.635 646.478 131.715 647.941 131.715C649.655 131.715 650.512 132.614 650.512 134.412Z" fill="#758AF3"/>
<path d="M642.61 78.6557L614.45 123.122C618.84 117.101 622.123 113.066 624.297 111.018C626.471 108.969 628.541 107.945 630.506 107.945C632.847 107.945 634.75 108.906 636.213 110.83C637.718 112.711 638.471 115.094 638.471 117.979C638.471 124.293 634.457 130.502 626.429 136.606C620.45 141.164 615.14 143.442 610.499 143.442C608.325 143.442 606.548 142.627 605.168 140.996C603.83 139.324 603.161 137.171 603.161 134.537C603.161 131.401 605.168 126.613 609.182 120.174L635.147 78.5303C636.276 78.8648 637.488 79.032 638.784 79.032C639.788 79.032 641.063 78.9066 642.61 78.6557ZM633.892 113.087C633.892 110.286 632.722 108.885 630.38 108.885C627.328 108.885 622.123 113.924 614.764 124C609.245 131.526 606.485 136.585 606.485 139.178C606.485 141.394 607.572 142.502 609.746 142.502C613.509 142.502 618.464 138.76 624.61 131.275C630.798 123.749 633.892 117.687 633.892 113.087Z" fill="#758AF3"/>
<path d="M608.806 122.244C608.806 122.913 607.572 124.481 605.106 126.947C601.426 130.627 598.039 132.467 594.945 132.467C593.649 132.467 592.499 132.216 591.496 131.714C585.977 139.533 580.792 143.442 575.942 143.442C573.433 143.442 571.28 142.418 569.482 140.369C567.726 138.278 566.848 135.791 566.848 132.906C566.848 126.467 571.071 120.258 579.517 114.279C585.454 110.056 590.346 107.944 594.193 107.944C597.789 107.944 599.586 109.868 599.586 113.714C599.586 118.522 597.057 124.313 591.998 131.087C592.834 131.589 593.775 131.839 594.82 131.839C596.701 131.839 598.897 130.961 601.405 129.205C603.914 127.449 605.963 125.338 607.551 122.871C608.011 122.286 608.346 121.993 608.555 121.993C608.722 121.993 608.806 122.076 608.806 122.244ZM598.646 113.84C598.646 110.453 597.12 108.76 594.067 108.76C590.262 108.76 585.621 112.397 580.144 119.672C574.667 126.947 571.928 133.073 571.928 138.048C571.928 140.933 573.308 142.376 576.068 142.376C580.583 142.376 585.517 138.655 590.869 131.212C589.656 129.874 589.05 128.494 589.05 127.073C589.05 125.024 589.865 122.913 591.496 120.738C593.127 118.564 594.715 117.477 596.262 117.477C596.931 117.477 597.391 117.895 597.642 118.732C598.311 117.268 598.646 115.638 598.646 113.84ZM619.342 89.0664C615.287 92.2441 610.102 95.15 603.788 97.7841C598.938 99.8746 596.158 100.92 595.447 100.92C595.28 100.92 595.154 100.878 595.071 100.794C595.071 100.669 595.322 100.481 595.823 100.23C605.607 95.589 612.59 90.5507 616.771 85.1152L619.342 89.0664Z" fill="#758AF3"/>
<path d="M567.789 97.9724C567.789 99.6449 565.176 102.969 559.949 107.944C559.699 109.241 559.573 110.37 559.573 111.331C559.573 113.756 560.681 117.603 562.897 122.871C564.026 125.505 564.591 127.721 564.591 129.519C564.591 133.282 562.751 136.543 559.071 139.303C555.434 142.063 551.106 143.442 546.089 143.442C543.246 143.442 540.967 142.648 539.253 141.059C537.58 139.428 536.744 137.254 536.744 134.536C536.744 131.401 537.852 128.348 540.068 125.38C542.326 122.411 544.646 120.927 547.03 120.927C547.448 120.927 547.824 121.01 548.159 121.178L553.176 115.031C554.681 113.234 556.688 110.746 559.197 107.568C559.908 104.641 560.995 102.133 562.458 100.042C563.922 97.9515 565.364 96.9062 566.786 96.9062C567.455 96.9062 567.789 97.2616 567.789 97.9724ZM559.071 122.746C559.071 121.491 559.03 120.258 558.946 119.045C558.862 117.791 558.821 116.014 558.821 113.714C558.821 111.833 558.904 110.265 559.071 109.011C556.73 111.979 553.343 116.16 548.911 121.554C549.706 122.223 550.103 123.038 550.103 124C550.103 126.467 548.075 128.139 544.019 129.017C542.389 129.394 540.967 130.293 539.755 131.714C538.584 133.094 537.998 134.557 537.998 136.104C537.998 137.777 538.605 139.178 539.817 140.306C541.03 141.435 542.535 142 544.333 142C547.845 142 551.169 139.972 554.305 135.916C557.483 131.819 559.071 127.429 559.071 122.746Z" fill="#758AF3"/>
<path d="M546.465 122.244C546.465 122.913 545.232 124.481 542.765 126.948C539.085 130.627 535.699 132.467 532.605 132.467C531.308 132.467 530.159 132.216 529.155 131.714C523.636 139.533 518.451 143.442 513.601 143.442C511.093 143.442 508.939 142.418 507.141 140.369C505.385 138.278 504.507 135.791 504.507 132.906C504.507 126.467 508.73 120.258 517.176 114.279C523.113 110.056 528.005 107.944 531.852 107.944C535.448 107.944 537.246 109.868 537.246 113.714C537.246 118.523 534.716 124.313 529.657 131.087C530.493 131.589 531.434 131.84 532.479 131.84C534.361 131.84 536.556 130.961 539.064 129.205C541.573 127.449 543.622 125.338 545.211 122.871C545.671 122.286 546.005 121.993 546.214 121.993C546.381 121.993 546.465 122.077 546.465 122.244ZM536.305 113.84C536.305 110.453 534.779 108.76 531.727 108.76C527.922 108.76 523.281 112.397 517.803 119.672C512.326 126.948 509.587 133.073 509.587 138.049C509.587 140.933 510.967 142.376 513.727 142.376C518.242 142.376 523.176 138.655 528.528 131.212C527.315 129.874 526.709 128.495 526.709 127.073C526.709 125.024 527.524 122.913 529.155 120.739C530.786 118.564 532.375 117.477 533.922 117.477C534.591 117.477 535.051 117.895 535.301 118.732C535.97 117.268 536.305 115.638 536.305 113.84Z" fill="#758AF3"/>
<path d="M486.445 122.369C486.445 123.247 483.393 127.303 477.288 134.536C472.354 140.474 468.466 143.442 465.623 143.442C463.699 143.442 462.131 142.731 460.919 141.31C459.706 139.846 459.1 138.028 459.1 135.853C459.1 133.596 459.769 131.15 461.107 128.516C456.926 134.369 453.727 138.32 451.511 140.369C449.295 142.418 447.142 143.442 445.052 143.442C442.836 143.442 440.975 142.501 439.47 140.62C437.965 138.697 437.212 136.292 437.212 133.407C437.212 125.38 442.877 118.272 454.208 112.084C459.184 109.324 463.198 107.944 466.25 107.944C468.842 107.944 470.138 109.199 470.138 111.707C470.138 112.418 469.971 113.359 469.637 114.53L472.835 108.446C474.09 108.739 475.198 108.885 476.159 108.885C477.288 108.885 478.751 108.739 480.549 108.446L469.448 126.822C465.602 133.261 463.678 137.505 463.678 139.554C463.678 141.519 464.494 142.501 466.124 142.501C467.797 142.501 470.473 140.599 474.152 136.794C477.832 132.948 481.574 128.223 485.379 122.62C485.629 122.202 485.859 121.993 486.068 121.993C486.319 121.993 486.445 122.118 486.445 122.369ZM469.198 111.958C469.198 109.909 468.257 108.885 466.375 108.885C462.529 108.885 457.469 112.648 451.198 120.174C444.968 127.7 441.853 133.784 441.853 138.425C441.853 141.143 443.065 142.501 445.491 142.501C448.376 142.501 453.372 137.714 460.48 128.139C466.292 120.279 469.198 114.885 469.198 111.958Z" fill="#758AF3"/>
<path d="M454.71 77.9033C437.15 107.129 426.906 124.314 423.979 129.457C421.094 134.599 419.651 138.007 419.651 139.68C419.651 141.561 420.446 142.502 422.035 142.502C425.547 142.502 431.986 135.875 441.352 122.621C441.561 122.202 441.812 121.993 442.104 121.993C442.271 122.035 442.355 122.161 442.355 122.37C442.355 122.621 442.146 122.955 441.728 123.373L439.031 127.073C431.129 137.986 425.296 143.443 421.533 143.443C419.735 143.443 418.251 142.774 417.08 141.436C415.951 140.056 415.387 138.321 415.387 136.23C415.387 133.931 415.909 131.715 416.955 129.582C418.042 127.408 421.679 121.178 427.867 110.892C435.435 98.3073 441.811 87.3945 446.996 78.1542C448.25 78.4887 449.358 78.6559 450.32 78.6559C451.909 78.6559 453.372 78.4051 454.71 77.9033Z" fill="#758AF3"/>
<path d="M434.453 78.5306C418.773 103.45 408.885 119.38 404.787 126.321C400.648 133.387 398.578 137.84 398.578 139.68C398.578 141.561 399.436 142.502 401.15 142.502C404.955 142.502 411.415 135.875 420.529 122.621C420.78 122.203 421.01 121.993 421.219 121.993C421.47 121.993 421.596 122.119 421.596 122.37C421.554 122.495 421.345 122.83 420.968 123.373L418.272 127.074C410.369 137.986 404.537 143.443 400.774 143.443C398.85 143.443 397.282 142.732 396.07 141.31C394.857 139.847 394.251 137.986 394.251 135.729C394.251 133.471 395.004 130.857 396.509 127.889C389.192 138.258 383.756 143.443 380.202 143.443C377.986 143.443 376.126 142.502 374.621 140.62C373.115 138.697 372.363 136.293 372.363 133.408C372.363 126.509 376.648 120.258 385.22 114.656C392.035 110.182 397.387 107.945 401.275 107.945C403.868 107.945 405.164 109.199 405.164 111.708C405.164 112.879 404.808 114.196 404.098 115.659L426.488 78.1543C427.867 78.5724 429.226 78.7815 430.564 78.7815C430.899 78.7815 432.195 78.6978 434.453 78.5306ZM404.223 112.21C404.223 109.994 403.199 108.886 401.15 108.886C397.387 108.886 392.411 112.649 386.223 120.175C380.077 127.659 377.004 133.701 377.004 138.3C377.004 141.101 378.154 142.502 380.453 142.502C383.798 142.502 389.547 136.69 397.7 125.067C402.049 118.795 404.223 114.509 404.223 112.21Z" fill="#758AF3"/>
<path d="M351.352 77.4017C351.352 77.6944 351.143 78.0707 350.725 78.5306C342.112 87.7291 329.778 106.837 313.722 135.854C312.091 135.394 310.503 135.164 308.956 135.164C308.788 135.164 307.597 135.269 305.381 135.478C318.259 117.582 331.513 100.356 345.143 83.7988L346.962 81.6037C344.161 84.4887 339.791 87.5828 333.854 90.8858C330.133 92.9346 327.06 95.7151 324.635 99.2272C320.036 105.833 315.541 109.137 311.151 109.137C309.227 109.137 307.639 108.488 306.384 107.192C305.172 105.896 304.565 104.224 304.565 102.175C304.565 98.3701 306.844 94.2935 311.402 89.9451C315.959 85.5967 320.245 83.4225 324.259 83.4225C327.394 83.4225 328.962 85.1368 328.962 88.5653C328.962 90.7395 328.063 93.2691 326.266 96.1541C329.025 92.6419 332.809 89.5061 337.617 86.7465C342.844 83.7779 346.983 80.7466 350.035 77.6526C350.495 77.2344 350.809 77.0254 350.976 77.0254C351.185 77.109 351.311 77.2344 351.352 77.4017ZM327.332 87.6873C327.332 85.4295 326.433 84.3006 324.635 84.3006C321.792 84.3006 318.384 86.872 314.412 92.0148C310.44 97.1576 308.454 101.527 308.454 105.123C308.454 107.171 309.353 108.196 311.151 108.196C314.119 108.196 317.548 105.729 321.436 100.795C325.367 95.8196 327.332 91.4503 327.332 87.6873ZM353.234 111.833C353.234 115.973 351.164 120.426 347.025 125.192C342.886 129.959 339.018 132.342 335.422 132.342C333.499 132.342 331.91 131.715 330.656 130.46C329.443 129.206 328.837 127.575 328.837 125.568C328.837 121.722 331.095 117.624 335.61 113.276C340.168 108.886 344.474 106.691 348.53 106.691C351.666 106.691 353.234 108.405 353.234 111.833ZM351.603 110.893C351.603 108.677 350.704 107.569 348.906 107.569C346.105 107.569 342.697 110.14 338.683 115.283C334.711 120.384 332.725 124.711 332.725 128.265C332.725 130.398 333.624 131.464 335.422 131.464C338.391 131.464 341.819 128.997 345.708 124.063C349.638 119.088 351.603 114.697 351.603 110.893Z" fill="#758AF3"/>
<path d="M293.967 92.3906C293.967 101.965 289.179 112.167 279.604 122.997C267.939 136.167 257.152 142.752 247.242 142.752C242.225 142.752 238.107 140.975 234.887 137.421C231.709 133.826 230.121 129.226 230.121 123.624C230.121 112.376 237.019 100.941 250.817 89.3175C262.733 79.3246 272.246 74.3281 279.353 74.3281C283.785 74.3281 287.319 75.9797 289.953 79.2828C292.629 82.5859 293.967 86.9552 293.967 92.3906ZM289.388 85.4918C289.388 78.6347 286.085 75.2062 279.479 75.2062C274.085 75.2062 267.855 78.3838 260.789 84.7391C254.058 90.76 248.288 98.0143 243.479 106.502C238.462 115.408 235.953 123.268 235.953 130.084C235.953 137.944 239.674 141.874 247.117 141.874C256.315 141.874 265.556 135.456 274.838 122.62C279.228 116.558 282.74 110.14 285.374 103.366C288.05 96.5927 289.388 90.6345 289.388 85.4918Z" fill="#758AF3"/>
<path d="M232.629 88.6904C232.629 94.4604 230.246 99.6032 225.479 104.119C222.051 107.338 218.518 109.931 214.88 111.896C211.243 113.819 204.072 116.913 193.368 121.178C179.989 126.53 170.769 132.279 165.71 138.425C169.431 135.498 173.508 134.035 177.94 134.035C181.41 134.035 186.03 134.934 191.8 136.732C196.734 138.279 200.497 139.052 203.089 139.052C206.643 139.052 209.926 137.61 212.936 134.725C215.988 131.84 218.058 128.181 219.145 123.749C219.27 123.248 219.5 122.997 219.835 122.997C219.96 123.038 220.044 123.122 220.086 123.248C220.086 125.631 218.664 128.808 215.821 132.78C210.594 140.056 204.093 143.693 196.316 143.693C193.431 143.693 189.145 142.836 183.459 141.122C176.644 139.073 172.316 138.049 170.477 138.049C166.128 138.049 163.724 139.784 163.264 143.254C163.18 144.216 162.888 144.697 162.386 144.697C162.052 144.697 161.884 144.529 161.884 144.195C161.884 142.23 163.557 139.533 166.902 136.104C169.787 133.136 172.713 130.711 175.682 128.829C178.86 126.906 184.63 123.979 192.992 120.049C203.487 115.115 211.702 109.45 217.64 103.053C223.619 96.6137 226.608 90.2374 226.608 83.9239C226.608 81.2898 225.626 79.1993 223.661 77.6522C221.737 76.1052 219.124 75.3317 215.821 75.3317C208.462 75.3317 200.497 79.1156 191.926 86.6835C183.354 94.2095 179.069 101.213 179.069 107.694C179.069 112.418 181.891 114.781 187.536 114.781C192.051 114.781 197.069 112.586 202.588 108.195C208.149 103.763 211.953 98.976 214.002 93.8332C214.128 93.4151 214.316 93.2061 214.567 93.2061C214.817 93.2061 214.943 93.3315 214.943 93.5824C214.943 95.3802 213.145 98.4116 209.549 102.676C206.413 106.398 202.797 109.45 198.699 111.833C194.602 114.216 190.943 115.408 187.724 115.408C184.504 115.408 181.912 114.446 179.947 112.523C178.023 110.6 177.062 108.049 177.062 104.871C177.062 97.0527 182.225 89.7357 192.553 82.9205C200.999 77.3596 208.838 74.5791 216.072 74.5791C220.964 74.5791 224.936 75.8962 227.988 78.5303C231.082 81.1226 232.629 84.5093 232.629 88.6904Z" fill="#758AF3"/>
<path d="M151.411 124.941C151.411 125.443 149.696 126.237 146.268 127.324C142.839 128.37 140.226 128.892 138.428 128.892C136.756 128.892 135 128.683 133.16 128.265C130.986 127.763 129.376 127.512 128.331 127.512C126.575 127.512 124.902 127.93 123.313 128.767C123.23 128.85 123.104 128.892 122.937 128.892C122.77 128.85 122.665 128.767 122.624 128.641C122.624 128.14 124.233 127.324 127.453 126.195C130.714 125.066 133.097 124.502 134.602 124.502C135.481 124.502 137.278 124.816 139.996 125.443C142.296 125.944 143.968 126.195 145.014 126.195C146.979 126.195 148.818 125.777 150.533 124.941C150.783 124.774 150.993 124.69 151.16 124.69C151.327 124.69 151.411 124.774 151.411 124.941Z" fill="#758AF3"/>
<path d="M644.107 142.911C644.024 143.712 643.316 144.642 641.983 145.7C640.604 146.871 639.035 147.77 637.279 148.397L637.162 148.447C636.906 148.571 636.777 148.742 636.777 148.962C636.777 149.181 636.874 149.305 637.065 149.332L637.154 149.338C637.949 149.338 639.308 148.71 641.23 147.456C642.913 146.359 644.324 145.262 645.463 144.164L645.935 143.693C648.891 140.453 650.415 137.448 650.508 134.679L650.513 134.411C650.513 132.726 649.759 131.83 648.253 131.725L647.941 131.715C646.478 131.715 644.889 132.634 643.175 134.474C641.502 136.313 640.666 138.049 640.666 139.68L640.677 140.006C640.787 141.586 641.724 142.376 643.488 142.376C643.906 142.376 644.115 142.502 644.115 142.753L644.107 142.911ZM651.583 134.411C651.583 137.641 649.855 140.984 646.725 144.415L646.715 144.426L646.704 144.438C645.422 145.764 643.786 147.067 641.815 148.353C640.831 148.995 639.962 149.496 639.218 149.84C638.501 150.171 637.789 150.408 637.154 150.408C636.864 150.408 636.449 150.335 636.114 150.001C635.822 149.709 635.73 149.355 635.711 149.076L635.707 148.962L635.714 148.817C635.744 148.484 635.878 148.174 636.103 147.921C636.34 147.654 636.637 147.494 636.903 147.395L636.919 147.389C638.557 146.804 640.013 145.968 641.291 144.884L641.304 144.873L641.317 144.862C641.986 144.332 642.438 143.873 642.715 143.489C642.736 143.46 642.754 143.431 642.772 143.403C641.955 143.306 641.21 143.028 640.632 142.476C639.88 141.757 639.596 140.756 639.596 139.68C639.596 137.673 640.622 135.691 642.383 133.754L642.392 133.744C644.171 131.834 646.027 130.644 647.941 130.644C648.977 130.644 649.947 130.919 650.645 131.65C651.333 132.373 651.583 133.36 651.583 134.411Z" fill="#758AF3"/>
<path d="M638.471 117.979C638.471 115.275 637.809 113.011 636.486 111.188L636.213 110.83C634.749 108.907 632.847 107.944 630.506 107.944C628.541 107.944 626.471 108.969 624.297 111.018L623.876 111.425C621.708 113.578 618.566 117.477 614.45 123.122L642.61 78.6562C641.063 78.9071 639.788 79.0322 638.784 79.0322V77.9619C639.708 77.9619 640.921 77.8457 642.438 77.5996L644.787 77.2188L624.284 109.593C626.326 107.854 628.403 106.874 630.506 106.874C633.185 106.874 635.391 107.996 637.048 110.161C638.733 112.268 639.541 114.901 639.541 117.979C639.541 124.787 635.211 131.272 627.077 137.457C621.018 142.075 615.48 144.513 610.499 144.513C608.017 144.513 605.939 143.563 604.352 141.688L604.342 141.677L604.332 141.665C602.81 139.762 602.091 137.356 602.091 134.537C602.091 132.805 602.628 130.73 603.61 128.352C604.102 127.917 604.602 127.451 605.105 126.948C605.314 126.74 605.511 126.536 605.701 126.341C604.009 129.769 603.161 132.501 603.161 134.537L603.169 135.025C603.247 137.438 603.914 139.428 605.168 140.996C606.548 142.627 608.325 143.442 610.499 143.442C615.14 143.442 620.451 141.164 626.43 136.606C634.206 130.693 638.216 124.681 638.459 118.571L638.471 117.979ZM632.822 113.088C632.822 111.81 632.551 111.05 632.193 110.622C631.866 110.231 631.331 109.956 630.381 109.956C629.898 109.956 629.199 110.162 628.245 110.744C627.305 111.318 626.201 112.205 624.932 113.434C622.393 115.891 619.293 119.613 615.628 124.632L615.627 124.633C612.881 128.378 610.842 131.482 609.494 133.952C608.12 136.472 607.556 138.176 607.556 139.178C607.556 140.126 607.788 140.639 608.064 140.921C608.337 141.199 608.829 141.432 609.746 141.432C611.287 141.432 613.238 140.655 615.64 138.841C618.023 137.041 620.737 134.305 623.783 130.596L624.349 129.901C627.128 126.454 629.212 123.354 630.619 120.598C632.123 117.651 632.822 115.157 632.822 113.088ZM635.451 77.5039C636.472 77.8063 637.581 77.9619 638.784 77.9619V79.0322L638.303 79.0244C637.187 78.9879 636.134 78.823 635.146 78.5303L609.182 120.175C608.613 121.087 608.085 121.967 607.597 122.813C607.582 122.832 607.567 122.852 607.552 122.871C606.617 124.322 605.522 125.649 604.269 126.854C605.266 124.707 606.602 122.289 608.273 119.608L634.67 77.2725L635.451 77.5039ZM633.884 113.522C633.697 118.067 630.605 123.984 624.61 131.275C618.464 138.76 613.509 142.502 609.746 142.502C607.708 142.502 606.625 141.528 606.498 139.58L606.485 139.178C606.485 136.585 609.245 131.526 614.764 124C622.122 113.923 627.329 108.886 630.381 108.886C632.722 108.886 633.893 110.287 633.893 113.088L633.884 113.522Z" fill="#758AF3"/>
<path d="M605.701 126.341C605.24 127.275 604.842 128.158 604.507 128.989C601.231 131.927 598.039 133.537 594.945 133.537C593.846 133.537 592.816 133.373 591.867 133.033C586.5 140.437 581.201 144.513 575.942 144.513C573.097 144.513 570.659 143.333 568.678 141.075L568.67 141.066L568.663 141.058C566.735 138.763 565.777 136.028 565.777 132.906C565.777 125.95 570.344 119.461 578.898 113.405C584.877 109.153 589.999 106.874 594.192 106.874C596.174 106.874 597.853 107.408 599.02 108.656C600.174 109.891 600.656 111.644 600.656 113.715C600.656 118.594 598.241 124.246 593.658 130.629C594.021 130.721 594.407 130.77 594.82 130.77C596.383 130.769 598.36 130.031 600.791 128.329C603.191 126.649 605.141 124.637 606.651 122.292L606.679 122.249L606.71 122.21C606.957 121.895 607.203 121.617 607.442 121.407C607.562 121.302 607.705 121.193 607.867 121.105C608.022 121.022 608.261 120.923 608.555 120.923C608.603 120.923 608.657 120.927 608.715 120.934C608.322 121.577 607.95 122.203 607.599 122.812C607.583 122.832 607.567 122.851 607.552 122.871C605.963 125.338 603.914 127.45 601.405 129.206C598.897 130.962 596.702 131.84 594.82 131.84C593.775 131.84 592.834 131.589 591.998 131.087C597.057 124.314 599.586 118.523 599.586 113.715C599.586 109.868 597.788 107.944 594.192 107.944C590.346 107.944 585.454 110.056 579.517 114.279L578.737 114.84C570.811 120.646 566.848 126.668 566.848 132.906L566.858 133.442C566.961 136.1 567.836 138.409 569.482 140.369C571.28 142.418 573.434 143.442 575.942 143.442C580.792 143.442 585.977 139.533 591.496 131.715C592.499 132.216 593.649 132.467 594.945 132.467C598.039 132.467 601.426 130.628 605.105 126.948C605.314 126.74 605.511 126.536 605.701 126.341ZM587.979 127.073C587.98 124.728 588.915 122.396 590.64 120.097C592.324 117.85 594.191 116.407 596.263 116.407C596.609 116.407 596.942 116.477 597.249 116.617C597.464 115.755 597.575 114.831 597.575 113.84C597.575 112.286 597.223 111.32 596.706 110.747C596.208 110.195 595.398 109.83 594.067 109.83C592.504 109.83 590.623 110.583 588.394 112.331C586.175 114.07 583.709 116.718 580.999 120.316C575.56 127.541 572.999 133.431 572.999 138.049C572.999 139.338 573.307 140.106 573.736 140.555C574.157 140.994 574.865 141.306 576.067 141.306C578.02 141.306 580.161 140.502 582.51 138.73C584.715 137.067 587.051 134.587 589.513 131.254C588.526 129.96 587.979 128.563 587.979 127.073ZM620.774 89.3047L620.002 89.9092C615.853 93.16 610.581 96.108 604.211 98.7666L604.212 98.7676C601.781 99.8152 599.856 100.607 598.442 101.139C597.737 101.404 597.145 101.609 596.675 101.75C596.247 101.878 595.801 101.991 595.447 101.991C595.115 101.991 594.669 101.907 594.313 101.552L594 101.238V100.795C594 100.412 594.184 100.143 594.282 100.021C594.392 99.8831 594.517 99.7776 594.616 99.7031C594.818 99.5517 595.074 99.4089 595.345 99.2734L595.364 99.2637C605.075 94.6574 611.888 89.7085 615.923 84.4629L616.844 83.2656L620.774 89.3047ZM616.771 85.1152C612.589 90.5507 605.607 95.5894 595.823 100.23C595.322 100.481 595.07 100.669 595.07 100.795C595.133 100.858 595.22 100.896 595.329 100.912L595.447 100.92C596.158 100.92 598.939 99.8745 603.788 97.7842C610.102 95.1501 615.286 92.2441 619.342 89.0664L616.771 85.1152ZM589.05 127.073C589.05 128.495 589.657 129.875 590.869 131.213C585.517 138.655 580.583 142.376 576.067 142.376C573.308 142.376 571.928 140.934 571.928 138.049C571.928 133.229 574.498 127.33 579.639 120.352L580.145 119.673C585.622 112.398 590.263 108.76 594.067 108.76C597.119 108.76 598.645 110.453 598.646 113.84C598.646 115.638 598.312 117.269 597.643 118.732C597.407 117.949 596.988 117.532 596.386 117.482L596.263 117.478C594.716 117.478 593.127 118.565 591.496 120.739L591.199 121.146C589.766 123.176 589.05 125.153 589.05 127.073Z" fill="#758AF3"/>
<path d="M564.59 129.52C564.59 127.722 564.025 125.505 562.896 122.871C560.681 117.603 559.573 113.756 559.573 111.331C559.573 110.369 559.698 109.24 559.949 107.944C565.012 103.125 567.623 99.8551 567.781 98.1348L567.789 97.9727C567.789 97.2619 567.454 96.9062 566.785 96.9062C565.364 96.9064 563.921 97.9517 562.458 100.042L562.188 100.439C560.86 102.448 559.863 104.825 559.196 107.568C556.688 110.746 554.681 113.233 553.176 115.031L548.158 121.178C547.824 121.011 547.447 120.927 547.029 120.927C544.646 120.927 542.326 122.412 540.068 125.38C538.879 126.973 538.011 128.59 537.46 130.231C537.008 130.493 536.568 130.721 536.14 130.919C536.689 128.8 537.718 126.738 539.21 124.739L539.216 124.732C541.56 121.651 544.158 119.857 547.029 119.856C547.289 119.856 547.544 119.882 547.792 119.933L552.347 114.354L552.355 114.345C553.823 112.592 555.775 110.172 558.215 107.083C558.953 104.147 560.069 101.589 561.581 99.4287C563.09 97.2725 564.812 95.836 566.785 95.8359C567.302 95.8359 567.882 95.9765 568.317 96.4395C568.742 96.8902 568.859 97.4679 568.859 97.9727C568.859 98.6438 568.606 99.3475 568.247 100.033C567.879 100.737 567.347 101.522 566.671 102.382C565.362 104.047 563.443 106.079 560.938 108.477C560.738 109.586 560.644 110.535 560.644 111.331C560.644 113.518 561.667 117.185 563.881 122.449L564.091 122.951C565.112 125.441 565.661 127.641 565.661 129.52C565.661 133.694 563.596 137.244 559.717 140.155L559.718 140.156C555.876 143.071 551.315 144.513 546.089 144.513C543.038 144.513 540.478 143.655 538.525 141.845L538.515 141.835L538.506 141.825C536.593 139.96 535.674 137.492 535.674 134.537C535.674 133.614 535.765 132.701 535.94 131.798C536.343 131.642 536.749 131.458 537.16 131.247C536.884 132.333 536.744 133.43 536.744 134.537L536.754 135.04C536.852 137.524 537.685 139.531 539.253 141.06C540.86 142.549 542.963 143.341 545.562 143.434L546.089 143.442C551.106 143.442 555.434 142.062 559.071 139.303C562.635 136.63 564.473 133.486 564.585 129.871L564.59 129.52ZM558.001 122.746C558.001 121.516 557.96 120.306 557.878 119.119V119.117C557.792 117.827 557.75 116.022 557.75 113.715C557.75 113.249 557.754 112.8 557.765 112.369C555.774 114.851 553.298 117.896 550.336 121.504C550.88 122.219 551.173 123.057 551.173 124C551.173 125.576 550.505 126.906 549.263 127.931C548.065 128.919 546.36 129.603 544.259 130.06L544.26 130.061C542.879 130.379 541.651 131.139 540.569 132.406L540.57 132.407C539.535 133.628 539.068 134.853 539.068 136.104C539.068 137.483 539.554 138.599 540.547 139.523C541.544 140.451 542.781 140.93 544.333 140.93V142L543.999 141.993C542.348 141.927 540.954 141.365 539.817 140.307C538.605 139.178 537.998 137.777 537.998 136.104C537.998 134.558 538.583 133.094 539.754 131.715C540.966 130.293 542.389 129.394 544.02 129.018C548.075 128.14 550.103 126.467 550.103 124C550.102 123.039 549.705 122.224 548.911 121.555C553.343 116.161 556.73 111.979 559.071 109.011C558.904 110.265 558.82 111.833 558.82 113.715C558.82 116.014 558.862 117.792 558.945 119.046C559.029 120.258 559.071 121.492 559.071 122.746L559.066 123.184C558.97 127.702 557.383 131.946 554.305 135.916C551.169 139.972 547.845 142 544.333 142V140.93C547.382 140.93 550.428 139.181 553.458 135.262L553.459 135.261C556.508 131.33 558.001 127.166 558.001 122.746Z" fill="#758AF3"/>
<path d="M537.16 131.247C537.049 131.683 536.961 132.12 536.895 132.56C535.445 133.202 534.015 133.537 532.604 133.537C531.505 133.537 530.475 133.373 529.526 133.033C524.159 140.437 518.861 144.513 513.602 144.513C510.756 144.513 508.318 143.333 506.337 141.075L506.329 141.066L506.322 141.058C504.395 138.763 503.438 136.028 503.438 132.906C503.438 125.95 508.003 119.461 516.558 113.405C522.537 109.153 527.659 106.874 531.852 106.874C533.834 106.874 535.512 107.408 536.679 108.656C537.833 109.891 538.316 111.644 538.316 113.715C538.316 118.594 535.901 124.247 531.318 130.629C531.681 130.721 532.067 130.77 532.479 130.77C533.977 130.769 535.854 130.09 538.147 128.535C537.88 129.098 537.651 129.663 537.46 130.231C535.608 131.302 533.949 131.84 532.479 131.84C531.434 131.84 530.493 131.589 529.657 131.087C534.716 124.314 537.246 118.523 537.246 113.715C537.246 109.868 535.447 107.944 531.852 107.944C528.005 107.944 523.113 110.057 517.176 114.279L516.396 114.84C508.47 120.646 504.508 126.669 504.508 132.906L504.518 133.442C504.62 136.1 505.495 138.409 507.142 140.369C508.939 142.418 511.093 143.442 513.602 143.442C518.452 143.442 523.636 139.533 529.155 131.715C530.159 132.216 531.308 132.467 532.604 132.467C534.059 132.467 535.577 132.06 537.16 131.247ZM525.639 127.073C525.639 124.728 526.574 122.396 528.299 120.097C529.984 117.85 531.851 116.407 533.922 116.407C534.268 116.407 534.601 116.477 534.908 116.617C535.123 115.755 535.234 114.831 535.234 113.84C535.234 112.286 534.882 111.32 534.365 110.747C533.868 110.195 533.057 109.83 531.727 109.83C530.164 109.83 528.283 110.583 526.053 112.331C523.834 114.07 521.368 116.718 518.658 120.316C513.219 127.541 510.658 133.431 510.658 138.049C510.658 139.338 510.967 140.106 511.396 140.555C511.816 140.994 512.524 141.306 513.727 141.306C515.68 141.306 517.82 140.502 520.169 138.73C522.374 137.067 524.711 134.588 527.173 131.255C526.186 129.96 525.639 128.564 525.639 127.073ZM546.214 120.923C546.297 120.923 546.396 120.93 546.502 120.951C546.153 120.983 545.805 121.048 545.458 121.145C545.48 121.131 545.503 121.118 545.526 121.105C545.681 121.022 545.92 120.923 546.214 120.923ZM526.709 127.073C526.709 128.495 527.316 129.875 528.528 131.213C523.176 138.655 518.242 142.376 513.727 142.376C511.054 142.376 509.675 141.023 509.592 138.315L509.588 138.049C509.588 133.229 512.158 127.33 517.298 120.352L517.804 119.673C523.281 112.398 527.922 108.76 531.727 108.76C534.779 108.76 536.305 110.453 536.305 113.84C536.305 115.638 535.971 117.269 535.302 118.732C535.067 117.949 534.647 117.532 534.045 117.482L533.922 117.478C532.375 117.478 530.786 118.565 529.155 120.739L528.859 121.146C527.426 123.177 526.709 125.152 526.709 127.073Z" fill="#758AF3"/>
<path d="M486.445 122.369C486.445 122.119 486.319 121.993 486.068 121.993C485.859 121.993 485.63 122.202 485.379 122.62C481.574 128.223 477.832 132.948 474.152 136.795C470.473 140.599 467.797 142.502 466.125 142.502C464.596 142.502 463.784 141.638 463.688 139.911L463.679 139.554C463.679 137.505 465.602 133.261 469.448 126.822L480.55 108.446C478.752 108.739 477.288 108.886 476.159 108.886V107.815C477.206 107.815 478.607 107.678 480.378 107.39L482.663 107.018L470.364 127.376C468.452 130.577 467.033 133.207 466.096 135.276C465.137 137.392 464.749 138.78 464.749 139.554C464.749 140.415 464.932 140.862 465.114 141.081C465.265 141.262 465.533 141.432 466.125 141.432C466.609 141.431 467.463 141.128 468.766 140.202C470.028 139.305 471.565 137.931 473.383 136.051C477.009 132.26 480.711 127.588 484.487 122.028C484.634 121.788 484.809 121.55 485.02 121.358C485.238 121.16 485.594 120.923 486.068 120.923C486.359 120.923 486.773 120.996 487.107 121.33C487.442 121.664 487.516 122.079 487.516 122.369C487.516 122.724 487.38 123.063 487.275 123.292C487.154 123.558 486.986 123.86 486.783 124.188C486.376 124.845 485.781 125.69 485.011 126.714C483.467 128.766 481.162 131.606 478.106 135.227C475.616 138.223 473.354 140.515 471.321 142.066C469.311 143.601 467.396 144.513 465.623 144.513C463.397 144.513 461.527 143.673 460.104 142.005L460.095 141.993C458.7 140.31 458.03 138.239 458.03 135.854C458.03 135.363 458.059 134.868 458.116 134.366C455.737 137.461 453.777 139.733 452.238 141.155C449.912 143.306 447.51 144.513 445.052 144.513C442.479 144.513 440.322 143.399 438.634 141.289L438.627 141.28C436.949 139.136 436.142 136.487 436.142 133.408C436.142 132.479 436.212 131.564 436.353 130.663C436.869 129.993 437.395 129.296 437.931 128.572C437.452 130.145 437.212 131.757 437.212 133.408L437.221 133.943C437.309 136.591 438.059 138.817 439.47 140.62C440.975 142.502 442.836 143.442 445.052 143.442C447.012 143.442 449.027 142.542 451.097 140.741L451.512 140.369C453.728 138.32 456.926 134.369 461.107 128.516C459.77 131.15 459.101 133.596 459.101 135.854L459.107 136.257C459.178 138.254 459.782 139.939 460.919 141.311C462.131 142.732 463.7 143.442 465.623 143.442C468.466 143.442 472.355 140.474 477.288 134.537C483.202 127.529 486.251 123.504 486.436 122.461L486.445 122.369ZM466.375 108.886C468.257 108.886 469.197 109.91 469.197 111.959C469.197 114.886 466.292 120.28 460.48 128.14C453.373 137.714 448.375 142.502 445.49 142.502C443.217 142.502 442.009 141.307 441.867 138.919L441.854 138.425C441.854 133.784 444.969 127.701 451.198 120.175C457.47 112.649 462.528 108.886 466.375 108.886ZM466.25 106.874C467.703 106.874 468.991 107.225 469.911 108.116C470.39 108.58 470.719 109.143 470.927 109.775L472.272 107.216L473.078 107.404C474.278 107.684 475.302 107.815 476.159 107.815V108.886L475.792 108.879C474.918 108.847 473.933 108.702 472.835 108.446L469.637 114.53C469.971 113.36 470.139 112.419 470.139 111.708C470.139 109.199 468.842 107.944 466.25 107.944C463.198 107.944 459.184 109.324 454.208 112.084C446.549 116.267 441.48 120.87 438.998 125.894C438.212 126.969 437.447 127.991 436.707 128.962C438.46 122.218 444.26 116.298 453.689 111.147L454.621 110.642C459.231 108.184 463.127 106.874 466.25 106.874ZM442.924 138.425C442.924 139.647 443.199 140.363 443.562 140.77C443.903 141.152 444.477 141.432 445.49 141.432C445.931 141.432 446.586 141.241 447.494 140.689C448.388 140.146 449.443 139.305 450.661 138.139C453.096 135.806 456.08 132.27 459.62 127.502C462.511 123.592 464.657 120.325 466.076 117.691C467.518 115.016 468.127 113.138 468.127 111.959C468.127 111.078 467.923 110.617 467.704 110.378C467.501 110.156 467.126 109.956 466.375 109.956C464.788 109.956 462.788 110.742 460.335 112.566C457.9 114.377 455.129 117.128 452.021 120.856C448.937 124.583 446.652 127.919 445.142 130.869C443.628 133.826 442.924 136.335 442.924 138.425Z" fill="#758AF3"/>
<path d="M437.931 128.572C437.678 129.401 437.492 130.241 437.373 131.092C434.436 134.925 431.799 137.945 429.461 140.132C427.966 141.53 426.569 142.612 425.272 143.35C423.982 144.083 422.726 144.513 421.533 144.513C419.431 144.513 417.651 143.714 416.274 142.141L416.251 142.113C414.94 140.51 414.316 138.523 414.316 136.23C414.316 134.542 414.579 132.897 415.102 131.298C416.118 129.994 417.176 128.587 418.271 127.073L418.471 126.8C417.766 128.046 417.259 128.973 416.954 129.582C415.909 131.714 415.387 133.931 415.387 136.23L415.394 136.618C415.46 138.536 416.022 140.142 417.08 141.436C418.251 142.773 419.735 143.442 421.533 143.442C425.12 143.442 430.584 138.485 437.931 128.572ZM442.235 120.923L442.363 120.955C442.371 120.957 442.38 120.96 442.388 120.962C440.964 122.558 439.834 124.202 438.998 125.894C430.898 136.965 425.244 142.502 422.034 142.502C420.545 142.502 419.753 141.675 419.66 140.021L419.651 139.68C419.651 138.007 421.094 134.6 423.979 129.457C426.905 124.314 437.149 107.129 454.71 77.9033C453.372 78.405 451.909 78.6562 450.32 78.6562V77.585C451.795 77.5849 453.129 77.3531 454.334 76.9014L457.209 75.8232L455.628 78.4541C438.063 107.687 427.828 124.858 424.909 129.986C423.478 132.538 422.418 134.636 421.719 136.287C421.002 137.98 420.722 139.077 420.722 139.68C420.722 140.495 420.897 140.907 421.064 141.105C421.202 141.269 421.457 141.432 422.034 141.432C422.599 141.432 423.446 141.153 424.624 140.368C425.78 139.598 427.148 138.414 428.73 136.785C431.885 133.538 435.789 128.635 440.445 122.048C440.731 121.522 441.249 120.923 442.104 120.923H442.235ZM447.271 77.1201C448.465 77.4384 449.478 77.585 450.32 77.585V78.6562L449.952 78.6484C449.079 78.6118 448.093 78.4469 446.996 78.1543C441.811 87.3946 435.435 98.3074 427.867 110.893L425.666 114.56C423.95 117.425 422.479 119.904 421.251 121.995C421.241 121.995 421.23 121.993 421.219 121.993C421.01 121.993 420.78 122.202 420.529 122.62C419.028 124.803 417.597 126.805 416.24 128.629C417.585 126.066 421.167 119.953 426.95 110.341C434.514 97.7616 440.885 86.858 446.062 77.6299L446.469 76.9062L447.271 77.1201Z" fill="#758AF3"/>
<path d="M418.471 126.8C417.766 128.046 417.259 128.973 416.954 129.582C416.596 130.312 416.301 131.052 416.065 131.802C413.347 135.3 410.893 138.082 408.701 140.132C407.206 141.53 405.81 142.612 404.513 143.35C403.222 144.083 401.966 144.513 400.773 144.513C398.547 144.513 396.678 143.673 395.255 142.005L395.245 141.993C393.845 140.303 393.181 138.187 393.181 135.729C393.181 135.165 393.224 134.586 393.308 133.992C391.266 136.582 389.393 138.698 387.684 140.328C386.288 141.659 384.977 142.692 383.755 143.397C382.539 144.099 381.345 144.513 380.202 144.513C377.63 144.513 375.472 143.399 373.784 141.289L373.777 141.28C372.099 139.136 371.292 136.487 371.292 133.408C371.292 125.994 375.917 119.458 384.634 113.76C391.469 109.273 397.049 106.874 401.275 106.874C402.728 106.874 404.015 107.225 404.936 108.116C405.531 108.692 405.895 109.421 406.081 110.247L425.997 76.8867L426.798 77.1299C428.085 77.5198 429.34 77.7109 430.564 77.7109V78.7812L430.062 78.7715C428.886 78.7258 427.695 78.5202 426.487 78.1543L404.098 115.659C404.808 114.196 405.164 112.879 405.164 111.708C405.164 109.199 403.868 107.944 401.275 107.944C397.387 107.944 392.035 110.182 385.22 114.655L384.429 115.183C376.385 120.649 372.362 126.725 372.362 133.408L372.371 133.943C372.459 136.591 373.209 138.817 374.62 140.62C376.125 142.502 377.986 143.442 380.202 143.442C383.756 143.442 389.192 138.258 396.509 127.889C395.004 130.857 394.251 133.471 394.251 135.729L394.258 136.147C394.329 138.217 394.933 139.939 396.069 141.311C397.282 142.732 398.85 143.442 400.773 143.442C404.536 143.442 410.369 137.986 418.271 127.073L418.471 126.8ZM401.149 108.886C403.198 108.886 404.223 109.993 404.223 112.209C404.223 114.509 402.049 118.795 397.7 125.066C389.547 136.69 383.798 142.502 380.453 142.502C378.297 142.502 377.152 141.271 377.018 138.809L377.004 138.3C377.004 133.701 380.077 127.659 386.223 120.175C392.411 112.649 397.386 108.886 401.149 108.886ZM421.219 120.923C421.388 120.923 421.601 120.949 421.814 121.036C421.621 121.364 421.434 121.684 421.251 121.995C421.241 121.995 421.23 121.993 421.219 121.993C421.01 121.993 420.78 122.202 420.529 122.62C411.414 135.874 404.954 142.502 401.149 142.502C399.543 142.502 398.689 141.675 398.589 140.021L398.578 139.68C398.578 137.84 400.648 133.386 404.787 126.32C408.885 119.38 418.773 103.45 434.452 78.5303C432.196 78.6974 430.9 78.7812 430.564 78.7812V77.7109C430.849 77.7109 432.089 77.6321 434.373 77.4629L436.487 77.3066L435.358 79.1006C419.677 104.024 409.797 119.94 405.709 126.865C403.648 130.384 402.116 133.23 401.102 135.411C400.594 136.503 400.224 137.412 399.983 138.145C399.737 138.895 399.648 139.39 399.648 139.68C399.648 140.479 399.833 140.878 400.013 141.075C400.175 141.253 400.485 141.432 401.149 141.432C401.805 141.432 402.715 141.139 403.921 140.36C405.111 139.592 406.498 138.41 408.082 136.784C411.247 133.537 415.097 128.628 419.637 122.027C419.784 121.788 419.959 121.55 420.17 121.358C420.388 121.16 420.744 120.923 421.219 120.923ZM378.074 138.3C378.074 139.581 378.341 140.344 378.693 140.772C379.012 141.161 379.53 141.432 380.453 141.432C380.995 141.432 381.776 141.187 382.836 140.51C383.881 139.842 385.106 138.813 386.513 137.391C389.324 134.548 392.758 130.247 396.82 124.456C398.981 121.34 400.582 118.746 401.638 116.664C402.714 114.542 403.152 113.089 403.152 112.209C403.152 111.247 402.928 110.724 402.669 110.443C402.424 110.178 401.986 109.956 401.149 109.956C399.61 109.956 397.655 110.736 395.241 112.562C392.847 114.372 390.117 117.125 387.05 120.854L387.049 120.854C380.917 128.32 378.074 134.106 378.074 138.3Z" fill="#758AF3"/>
<path d="M353.234 111.833C353.234 108.405 351.666 106.69 348.53 106.69C344.475 106.69 340.168 108.885 335.61 113.275C331.095 117.624 328.837 121.722 328.837 125.568L328.844 125.94C328.915 127.778 329.52 129.284 330.656 130.46C331.91 131.714 333.499 132.342 335.422 132.342C338.905 132.342 342.644 130.105 346.638 125.632L347.025 125.191C351.035 120.574 353.102 116.251 353.228 112.222L353.234 111.833ZM350.533 110.893C350.533 109.902 350.327 109.357 350.098 109.074C349.903 108.834 349.574 108.639 348.906 108.639C347.832 108.639 346.504 109.137 344.895 110.352C343.294 111.559 341.503 113.408 339.527 115.939C335.596 120.988 333.796 125.077 333.796 128.265C333.796 129.206 333.998 129.713 334.218 129.974C334.408 130.199 334.741 130.393 335.422 130.394C336.605 130.394 337.988 129.9 339.595 128.744C341.199 127.59 342.959 125.822 344.868 123.399C348.74 118.498 350.533 114.342 350.533 110.893ZM326.262 87.6875C326.262 86.6721 326.055 86.1077 325.82 85.8135C325.623 85.5659 325.296 85.3711 324.635 85.3711C323.537 85.3712 322.198 85.8709 320.592 87.083C318.993 88.2897 317.214 90.1381 315.259 92.6689C311.329 97.7573 309.525 101.889 309.524 105.122C309.524 106.013 309.723 106.483 309.933 106.722C310.119 106.934 310.456 107.125 311.15 107.125C312.333 107.125 313.717 106.632 315.323 105.477C316.927 104.322 318.686 102.555 320.596 100.133L320.597 100.132C324.471 95.2275 326.262 91.0933 326.262 87.6875ZM351.353 77.4014C351.311 77.2343 351.185 77.109 350.977 77.0254C350.809 77.0254 350.495 77.2342 350.035 77.6523C346.983 80.7463 342.844 83.7775 337.617 86.7461C332.809 89.5056 329.025 92.6422 326.266 96.1543C327.951 93.4495 328.847 91.0566 328.952 88.9766L328.963 88.5654C328.963 85.1369 327.395 83.4219 324.259 83.4219C320.245 83.4219 315.959 85.5969 311.401 89.9453L310.981 90.3516C306.704 94.5477 304.565 98.4888 304.565 102.175L304.572 102.555C304.643 104.431 305.248 105.977 306.385 107.192C307.639 108.488 309.227 109.137 311.15 109.137C315.541 109.137 320.036 105.833 324.635 99.2266C326.908 95.934 329.751 93.2847 333.164 91.2783L333.854 90.8857C339.792 87.5827 344.161 84.4884 346.962 81.6035L345.144 83.7988C331.513 100.356 318.259 117.582 305.381 135.478C307.597 135.268 308.789 135.164 308.956 135.164L309.538 135.175C310.706 135.218 311.897 135.391 313.112 135.692L313.723 135.854C329.276 107.743 341.338 88.9328 349.907 79.4219L350.726 78.5303C351.091 78.1282 351.297 77.7899 351.343 77.5156L351.353 77.4014ZM354.305 111.833C354.305 116.336 352.056 121.031 347.833 125.894C343.635 130.727 339.496 133.412 335.422 133.412C333.241 133.412 331.372 132.69 329.899 131.217L329.893 131.211L329.886 131.204C328.451 129.72 327.767 127.808 327.767 125.568C327.767 121.292 330.27 116.933 334.868 112.505C339.517 108.027 344.077 105.62 348.53 105.62C350.289 105.62 351.797 106.105 352.848 107.254C353.882 108.384 354.305 109.976 354.305 111.833ZM351.598 111.251C351.479 114.972 349.515 119.243 345.708 124.062C341.82 128.996 338.39 131.464 335.422 131.464C333.737 131.464 332.842 130.526 332.736 128.652L332.726 128.265C332.726 124.711 334.712 120.383 338.684 115.282C342.697 110.14 346.105 107.568 348.906 107.568C350.704 107.568 351.604 108.677 351.604 110.893L351.598 111.251ZM327.326 88.042C327.207 91.724 325.244 95.975 321.437 100.795C317.548 105.729 314.119 108.195 311.15 108.195C309.465 108.195 308.57 107.295 308.465 105.494L308.454 105.122C308.454 101.751 310.199 97.7003 313.69 92.9697L314.412 92.0146C318.384 86.872 321.792 84.3009 324.635 84.3008C326.433 84.3008 327.332 85.4297 327.332 87.6875L327.326 88.042ZM352.423 77.4014C352.423 77.7954 352.285 78.1453 352.131 78.4229C351.973 78.7069 351.76 78.9836 351.518 79.25L351.512 79.2559L351.507 79.2617C342.997 88.3504 330.719 107.346 314.659 136.372L314.248 137.114L313.432 136.884C311.887 136.448 310.396 136.234 308.956 136.234C308.95 136.235 308.885 136.238 308.721 136.251C308.556 136.264 308.327 136.283 308.03 136.309C307.438 136.361 306.589 136.439 305.481 136.543L303.136 136.765L304.512 134.853C316.013 118.871 327.815 103.422 339.916 88.5049C338.242 89.5902 336.395 90.6974 334.375 91.8213L334.371 91.8232C330.796 93.7915 327.847 96.4588 325.516 99.835L325.514 99.8389C320.874 106.502 316.1 110.207 311.15 110.207C308.959 110.207 307.086 109.456 305.615 107.937L305.608 107.93L305.603 107.923C304.176 106.398 303.495 104.45 303.495 102.175C303.495 97.9344 306.027 93.5948 310.663 89.1709C315.31 84.7368 319.849 82.3516 324.259 82.3516C326.017 82.3516 327.526 82.837 328.576 83.9854C329.61 85.1158 330.033 86.7087 330.033 88.5654C330.033 89.3463 329.929 90.1544 329.73 90.9893C331.857 89.1328 334.311 87.4106 337.085 85.8184L337.089 85.8154C342.26 82.8784 346.311 79.9033 349.273 76.9004L349.294 76.8799L349.315 76.8604C349.563 76.6352 349.801 76.438 350.021 76.291C350.132 76.2174 350.259 76.1428 350.396 76.083C350.523 76.028 350.728 75.9551 350.977 75.9551H351.183L351.374 76.0312C351.795 76.1996 352.241 76.5429 352.391 77.1416L352.423 77.2695V77.4014Z" fill="#758AF3"/>
<path d="M293.967 92.3906C293.967 87.125 292.711 82.8601 290.199 79.5957L289.952 79.2832C287.318 75.9802 283.785 74.3282 279.354 74.3281C272.246 74.3281 262.733 79.3247 250.817 89.3174L249.544 90.4072C236.595 101.656 230.12 112.728 230.12 123.624L230.125 124.146C230.221 129.513 231.808 133.939 234.887 137.422C238.106 140.976 242.225 142.753 247.242 142.753C256.842 142.753 267.265 136.572 278.513 124.212L279.604 122.997C288.88 112.506 293.662 102.604 293.952 93.29L293.967 92.3906ZM288.317 85.4922C288.317 82.2189 287.529 79.9621 286.14 78.5205C284.758 77.0864 282.606 76.2764 279.479 76.2764C274.488 76.2765 268.51 79.2343 261.505 85.5352L261.503 85.5371C254.866 91.4737 249.166 98.6331 244.411 107.026L244.412 107.027C239.443 115.847 237.023 123.522 237.023 130.084C237.023 133.863 237.919 136.499 239.521 138.191C241.113 139.872 243.577 140.804 247.117 140.804C255.785 140.804 264.747 134.748 273.971 121.993V121.992C278.309 116.001 281.777 109.664 284.377 102.979L284.379 102.973C287.024 96.2766 288.317 90.4567 288.317 85.4922ZM295.037 92.3906C295.037 102.332 290.069 112.778 280.406 123.706H280.405C268.684 136.939 257.626 143.823 247.242 143.823C241.939 143.823 237.526 141.93 234.094 138.141L234.085 138.131C230.706 134.307 229.05 129.441 229.05 123.624C229.05 111.912 236.233 100.205 250.128 88.499L250.129 88.4971C256.122 83.4713 261.544 79.6736 266.391 77.1279C271.228 74.5869 275.56 73.2578 279.354 73.2578C284.09 73.2579 287.936 75.0418 290.784 78.6094L291.049 78.9443C293.738 82.4409 295.037 86.9548 295.037 92.3906ZM289.384 85.9766C289.303 91.008 287.966 96.8045 285.374 103.366C282.74 110.14 279.228 116.558 274.838 122.62L273.968 123.805C264.978 135.851 256.028 141.875 247.117 141.875C239.907 141.875 236.189 138.186 235.964 130.81L235.953 130.084C235.953 123.269 238.462 115.408 243.479 106.502C248.288 98.0144 254.058 90.76 260.789 84.7393C267.855 78.3841 274.085 75.2061 279.479 75.2061C286.085 75.2061 289.388 78.6351 289.388 85.4922L289.384 85.9766Z" fill="#758AF3"/>
<path d="M220.086 123.248C220.044 123.123 219.96 123.039 219.835 122.997C219.501 122.997 219.27 123.247 219.145 123.749C218.057 128.181 215.988 131.84 212.936 134.725C209.925 137.609 206.644 139.053 203.09 139.053V137.981C206.32 137.981 209.347 136.681 212.195 133.952L212.201 133.947C215.091 131.216 217.063 127.744 218.105 123.494L218.106 123.489C218.192 123.148 218.34 122.769 218.622 122.462C218.936 122.12 219.362 121.927 219.835 121.927H220.009L220.173 121.981C220.618 122.13 220.953 122.464 221.102 122.909L221.156 123.074V123.248C221.156 125.991 219.552 129.407 216.691 133.403L216.69 133.405C211.298 140.911 204.494 144.764 196.316 144.764C193.266 144.764 188.854 143.866 183.15 142.146V142.147C179.753 141.126 176.99 140.364 174.855 139.858C172.691 139.346 171.258 139.119 170.477 139.119C168.427 139.119 166.992 139.531 166.039 140.218C165.119 140.882 164.524 141.894 164.325 143.395L164.324 143.394C164.275 143.922 164.161 144.457 163.896 144.893C163.584 145.406 163.061 145.768 162.386 145.768C162.054 145.768 161.608 145.683 161.253 145.328C160.898 144.973 160.814 144.528 160.814 144.195C160.814 142.926 161.347 141.558 162.229 140.135C163.122 138.696 164.432 137.103 166.134 135.358C169.067 132.34 172.059 129.859 175.109 127.926L175.118 127.92L175.128 127.914C178.359 125.958 184.175 123.01 192.536 119.08C202.945 114.187 211.037 108.594 216.855 102.324C222.723 96.0053 225.538 89.8768 225.538 83.9238C225.538 81.5977 224.69 79.825 222.998 78.4932L222.989 78.4863C221.312 77.1372 218.963 76.4024 215.821 76.4023C208.835 76.4023 201.113 79.9997 192.634 87.4863L192.632 87.4883C184.127 94.9562 180.14 101.688 180.14 107.693C180.14 109.836 180.77 111.266 181.872 112.188C183.011 113.142 184.836 113.71 187.535 113.71C191.706 113.71 196.491 111.677 201.921 107.357C207.371 103.013 211.038 98.3731 213.002 93.4512C213.089 93.1851 213.22 92.8922 213.441 92.6465C213.711 92.3469 214.099 92.1358 214.566 92.1357C214.857 92.1357 215.271 92.209 215.605 92.543C215.94 92.8771 216.014 93.2916 216.014 93.582C216.014 94.7829 215.435 96.2003 214.516 97.75C213.575 99.3367 212.184 101.211 210.367 103.365C207.154 107.178 203.444 110.312 199.237 112.759C195.048 115.195 191.201 116.479 187.724 116.479C184.276 116.478 181.397 115.44 179.198 113.288L179.189 113.28V113.279C177.032 111.122 175.991 108.281 175.991 104.871C175.991 96.5195 181.518 88.9209 191.964 82.0273V82.0264C200.518 76.3945 208.562 73.5088 216.072 73.5088C221.158 73.5089 225.392 74.8811 228.676 77.71L228.984 77.9756C232.125 80.7455 233.699 84.3459 233.699 88.6904C233.699 94.7959 231.163 100.208 226.216 104.896L226.212 104.899C222.725 108.174 219.118 110.823 215.389 112.838L215.381 112.842C211.685 114.796 204.462 117.909 193.765 122.171L193.766 122.172C184.435 125.904 177.219 129.802 172.053 133.84C173.941 133.258 175.904 132.965 177.939 132.965C181.569 132.965 186.31 133.9 192.119 135.71H192.12C197.032 137.25 200.667 137.981 203.09 137.981V139.053L202.59 139.043C200.022 138.952 196.426 138.182 191.801 136.731C186.392 135.046 181.993 134.151 178.604 134.046L177.939 134.035C173.508 134.035 169.431 135.498 165.71 138.425C170.769 132.279 179.989 126.53 193.368 121.178C204.072 116.913 211.242 113.819 214.88 111.896C218.29 110.053 221.608 107.66 224.835 104.715L225.479 104.119C230.246 99.6035 232.629 94.4604 232.629 88.6904C232.629 84.6399 231.177 81.3348 228.273 78.7754L227.988 78.5303C224.936 75.8962 220.964 74.5792 216.072 74.5791C208.839 74.5791 200.999 77.36 192.553 82.9209C182.226 89.736 177.062 97.0526 177.062 104.871C177.062 108.049 178.024 110.6 179.947 112.523C181.912 114.446 184.504 115.408 187.724 115.408C190.943 115.408 194.602 114.216 198.699 111.833C202.797 109.45 206.413 106.398 209.549 102.677C213.032 98.5455 214.828 95.5713 214.938 93.7549L214.943 93.582C214.943 93.3315 214.817 93.2061 214.566 93.2061C214.316 93.2062 214.127 93.4152 214.002 93.833C211.953 98.9757 208.149 103.763 202.588 108.195C197.069 112.586 192.051 114.781 187.535 114.781C181.891 114.781 179.068 112.418 179.068 107.693C179.069 101.213 183.355 94.2095 191.926 86.6836C200.497 79.1157 208.462 75.332 215.821 75.332C219.124 75.3321 221.737 76.1055 223.66 77.6523C225.625 79.1993 226.608 81.2898 226.608 83.9238L226.6 84.5166C226.418 90.6365 223.432 96.8152 217.64 103.053C211.702 109.45 203.487 115.115 192.992 120.049L189.978 121.476C183.228 124.695 178.462 127.146 175.682 128.829C172.713 130.711 169.786 133.136 166.901 136.104C163.557 139.533 161.885 142.23 161.885 144.195C161.885 144.488 162.012 144.653 162.269 144.689L162.386 144.697C162.887 144.697 163.18 144.216 163.264 143.254C163.724 139.784 166.128 138.049 170.477 138.049C172.316 138.049 176.644 139.073 183.459 141.122C188.79 142.729 192.89 143.583 195.759 143.684L196.316 143.693C204.093 143.693 210.595 140.055 215.821 132.78C218.575 128.933 219.996 125.83 220.082 123.474L220.086 123.248Z" fill="#758AF3"/>
<path d="M134.603 123.432C135.623 123.432 137.538 123.777 140.224 124.396C142.518 124.897 144.093 125.125 145.014 125.125V126.195L144.592 126.184C143.54 126.129 142.008 125.881 139.996 125.442C137.618 124.894 135.944 124.585 134.975 124.517L134.603 124.502C133.097 124.502 130.714 125.066 127.453 126.195C124.234 127.324 122.623 128.14 122.623 128.642C122.654 128.736 122.722 128.806 122.823 128.853L122.938 128.893C123.105 128.893 123.23 128.85 123.313 128.767C124.902 127.93 126.575 127.513 128.331 127.513L128.749 127.524C129.787 127.579 131.258 127.826 133.16 128.265C134.77 128.63 136.315 128.837 137.797 128.883L138.428 128.893C140.226 128.893 142.839 128.369 146.268 127.324C149.588 126.271 151.301 125.493 151.405 124.989L151.41 124.941C151.41 124.774 151.327 124.691 151.16 124.69C150.993 124.69 150.783 124.774 150.532 124.941L150.21 125.093C148.588 125.828 146.856 126.195 145.014 126.195V125.125C146.81 125.125 148.479 124.746 150.034 123.992C150.33 123.807 150.72 123.62 151.16 123.62L151.368 123.635C151.595 123.667 151.869 123.761 152.104 123.996C152.418 124.309 152.481 124.693 152.481 124.941C152.481 125.314 152.323 125.602 152.188 125.782C152.052 125.965 151.886 126.111 151.734 126.226C151.43 126.455 151.029 126.673 150.575 126.884C149.655 127.31 148.318 127.797 146.592 128.345L146.58 128.348C143.13 129.4 140.391 129.963 138.428 129.963C136.666 129.963 134.83 129.742 132.923 129.309L132.919 129.308C130.756 128.809 129.247 128.583 128.331 128.583C126.781 128.583 125.305 128.943 123.891 129.673C123.573 129.901 123.216 129.963 122.938 129.963H122.806L122.678 129.931C122.277 129.83 121.801 129.556 121.608 128.979L121.553 128.815V128.642C121.553 128.288 121.694 128.009 121.819 127.828C121.946 127.645 122.102 127.496 122.247 127.378C122.536 127.141 122.918 126.916 123.347 126.698C124.215 126.258 125.476 125.754 127.099 125.186L127.103 125.184C130.369 124.053 132.902 123.432 134.603 123.432Z" fill="#758AF3"/>
<path d="M854.778 54.1354C851.479 55.9225 847.133 57.2289 843.645 58.697C839.129 60.5988 834.024 63.2552 829.357 64.8451C828.905 65.0008 828.723 64.4482 828.517 65.3912C828.018 65.2152 827.343 65.5814 826.848 65.8096C824.621 66.8285 822.105 67.9524 819.869 68.7855C819.635 68.8748 819.363 68.8676 819.119 68.9342L819.319 69.2513C818.653 69.3689 817.98 69.5226 817.358 69.7651C815.562 70.4597 813.512 71.6176 811.73 72.3785C811.262 72.5817 810.175 72.701 809.628 72.8897L809.829 73.2068C809.227 73.322 808.547 73.4473 807.982 73.6741C807.665 73.804 807.226 74.0658 806.695 74.2809C804.506 75.1743 802.464 76.3454 800.138 76.8452L800.371 77.0919L800.177 77.3611C799.273 76.9664 798.633 77.9036 798.031 78.182C797.859 78.2594 797.251 78.2228 797.027 78.3101C795.347 78.9923 793.227 80.2229 791.544 80.7476C791.266 80.8354 790.966 80.8683 790.698 80.732L790.749 81.2554C789.886 81.1147 789.133 81.8858 788.489 82.1475C782.789 84.4388 777.34 86.9539 771.644 89.1656C770.909 89.4546 770.225 89.6596 769.435 89.7271L769.668 89.9737L769.474 90.2429C769.299 90.1628 769.083 90.1153 768.886 90.1777C767.747 90.5441 766.419 91.3315 765.286 91.8004C754.772 96.1346 744.156 100.735 733.576 105.112C733.081 105.315 732.009 105.476 731.727 105.595C731.47 105.703 731.552 106.122 731.418 106.172C731.353 106.199 731.044 106.046 730.818 106.124C729.944 106.42 728.463 107.123 727.497 107.52C714.011 113.066 700.923 118.925 687.428 124.309C686.411 124.716 684.464 125.781 683.461 125.983C683.388 125.996 682.027 125.902 681.946 125.878C681.549 125.746 681.189 125.465 680.844 125.249C681.149 124.554 681.628 123.791 682.28 123.321C682.456 123.188 685.055 122.048 685.348 121.953C685.574 121.875 685.873 122.03 685.947 122.001C686.072 121.953 686.01 121.555 686.257 121.423C686.455 121.321 686.784 121.461 686.974 121.395C688.775 120.793 690.818 119.483 692.706 118.885C693.065 118.772 693.363 119.139 693.483 118.686L693.25 118.44C694.026 118.38 694.498 118.245 695.19 117.93C696.947 117.129 698.987 116.122 700.851 115.32C701.33 115.115 702.383 114.992 702.937 114.807L702.736 114.49C703.338 114.375 704.018 114.249 704.583 114.023C704.971 113.869 705.55 113.561 706.11 113.33C708.225 112.466 710.173 111.313 712.427 110.852L712.227 110.534C712.637 110.436 713.07 110.417 713.462 110.258C715.515 109.406 719.189 107.409 721.141 106.906C721.5 106.818 721.841 107.039 721.967 106.827L721.667 106.648L721.865 106.373C722.622 106.712 723.486 105.786 724.082 105.553C732.055 102.352 739.778 99.224 747.725 95.8851C748.149 95.705 748.882 95.1845 749.41 95.0092C749.607 94.9468 749.925 95.0883 750.124 94.9861C750.37 94.8549 750.309 94.457 750.433 94.4085C750.653 94.3269 751.524 94.2094 752.1 93.9806C754.294 93.1062 756.676 92.0081 758.961 91.057C764.79 88.6221 771.047 85.9674 777.098 83.4358C780.04 82.2058 782.806 81.1823 785.783 79.9406C787.005 79.435 788.558 78.4957 789.787 78.1172C790.267 77.9708 790.414 78.5104 790.627 77.5711C791.416 77.8642 792.227 76.9882 792.844 76.7268C799.421 73.9858 806.012 71.3756 812.444 68.6871C814.441 67.8504 816.438 66.841 818.421 66.1353C818.802 66.003 819.082 66.4827 818.946 65.6052C819.764 65.9569 820.542 65.1267 821.178 64.8765C823.233 64.0583 825.83 62.8104 827.838 62.169C828.197 62.0559 828.495 62.4234 828.616 61.9707L828.382 61.7241C829.158 61.6644 829.631 61.5295 830.322 61.2143C831.126 60.8431 831.756 60.6385 832.597 60.2898C834.41 59.5229 836.068 58.4253 838.069 58.0914L837.868 57.7743C838.47 57.6591 839.15 57.5338 839.715 57.307C840.171 57.121 840.877 56.7734 841.48 56.5197C843.502 55.6732 845.376 54.5244 847.559 54.1359L847.359 53.8188C847.709 53.7171 848.143 53.7229 848.474 53.5854C849.831 53.0292 851.158 52.3405 852.546 51.7784C853.518 51.385 853.645 51.3953 854.567 51.2679C854.961 51.2171 855.211 50.8336 855.419 50.8678C855.821 50.929 856.758 51.3518 856.894 51.7454C856.973 52.1451 856.889 52.5462 856.616 52.8749C856.374 53.173 855.132 53.9294 854.747 54.1414L854.778 54.1354Z" fill="#758AF3"/>
<path d="M846.977 93.1052C842.996 94.4256 838.564 95.3437 834.423 96.4282C816.231 101.201 797.352 106.022 779.14 110.923C757.786 116.302 737.045 121.761 715.732 127.369C708.786 129.109 702.195 130.791 695.247 132.596C686.127 134.96 677.034 137.373 668.005 139.734C667.708 139.342 666.325 139.563 666.189 139.49C665.194 138.95 665.4 137.908 666.193 137.243C666.321 137.139 666.572 137.274 666.726 137.21C669.529 136.061 671.728 135.674 674.775 134.868C715.041 124.188 755.128 114.164 794.968 103.393C795.919 103.463 797.692 102.837 798.735 102.568C802.601 101.581 806.506 100.625 810.266 99.6484C816.237 98.0948 822.086 96.4759 828.018 94.9397C833.127 93.6154 838.146 92.4419 843.234 91.0722C844.774 90.6588 846.318 90.1656 848.083 90.1829C849.637 90.1963 849.975 91.425 848.814 92.3286C848.202 92.8064 847.611 92.8949 846.977 93.1052Z" fill="#758AF3"/>
<path d="M794.764 44.747L794.334 44.5135L793.615 45.4361L793.191 45.2063L771.917 59.1848L771.493 58.9549C771.328 58.9867 771.081 59.6264 770.861 59.8067C770.793 59.8642 769.581 60.3185 769.308 60.5239C763.398 65.0525 755.062 69.7991 748.673 73.8024C742.284 77.8056 734.786 82.4806 728.114 86.8638C727.435 87.3099 726.959 87.7219 726.374 88.2241C726.279 88.3065 725.341 88.1702 725.146 88.9973L724.716 88.7638L723.997 89.6865L723.567 89.4529C723.331 90.1646 722.712 90.1054 722.408 90.3167C716.318 94.3762 710.204 98.3961 703.908 102.209C703.264 102.594 702.509 103.43 701.76 103.415L701.311 104.237L700.874 103.999L700.162 104.926L699.731 104.692C699.512 104.897 699.416 105.192 699.167 105.388C698.84 105.643 697.535 106.214 697.173 106.456C693.497 108.878 689.815 111.519 686.054 113.562C685.659 113.776 684.17 114.639 683.861 114.659C683.77 114.661 682.753 114.486 682.699 114.462C682.543 114.368 682.697 113.944 681.99 114.119L682.349 113.3C681.738 112.473 683.306 113.136 682.543 112.472L682.733 112.209C682.839 112.272 682.964 112.347 683.094 112.278C683.74 111.902 684.678 110.824 685.341 110.376C685.537 110.24 685.8 110.446 686 110.304C686.433 109.989 686.274 109.492 687.104 109.629L687.553 108.807L687.99 109.045L688.626 108.162L689.133 108.352C689.65 107.398 690.838 107.2 691.66 106.569C692.229 106.139 692.958 105.215 693.438 104.772C693.576 104.642 693.899 105.049 694.008 104.589L693.758 104.341C694.042 104.158 694.232 104.551 694.256 104.541C694.296 104.524 694.456 104.078 694.68 103.893C695.94 102.851 697.769 102.234 699.196 101.408C700.623 100.582 702.042 99.5546 703.519 98.709C705.455 97.5976 707.117 96.5683 709.001 95.3681C709.877 94.8104 711.095 94.4091 711.646 93.5334L712.076 93.767C712.356 92.9828 712.953 93.0213 713.34 92.7695C718.255 89.5719 723.818 86.2057 728.626 82.7966C728.897 82.6064 730.986 81.2584 731.129 81.1965C731.429 81.0649 731.837 81.3916 732.201 80.4776L732.631 80.7112L733.344 79.7848L733.774 80.043C733.949 79.18 734.359 79.4175 734.812 79.1233C741.242 74.8901 747.56 70.9349 753.965 66.7607C754.348 66.5146 755.046 66.1785 755.456 65.8827C755.708 65.706 755.823 65.4469 756.034 65.2535L756.458 65.4833L757.177 64.5606L757.607 64.7942L778.978 50.6688L779.408 50.9024L780.121 49.976L780.551 50.2342C780.704 50.0469 780.701 49.7908 780.894 49.6354C781.645 49.0275 783.008 48.4257 783.858 47.8777C787.129 45.7701 790.719 43.5421 793.925 41.2643C794.041 41.1779 796.415 40.042 796.558 40.0047C796.819 39.9398 798.548 40.2307 798.579 40.3728C798.145 40.7275 798.57 41.278 798.521 41.5195C798.484 41.6944 798.181 41.6438 798.098 41.7584C797.648 42.3827 796.763 43.3125 796.045 43.8253C795.677 44.0884 795.008 43.9992 794.756 44.7585L794.764 44.747Z" fill="#758AF3"/>
<path d="M761.821 39.9446C761.821 39.9446 761.586 39.7625 761.457 39.8661C760.963 40.2669 760.258 41.5671 759.658 42.0769L759.197 42.1207L759.497 42.3003L759.298 42.5753C759.199 42.5154 759.074 42.3912 758.946 42.4948C758.393 42.9264 757.806 43.7152 757.258 44.1904C748.504 51.6732 739.976 59.3742 731.468 66.9479C722.961 74.5216 714.73 81.8595 706.285 89.4706C704.314 91.2503 702.158 92.9518 700.309 94.6982C699.147 95.7897 697.895 97.4513 696.755 98.425C696.66 98.5074 695.832 99.0116 695.507 99.3009C695.3 99.4887 694.736 100.135 694.597 100.166C694.5 100.19 692.796 100.062 692.586 99.969C692.062 98.702 692.241 97.7839 693.256 96.76C693.428 96.584 693.743 96.5434 693.944 96.3519C696.498 93.8879 698.881 91.9207 701.489 89.5796C702.277 88.8708 702.973 87.8439 704.021 87.4555L703.821 87.1384C704.114 87.1169 704.321 86.9785 704.526 86.806C706.212 85.4216 707.566 83.9527 709.15 82.5482C709.647 82.1076 710.712 81.7702 710.562 81.0485C711.227 81.3655 711.569 80.0361 712.355 80.0484L712.106 79.8L712.3 79.5308C712.408 79.6039 712.522 79.6807 712.667 79.6036C713.334 79.2241 715.225 77.1339 715.955 76.4806C716.776 75.7506 718.155 74.9533 718.539 74.1245C719.172 74.2994 718.907 73.9108 719.133 73.7096C719.488 73.3897 720.359 72.4429 720.64 72.71L720.64 72.1274C721.305 72.4444 721.647 71.115 722.433 71.1273L722.183 70.8789L722.377 70.6097C722.816 70.9305 722.707 70.512 722.92 70.3527C724.226 69.3719 725.744 68.0345 726.958 66.9577C727.473 66.5036 728.049 65.6428 728.612 65.2338C728.776 65.1186 728.961 65.3201 728.976 65.3124C729.1 65.2639 728.883 64.945 728.964 64.821C729.005 64.7637 729.533 64.5884 729.748 64.4139C730.111 64.1224 730.283 63.4378 730.713 63.7947L730.513 63.4775L730.707 63.2083C731.098 63.484 731.79 62.6109 732.129 62.2892C733.459 61.0273 735.17 59.5592 736.736 58.2422C736.922 58.0831 736.929 57.6523 737.458 57.699L737.258 57.3819C738.073 57.4035 738.43 56.0664 739.051 56.3818C738.877 55.6698 739.385 55.8685 739.824 55.4834C742.153 53.4179 744.508 51.0069 747.053 48.9396C747.181 48.836 747.368 48.8003 747.536 48.778L747.336 48.4609L755.876 41.3746L755.676 41.0575C755.897 41.0347 756.101 40.9514 756.27 40.8152C757.127 40.1229 759.625 37.8226 760.633 37.7135C761.436 37.6289 761.794 38.2464 762.329 38.6574C762.149 38.8449 761.921 39.012 761.848 39.2631C761.763 39.5655 762.243 39.7797 761.831 39.9179L761.821 39.9446Z" fill="#758AF3"/>
<path d="M726.944 147.291C726.84 147.311 726.661 147.113 726.535 147.128C726.456 147.138 725.81 147.563 725.451 147.651C723.428 148.152 721.058 148.256 719.138 148.54C715.716 149.047 712.544 149.63 709.2 150.191C707.199 150.525 705.04 150.633 703.019 150.946C699.738 151.456 696.492 152.117 693.081 152.598C691.074 152.878 688.807 153.159 686.798 153.455C683.995 153.874 681.225 154.345 678.511 154.678C676.597 154.916 674.784 155.559 673.186 154.231C673.05 153.912 674.135 152.593 674.479 152.389C674.665 152.279 674.834 152.528 674.971 152.512C675.989 152.376 678.119 151.603 679.591 151.395C689.001 150.066 698.293 148.578 707.806 147.155C711.211 146.646 715.012 146.195 718.429 145.693C720.868 145.335 723.307 144.665 725.805 144.769C726.16 144.785 726.429 144.561 726.83 144.711C727.349 144.908 727.676 145.408 728.228 145.559C728.014 145.857 728.113 146.376 727.85 146.629C727.761 146.715 727.002 147.285 726.946 147.301L726.944 147.291Z" fill="#758AF3"/>
<path d="M816.843 202.085C813.123 202.085 811.483 200.645 811.483 197.405V184.885H808.603V181.885H811.483V176.325H815.043V181.885H819.123V184.885H815.043V197.285C815.043 198.605 815.643 198.845 817.123 198.845C817.563 198.845 818.283 198.765 818.963 198.645L819.043 201.885C818.523 201.965 817.723 202.085 816.843 202.085Z" fill="#758AF3"/>
<path d="M807.156 198.924L807.236 201.884C806.476 202.004 805.796 202.044 804.996 202.044C802.796 202.044 801.596 201.004 801.396 198.924C800.276 201.204 798.076 202.364 794.676 202.364C791.316 202.364 787.956 200.524 787.956 196.604C787.956 192.284 791.596 191.084 794.756 190.484L801.356 189.204C801.356 187.404 801.276 186.404 800.676 185.564C800.116 184.764 798.796 184.244 797.036 184.244C793.556 184.244 792.156 185.524 792.156 188.564L788.636 188.084C788.716 185.684 789.556 183.924 791.116 182.884C792.556 181.924 794.676 181.404 797.236 181.404C802.276 181.404 804.836 183.644 804.836 188.004V197.564C804.836 198.604 804.836 199.084 805.996 199.084C806.316 199.084 806.636 199.044 807.156 198.924ZM801.356 194.324V191.884L795.316 193.204C793.196 193.684 791.636 194.284 791.636 196.564C791.636 198.444 793.276 199.484 795.236 199.484C799.596 199.484 801.356 197.204 801.356 194.324Z" fill="#758AF3"/>
<path d="M783.21 202.085C779.49 202.085 777.85 200.645 777.85 197.405V184.885H774.97V181.885H777.85V176.325H781.41V181.885H785.49V184.885H781.41V197.285C781.41 198.605 782.01 198.845 783.49 198.845C783.93 198.845 784.65 198.765 785.33 198.645L785.41 201.885C784.89 201.965 784.09 202.085 783.21 202.085Z" fill="#758AF3"/>
<path d="M756.654 201.885V199.085L766.174 187.485C766.734 186.805 767.654 185.765 768.414 184.925V184.885C767.254 184.925 765.814 184.965 765.054 184.965H757.294V181.885H772.534V184.365L763.254 195.805C762.974 196.165 761.934 197.405 760.734 198.765V198.805H773.174V201.885H756.654Z" fill="#758AF3"/>
<path d="M745.922 202.364C741.442 202.364 737.402 200.284 737.442 195.324L740.722 195.004C740.682 197.804 742.722 199.524 745.842 199.524C749.122 199.524 750.762 198.404 750.762 196.284C750.762 194.004 747.082 193.724 744.322 193.004C741.082 192.164 737.882 191.204 737.882 187.244C737.882 183.084 741.722 181.404 745.282 181.404C749.522 181.404 753.202 183.084 753.642 187.964L750.282 188.484C750.202 185.724 748.402 184.244 745.242 184.244C743.282 184.244 741.242 185.164 741.242 187.004C741.242 188.844 743.642 189.364 746.042 189.884C750.042 190.724 754.162 191.404 754.162 196.084C754.162 200.964 749.962 202.364 745.922 202.364Z" fill="#758AF3"/>
<path d="M734.773 181.444C735.053 181.404 735.813 181.404 736.093 181.404L736.013 184.804C735.773 184.764 735.453 184.764 735.093 184.764C731.293 184.764 728.533 185.964 728.533 192.404V201.884H724.933V181.884H728.533V185.404C729.093 183.484 731.493 181.684 734.773 181.444Z" fill="#758AF3"/>
<path d="M721.492 198.924L721.572 201.884C720.812 202.004 720.132 202.044 719.332 202.044C717.132 202.044 715.932 201.004 715.732 198.924C714.612 201.204 712.412 202.364 709.012 202.364C705.652 202.364 702.292 200.524 702.292 196.604C702.292 192.284 705.932 191.084 709.092 190.484L715.692 189.204C715.692 187.404 715.612 186.404 715.012 185.564C714.452 184.764 713.132 184.244 711.372 184.244C707.892 184.244 706.492 185.524 706.492 188.564L702.972 188.084C703.052 185.684 703.892 183.924 705.452 182.884C706.892 181.924 709.012 181.404 711.572 181.404C716.612 181.404 719.172 183.644 719.172 188.004V197.564C719.172 198.604 719.172 199.084 720.332 199.084C720.652 199.084 720.972 199.044 721.492 198.924ZM715.692 194.324V191.884L709.652 193.204C707.532 193.684 705.972 194.284 705.972 196.564C705.972 198.444 707.612 199.484 709.572 199.484C713.932 199.484 715.692 197.204 715.692 194.324Z" fill="#758AF3"/>
<path d="M678.706 201.885L672.026 181.885H675.906L679.026 192.565C679.146 192.965 679.986 196.005 680.626 198.445C681.066 196.485 681.746 193.525 681.986 192.565L684.666 181.885H688.026L690.666 192.565C690.986 193.885 691.546 196.405 691.986 198.445C692.586 196.125 693.106 194.165 693.586 192.565L696.786 181.885H700.666L693.986 201.885H690.106L687.426 191.565C687.226 190.805 686.706 188.325 686.306 186.325C685.946 188.205 685.546 190.245 685.226 191.565L682.626 201.885H678.706Z" fill="#758AF3"/>
<path d="M652.864 181.365C658.264 181.365 661.944 185.565 661.944 191.885C661.944 198.405 658.064 202.365 652.744 202.365C650.064 202.365 647.904 201.245 646.424 198.965V201.885H642.824V173.885H646.424V184.485C647.944 182.365 650.064 181.365 652.864 181.365ZM652.104 199.605C656.784 199.605 657.984 196.565 657.984 191.885C657.984 187.085 656.504 184.205 652.024 184.205C647.144 184.205 646.304 188.205 646.304 191.925C646.304 196.965 648.264 199.605 652.104 199.605Z" fill="#758AF3"/>
<path d="M633.96 181.885H637.56V201.885H633.96V198.885C632.88 201.165 630.64 202.365 627.8 202.365C625.2 202.365 623.32 201.645 621.88 200.125C620.32 198.485 620.28 195.965 620.28 193.845V181.885H624V193.645C624 195.485 623.96 197.045 625.16 198.205C626.32 199.325 627.64 199.365 628.8 199.365C630.6 199.365 633.96 198.925 633.96 193.125V181.885Z" fill="#758AF3"/>
<path d="M611.613 201.885V173.885H615.213V201.885H611.613Z" fill="#758AF3"/>
<path d="M593.785 173.885H597.385V201.885H593.785V198.965C592.305 201.245 590.145 202.365 587.465 202.365C582.145 202.365 578.265 198.405 578.265 191.885C578.265 185.565 581.945 181.405 587.345 181.405C590.145 181.405 592.265 182.365 593.785 184.485V173.885ZM588.105 199.525C591.945 199.525 593.905 196.965 593.905 191.925C593.905 188.205 593.065 184.285 588.185 184.285C583.705 184.285 582.225 187.085 582.225 191.885C582.225 196.565 583.425 199.525 588.105 199.525Z" fill="#758AF3"/>
<path d="M575.984 198.924L576.064 201.884C575.304 202.004 574.624 202.044 573.824 202.044C571.624 202.044 570.424 201.004 570.224 198.924C569.104 201.204 566.904 202.364 563.504 202.364C560.144 202.364 556.784 200.524 556.784 196.604C556.784 192.284 560.424 191.084 563.584 190.484L570.184 189.204C570.184 187.404 570.104 186.404 569.504 185.564C568.944 184.764 567.624 184.244 565.864 184.244C562.384 184.244 560.984 185.524 560.984 188.564L557.464 188.084C557.544 185.684 558.384 183.924 559.944 182.884C561.384 181.924 563.504 181.404 566.064 181.404C571.104 181.404 573.664 183.644 573.664 188.004V197.564C573.664 198.604 573.664 199.084 574.824 199.084C575.144 199.084 575.464 199.044 575.984 198.924ZM570.184 194.324V191.884L564.144 193.204C562.024 193.684 560.464 194.284 560.464 196.564C560.464 198.444 562.104 199.484 564.064 199.484C568.424 199.484 570.184 197.204 570.184 194.324Z" fill="#758AF3"/>
<path d="M554.265 182.565V185.645L551.225 188.005V201.885H547.625V190.805L544.665 193.125V190.045L547.625 187.725V173.885H551.225V184.925L554.265 182.565Z" fill="#758AF3"/>
<path d="M539.691 201.885L533.091 191.605L530.291 194.245V201.885H526.691V173.885H530.291V190.165L538.651 181.885H543.531L535.651 189.245L543.891 201.885H539.691Z" fill="#758AF3"/>
<path d="M520.035 181.885H523.795L515.635 203.725C513.995 208.125 512.555 210.085 509.795 210.085C508.835 210.085 507.755 209.965 506.755 209.685L506.835 206.325C507.555 206.565 508.395 206.765 509.315 206.765C510.795 206.765 511.475 205.125 512.795 201.725L504.995 181.885H508.835L512.635 192.685C513.115 194.045 513.755 196.005 514.395 198.005C515.195 195.565 515.635 194.285 516.195 192.685L520.035 181.885Z" fill="#758AF3"/>
<path d="M482.456 201.885L475.776 181.885H479.656L482.776 192.565C482.896 192.965 483.736 196.005 484.376 198.445C484.816 196.485 485.496 193.525 485.736 192.565L488.416 181.885H491.776L494.416 192.565C494.736 193.885 495.296 196.405 495.736 198.445C496.336 196.125 496.856 194.165 497.336 192.565L500.536 181.885H504.416L497.736 201.885H493.856L491.176 191.565C490.976 190.805 490.456 188.325 490.056 186.325C489.696 188.205 489.296 190.245 488.976 191.565L486.376 201.885H482.456Z" fill="#758AF3"/>
<path d="M466.654 206.284L466.774 208.764C466.294 208.884 465.614 209.124 464.534 209.124C461.654 209.124 460.374 207.644 460.374 205.764C460.374 203.964 461.894 202.684 463.214 201.964C461.654 201.684 460.774 200.684 460.614 198.924C459.494 201.204 457.294 202.364 453.894 202.364C450.534 202.364 447.174 200.524 447.174 196.604C447.174 192.284 450.814 191.084 453.974 190.484L460.574 189.204C460.574 187.404 460.494 186.404 459.894 185.564C459.334 184.764 458.014 184.244 456.254 184.244C452.774 184.244 451.374 185.524 451.374 188.564L447.854 188.084C447.934 185.684 448.774 183.924 450.334 182.884C451.774 181.924 453.894 181.404 456.454 181.404C461.494 181.404 464.054 183.644 464.054 188.004V197.564C464.054 198.604 464.054 199.084 465.214 199.084C465.534 199.084 465.854 199.044 466.374 198.924L466.454 201.884C464.934 202.604 463.494 204.124 463.494 205.244C463.494 206.164 464.134 206.564 465.134 206.564C465.694 206.564 466.254 206.444 466.654 206.284ZM460.574 194.324V191.884L454.534 193.204C452.414 193.684 450.854 194.284 450.854 196.564C450.854 198.444 452.494 199.484 454.454 199.484C458.814 199.484 460.574 197.204 460.574 194.324Z" fill="#758AF3"/>
<path d="M428.139 201.885V199.085L437.659 187.485C438.219 186.805 439.139 185.765 439.899 184.925V184.885C438.739 184.925 437.299 184.965 436.539 184.965H428.779V181.885H444.019V184.365L434.739 195.805C434.459 196.165 433.419 197.405 432.219 198.765V198.805H444.659V201.885H428.139Z" fill="#758AF3"/>
<path d="M420.816 173.885H424.416V201.885H420.816V198.965C419.336 201.245 417.176 202.365 414.496 202.365C409.176 202.365 405.296 198.405 405.296 191.885C405.296 185.565 408.976 181.405 414.376 181.405C417.176 181.405 419.296 182.365 420.816 184.485V173.885ZM415.136 199.525C418.976 199.525 420.936 196.965 420.936 191.925C420.936 188.205 420.096 184.285 415.216 184.285C410.736 184.285 409.256 187.085 409.256 191.885C409.256 196.565 410.456 199.525 415.136 199.525Z" fill="#758AF3"/>
<path d="M403.015 198.924L403.095 201.884C402.335 202.004 401.655 202.044 400.855 202.044C398.655 202.044 397.455 201.004 397.255 198.924C396.135 201.204 393.935 202.364 390.535 202.364C387.175 202.364 383.815 200.524 383.815 196.604C383.815 192.284 387.455 191.084 390.615 190.484L397.215 189.204C397.215 187.404 397.135 186.404 396.535 185.564C395.975 184.764 394.655 184.244 392.895 184.244C389.415 184.244 388.015 185.524 388.015 188.564L384.495 188.084C384.575 185.684 385.415 183.924 386.975 182.884C388.415 181.924 390.535 181.404 393.095 181.404C398.135 181.404 400.695 183.644 400.695 188.004V197.564C400.695 198.604 400.695 199.084 401.855 199.084C402.175 199.084 402.495 199.044 403.015 198.924ZM397.215 194.324V191.884L391.175 193.204C389.055 193.684 387.495 194.284 387.495 196.564C387.495 198.444 389.135 199.484 391.095 199.484C395.455 199.484 397.215 197.204 397.215 194.324Z" fill="#758AF3"/>
<path d="M360.229 201.885L353.549 181.885H357.429L360.549 192.565C360.669 192.965 361.509 196.005 362.149 198.445C362.589 196.485 363.269 193.525 363.509 192.565L366.189 181.885H369.549L372.189 192.565C372.509 193.885 373.069 196.405 373.509 198.445C374.109 196.125 374.629 194.165 375.109 192.565L378.309 181.885H382.189L375.509 201.885H371.629L368.949 191.565C368.749 190.805 368.229 188.325 367.829 186.325C367.469 188.205 367.069 190.245 366.749 191.565L364.149 201.885H360.229Z" fill="#758AF3"/>
<path d="M342.092 202.364C335.852 202.364 332.092 198.404 332.092 191.884C332.092 185.804 335.892 181.404 342.092 181.404C348.212 181.404 352.052 185.844 352.052 191.884C352.052 198.164 348.092 202.364 342.092 202.364ZM342.092 199.524C346.612 199.524 348.172 196.604 348.172 191.884C348.172 187.164 346.612 184.244 342.092 184.244C337.492 184.244 335.972 187.164 335.972 191.884C335.972 196.604 337.452 199.524 342.092 199.524Z" fill="#758AF3"/>
<path d="M329.812 181.444C330.092 181.404 330.852 181.404 331.132 181.404L331.052 184.804C330.812 184.764 330.492 184.764 330.132 184.764C326.332 184.764 323.572 185.964 323.572 192.404V201.884H319.972V181.884H323.572V185.404C324.132 183.484 326.532 181.684 329.812 181.444Z" fill="#758AF3"/>
<path d="M306.65 181.404C311.97 181.404 315.85 185.364 315.85 191.884C315.85 198.204 312.17 202.364 306.77 202.364C303.97 202.364 301.85 201.404 300.33 199.284V209.884H296.73V181.884H300.33V184.804C301.81 182.524 303.97 181.404 306.65 181.404ZM305.93 199.484C310.41 199.484 311.89 196.684 311.89 191.884C311.89 187.204 310.69 184.244 306.01 184.244C302.17 184.244 300.21 186.804 300.21 191.844C300.21 195.564 301.05 199.484 305.93 199.484Z" fill="#758AF3"/>
<path d="M282.678 202.364C276.438 202.364 272.678 198.404 272.678 191.884C272.678 185.804 276.478 181.404 282.678 181.404C288.798 181.404 292.638 185.844 292.638 191.884C292.638 198.164 288.678 202.364 282.678 202.364ZM282.678 199.524C287.198 199.524 288.758 196.604 288.758 191.884C288.758 187.164 287.198 184.244 282.678 184.244C278.078 184.244 276.558 187.164 276.558 191.884C276.558 196.604 278.038 199.524 282.678 199.524Z" fill="#758AF3"/>
<path d="M260.556 181.404C265.876 181.404 269.756 185.364 269.756 191.884C269.756 198.204 266.076 202.364 260.676 202.364C257.876 202.364 255.756 201.404 254.236 199.284V209.884H250.636V181.884H254.236V184.804C255.716 182.524 257.876 181.404 260.556 181.404ZM259.836 199.484C264.316 199.484 265.796 196.684 265.796 191.884C265.796 187.204 264.596 184.244 259.916 184.244C256.076 184.244 254.116 186.804 254.116 191.844C254.116 195.564 254.956 199.484 259.836 199.484Z" fill="#758AF3"/>
<path d="M235.939 185.364C237.139 187.284 237.779 190.124 237.619 192.964H222.459C222.539 197.364 224.379 199.484 228.139 199.484C231.539 199.484 233.379 198.044 233.859 195.004L237.339 195.284C236.459 199.964 233.259 202.364 228.179 202.364C225.099 202.364 222.699 201.444 220.979 199.444C219.299 197.564 218.539 194.964 218.539 191.844C218.539 188.884 219.379 186.284 221.059 184.404C222.819 182.404 225.259 181.404 228.139 181.404C231.299 181.404 234.299 182.764 235.939 185.364ZM228.179 184.324C225.939 184.324 224.259 185.164 223.459 186.484C222.739 187.684 222.499 189.044 222.499 190.044H233.939C233.899 188.964 233.499 187.444 232.859 186.484C231.819 184.964 230.339 184.324 228.179 184.324Z" fill="#758AF3"/>
<path d="M216.218 181.444C216.498 181.404 217.258 181.404 217.538 181.404L217.458 184.804C217.218 184.764 216.898 184.764 216.538 184.764C212.738 184.764 209.978 185.964 209.978 192.404V201.884H206.378V181.884H209.978V185.404C210.538 183.484 212.938 181.684 216.218 181.444Z" fill="#758AF3"/>
<path d="M190.647 178.965L193.247 173.885H197.287L193.607 178.965H190.647ZM192.327 202.365C186.087 202.365 182.327 198.405 182.327 191.885C182.327 185.805 186.127 181.405 192.327 181.405C198.447 181.405 202.287 185.845 202.287 191.885C202.287 198.165 198.327 202.365 192.327 202.365ZM192.327 199.525C196.847 199.525 198.407 196.605 198.407 191.885C198.407 187.165 196.847 184.245 192.327 184.245C187.727 184.245 186.207 187.165 186.207 191.885C186.207 196.605 187.687 199.525 192.327 199.525Z" fill="#758AF3"/>
<path d="M178.014 202.085C174.294 202.085 172.654 200.645 172.654 197.405V184.885H169.774V181.885H172.654V176.325H176.214V181.885H180.294V184.885H176.214V197.285C176.214 198.605 176.814 198.845 178.294 198.845C178.734 198.845 179.454 198.765 180.134 198.645L180.214 201.885C179.694 201.965 178.894 202.085 178.014 202.085Z" fill="#758AF3"/>
<path d="M164.652 201.885L158.052 191.605L155.252 194.245V201.885H151.652V173.885H155.252V190.165L163.612 181.885H168.492L160.612 189.245L168.852 201.885H164.652Z" fill="#758AF3"/>
<path d="M839.5 238V240H94.5V238H839.5ZM932 145.5V108.5C932 57.4137 890.586 16 839.5 16H94.5C43.4137 16 2 57.4137 2 108.5V145.5C2 196.586 43.4137 238 94.5 238V240C42.7169 240 0.661914 198.35 0.0078125 146.722L0 145.5V108.5C1.27862e-06 56.7169 41.6504 14.6619 93.2783 14.0078L94.5 14H839.5L840.722 14.0078C892.35 14.6619 934 56.7169 934 108.5V145.5L933.992 146.722C933.338 198.35 891.283 240 839.5 240V238C890.586 238 932 196.586 932 145.5Z" fill="#758AF3"/>
</svg>
